<?xml version="1.0" standalone="no"?>
<!DOCTYPE svg PUBLIC "-//W3C//DTD SVG 1.1//EN" "http://www.w3.org/Graphics/SVG/1.1/DTD/svg11.dtd" >
<svg xmlns="http://www.w3.org/2000/svg" xmlns:xlink="http://www.w3.org/1999/xlink" version="1.1">
<metadata>
Created by FontForge 20170924 at Fri Feb 17 18:05:40 2012
 By www-data
Copyright (c) 2012, Brownfox (gayaneh.b@gmail.com), with Reserved Font Name "Henny Penny"
</metadata>
<defs>
<font id="HennyPenny-Regular" horiz-adv-x="1606" >
  <font-face 
    font-family="Henny Penny"
    font-weight="400"
    font-stretch="normal"
    units-per-em="2048"
    panose-1="2 0 5 5 0 0 0 2 0 4"
    ascent="1638"
    descent="-410"
    x-height="1016"
    cap-height="1733"
    bbox="-298 -1305 2552 2324"
    underline-thickness="102"
    underline-position="-205"
    unicode-range="U+0020-FB00"
  />
<missing-glyph horiz-adv-x="553" 
d="M77 1264h399v-1264h-399v1264zM468 8v1248h-383v-1248h383z" />
    <glyph glyph-name="f_f" unicode="ff" horiz-adv-x="958" 
d="M848 1151q26 0 42.5 -2.5t25.5 -6.5t12.5 -10t3.5 -12q0 -17 -18.5 -26t-67.5 -9q-35 0 -89 -3t-110 -11q10 -99 25 -198.5t33.5 -193t39.5 -179t43 -157t43.5 -126t40.5 -86.5t42.5 -53t52.5 -35q21 -10 42.5 -15.5t39 -9t28 -8t10.5 -12.5q0 -22 -63 -31
q-20 -3 -42.5 -6t-49.5 -9t-58.5 -16t-68.5 -26q-42 -18 -76 -39t-61.5 -40t-48 -31.5t-35.5 -12.5q-19 0 -19 20q0 13 15.5 29.5t34 37t34 44.5t15.5 51q0 32 -9.5 90t-25 136.5t-34 175t-36.5 206t-32.5 230t-22.5 246.5l-49 -6q-35 -5 -65.5 -11t-59.5 -12
q9 -136 21.5 -259t27.5 -239t32 -226.5t35 -221.5q14 -88 27.5 -182.5t31 -183.5t42 -166.5t59.5 -129.5q34 -50 72.5 -72.5t71.5 -32t55 -14t22 -18.5q0 -15 -24.5 -24t-77.5 -9q-41 0 -88 6.5t-97 15t-101 15t-99 6.5q-41 0 -76.5 -2.5t-64 -5.5t-49.5 -5.5t-31 -2.5
q-37 0 -50.5 8t-13.5 27q0 9 5 15t11.5 9.5t14.5 5.5t14 3q16 2 43 7.5t54 18.5t48.5 35t26.5 57q3 20 5 43.5t2 51.5q0 95 -13 235.5t-29.5 322t-31.5 402t-19 475.5q-37 -9 -64.5 -13.5t-39.5 -4.5q-19 0 -19 14q0 16 35.5 31t87.5 31v94q0 370 48 622t128 381
q30 48 64 82.5t70.5 56t74 31.5t74.5 10q43 0 80 -13t64.5 -38t43 -60t15.5 -79q0 -45 -13 -78t-35 -54.5t-50 -31.5t-58 -10q-63 0 -91 34.5t-28 90.5q0 21 -1.5 41t-7.5 35.5t-17.5 24.5t-30.5 9q-44 0 -76 -38t-54.5 -100.5t-37 -142t-22 -162.5t-10.5 -162.5t-3 -141.5
q0 -94 4 -188t11 -181q9 2 21.5 5t25.5 5.5t24.5 4.5t18.5 4l82 14q-2 32 -2 65.5v67.5q0 80 9 165t29.5 165.5t54 153t82 126.5t113 85.5t148.5 31.5q70 0 121 -22t84 -59.5t49 -88.5t16 -108q0 -62 -13.5 -114t-39.5 -89t-64 -57.5t-86 -20.5q-75 0 -118 40t-43 112
q0 33 10 58.5t25.5 46.5t33 39t33 37t25.5 40.5t10 48.5q0 38 -21.5 60t-64.5 22q-51 0 -97.5 -32t-82 -101t-57 -178t-21.5 -263q0 -52 1.5 -104.5t6.5 -108.5q31 5 61 9t57 6.5t50 4t39 1.5z" />
    <glyph glyph-name="n_n" unicode="nn" horiz-adv-x="2099" 
d="M1466 866q-2 -24 -2.5 -41.5t-2 -35.5t-3 -40t-4.5 -53q25 59 61 101t75.5 69t80.5 39.5t76 12.5q71 0 124 -28.5t88 -79t52 -120.5t17 -153q0 -49 -8 -106.5t-18 -111t-18 -97.5t-8 -66q0 -16 5 -28t18 -22q22 -17 41.5 -24.5t30.5 -13.5q8 -4 8 -15q0 -6 -4.5 -11
t-14.5 -5q-27 0 -63 9.5t-80.5 21t-97.5 21t-113 9.5q-37 0 -68.5 -1t-48.5 -1q-12 0 -20 6t-8 17q0 14 8.5 19t19.5 5q20 0 32.5 -2t35.5 -2q42 0 65 25.5t37 62.5q9 22 17.5 61.5t15.5 86.5t11.5 97.5t4.5 94.5q0 34 -5 76t-21 78.5t-45.5 61t-77.5 24.5q-53 0 -90.5 -36
t-61.5 -92.5t-35.5 -124t-11.5 -130.5q0 -48 6.5 -88t16.5 -60q6 -12 16 -19.5t22 -12t24.5 -6t23.5 -2.5q17 -2 25 -7t8 -16q0 -15 -13 -20t-33 -5q-49 0 -94 -4t-96 -12q-34 -5 -60 -12t-48 -13t-40 -10t-36 -4q-29 0 -36 10.5t-7 16.5q0 11 5.5 16t14.5 8q22 7 39.5 14.5
t30 21t20.5 35t11 56.5q1 13 2 45t2.5 73.5t3 90t3 95t2.5 88t1 69.5t-2 52t-8.5 42t-19 28.5t-34.5 10.5q-27 0 -43 4.5t-16 18.5q0 16 29 22q74 13 121.5 32.5t76.5 37.5t44.5 30.5t25.5 12.5q15 0 18.5 -26.5t3.5 -69.5q0 -6 -0.5 -18.5t-1 -27.5t-1 -29.5t-1.5 -25.5z
M344 1288q8 0 16 -25.5t16 -66.5t16 -94.5t16 -108.5l36 -252q5 33 17.5 76t33.5 89t51 90t69.5 79t89 56.5t110.5 21.5q75 0 130 -28.5t91 -79t53 -120.5t17 -153q0 -75 -8.5 -150.5t-18 -148.5t-18 -141t-8.5 -127q0 -35 6 -61t18 -48q14 -21 34.5 -36.5t39 -29t32 -27
t13.5 -28.5q0 -9 -5 -15.5t-17 -6.5q-18 0 -39.5 13.5t-53 34t-75.5 44t-107 43.5q-48 16 -95.5 25t-109.5 12q-35 3 -35 20q0 19 23 19h39t51 2q40 3 66 24.5t39 79.5q4 23 8 58.5t7 76t5 82.5t2 80q0 34 -1 78.5t-6.5 92.5t-17 94t-33.5 82t-56 58.5t-83 22.5
q-54 0 -92 -28.5t-63.5 -74.5t-40.5 -104t-23 -118t-10 -116t-2 -97q0 -55 4 -105.5t11 -93t17 -75.5t23 -52q19 -26 41 -39t37 -18q20 -6 28.5 -10.5t8.5 -12.5q0 -16 -41 -16q-21 0 -46 3.5t-52 7.5t-56 7.5t-57 3.5t-57 -2t-55.5 -4t-48.5 -4t-35 -2q-39 0 -39 25
q0 9 6.5 15.5t23.5 8.5q14 1 25 2t22.5 1.5t24 1.5t29.5 3q32 5 43.5 23.5t11.5 50.5q0 55 -9.5 134t-25.5 174t-38.5 201.5t-47.5 217.5q-12 57 -27.5 85t-44.5 28q-15 0 -31 -5.5t-31.5 -12t-29.5 -12t-26 -5.5q-19 0 -19 16q0 13 10.5 18.5t22.5 10.5q28 11 62.5 30
t72.5 48t66 61.5t48 59.5t32.5 45t19.5 18z" />
    <glyph glyph-name="a_a" unicode="aa" horiz-adv-x="1866" 
d="M1036 821q-26 0 -50 9t-42.5 28.5t-29.5 51.5t-11 77q0 23 7 54t23.5 63.5t42.5 64.5t64.5 57t89.5 40.5t117 15.5q101 0 171.5 -38.5t116 -97.5t69 -129t30.5 -134q9 -89 14 -188t8 -195t5 -182t6 -150q6 -105 35 -156t92 -51q28 0 47 12t31.5 32t19 45t9.5 52
q2 20 6 34t16 14q9 0 14 -9.5t5 -23.5q0 -15 -2.5 -39t-9.5 -52t-21 -55.5t-37.5 -50.5t-57.5 -37t-81 -14q-70 0 -125 26t-94 73.5t-61 114.5t-26 148q-18 -25 -47.5 -55.5t-71 -57t-94 -44.5t-116.5 -19q-15 -18 -37 -34.5t-49 -29t-57.5 -19.5t-63.5 -7q-128 0 -216 54.5
t-134 166.5q-3 -29 -20 -69.5t-48.5 -78t-79 -63.5t-112.5 -26q-50 0 -94.5 13t-77.5 42t-52.5 75.5t-19.5 113.5q0 57 18 103t47.5 81.5t66.5 61.5t75 42q36 15 72 24t66.5 13t54 5t34.5 1q20 0 32 5.5t15 25.5q6 34 6 90q0 57 -8 114t-29.5 103t-60 74.5t-98.5 28.5
q-34 0 -58 -9.5t-39.5 -25.5t-22.5 -36.5t-7 -41.5q0 -32 12.5 -52t27.5 -38t27.5 -37.5t12.5 -50.5q0 -42 -28 -72.5t-73 -30.5q-57 0 -89 35.5t-32 100.5q0 57 20.5 112t58.5 98t93 69t123 26q69 0 118 -21t82.5 -58.5t53.5 -88.5t31.5 -111.5t16 -127.5t6.5 -136
q3 -115 19 -197.5t47.5 -135.5t81 -78t118.5 -25q55 0 100 28q-55 10 -104 37t-86 68t-58.5 94.5t-21.5 116.5q0 79 27.5 144.5t79 112t124.5 72t164 25.5q54 0 101.5 -9.5t86 -23.5t66.5 -29.5t43 -27.5q2 25 5 72t3 104q0 60 -5 120.5t-17 106.5q-11 41 -29.5 75.5t-45 60
t-59.5 39.5t-73 14q-68 0 -106 -29.5t-38 -73.5q0 -25 12 -43t27 -37t27 -44.5t12 -65.5q0 -22 -7 -43.5t-22.5 -38t-39.5 -27t-58 -10.5zM1141 295q0 25 -9 40t-23 24.5t-29.5 16.5t-29.5 16t-23 23t-9 38q0 26 18 47.5t60 21.5q54 0 81 -40t27 -109q0 -94 -28 -176
q57 1 101.5 16t76 33.5t50 36t23.5 24.5q1 25 3.5 57t5 67t4.5 72t4 72q-15 13 -39.5 28t-57.5 27.5t-74 20.5t-89 8q-47 0 -88.5 -15.5t-73 -46t-50 -77.5t-18.5 -110q0 -48 15 -85t39.5 -63.5t56 -42t63.5 -20.5q13 43 13 96zM254 227q0 -41 9.5 -70.5t25.5 -48.5
t38 -27.5t48 -8.5q36 0 61 16.5t41.5 43t26.5 60t14.5 69t6 69t1.5 59.5q0 23 -1.5 49.5t-4.5 44.5q-57 0 -106 -18.5t-84.5 -52t-55.5 -80.5t-20 -105z" />
    <glyph glyph-name="t_h" unicode="th" horiz-adv-x="1751" 
d="M967 2200q30 0 30 -62q0 -22 -0.5 -57t-3.5 -97t-8.5 -158.5t-15.5 -240.5l-19 -272q25 0 44 1t34 1q42 0 58 -9.5t16 -29.5t-15.5 -30.5t-39.5 -12.5q-16 -2 -41 -2h-60q-5 -69 -7 -117.5t-3.5 -90l-3 -83t-4.5 -96.5q20 43 52 84.5t76 74t101 52.5t127 20
q107 0 185.5 -35t130.5 -101t77 -160t25 -212q0 -104 -15.5 -208.5t-33.5 -201.5t-33.5 -180t-15.5 -143q0 -49 13.5 -88t47.5 -74q21 -23 37.5 -36t27 -21.5t16 -14t5.5 -14.5q0 -6 -5.5 -11t-19.5 -5q-25 0 -58 13t-72 30t-82.5 34t-90.5 25q-62 11 -128 14t-132 3
q-57 0 -57 26q0 12 12.5 18t32 10t44.5 9t50 15t47.5 23t42 33t35 48.5t27.5 67.5q11 40 24.5 104.5t25.5 147.5t20 180.5t8 203.5q0 99 -11.5 178.5t-39 135t-73.5 85.5t-116 30q-61 0 -106 -23t-77.5 -59t-54 -80.5t-34.5 -87.5t-19.5 -80t-9.5 -58q-5 -32 -9.5 -78
t-8 -98.5t-5.5 -108t-2 -106.5v-48t2 -44q82 5 135.5 27.5t85 53t44 65.5t12.5 65q0 34 -14.5 56.5t-31.5 43.5t-31.5 44.5t-14.5 58.5q0 31 10 54.5t27 39.5t39 23.5t45 7.5q57 0 91.5 -36.5t34.5 -105.5q0 -29 -5.5 -71t-21.5 -88.5t-45 -94t-76.5 -88t-115.5 -70
t-161 -40.5q3 -37 21.5 -67t43.5 -52.5t51.5 -38t44.5 -22.5q31 -13 52.5 -20t21.5 -21q0 -8 -9.5 -14.5t-35.5 -6.5q-27 0 -58.5 6.5t-69 14t-81 14t-94.5 6.5t-105.5 -9.5t-103.5 -21t-87 -21t-56 -9.5q-17 0 -17 10q-1 9 12 17t34 17.5t49 21.5t57 30q49 29 76.5 76
t33.5 98q-132 27 -217.5 86t-135 143t-68.5 190.5t-19 229.5q0 58 5.5 121t12 121.5t12 107.5t5.5 80q0 37 -10.5 55.5t-44.5 18.5q-29 0 -58.5 -3t-59.5 -7t-58.5 -7t-53.5 -3q-29 0 -39 10t-10 24q0 27 39 33q72 10 125 20.5t94.5 22.5t75 26.5t65.5 33.5q54 30 92 71
t65.5 78t47 62.5t35.5 25.5q18 0 18 -20q0 -19 -9 -44.5t-20.5 -55t-20.5 -61t-9 -61.5q0 -26 10.5 -44.5t38.5 -24.5q23 -5 68 -5.5t110 -0.5q4 57 8 114.5t7 108t4.5 90.5t1.5 61q0 39 -2 74t-9.5 64.5t-21.5 52.5t-39 37q-21 12 -57.5 15t-71.5 3q-31 0 -66.5 -1
t-54.5 -1q-23 0 -35 4.5t-12 18.5q0 12 15.5 16.5t44.5 7.5q31 4 62 9t63.5 13t66 20t68.5 30q47 24 80.5 51.5t58 50t41.5 37.5t31 15zM469 705q0 -88 8 -174.5t33 -160.5t72.5 -129t126.5 -79q5 58 11 139t12 171.5t12 183t11 175t8.5 147.5t6.5 99l10 160q-51 3 -97 3.5
t-77 0.5q-29 0 -47.5 -8.5t-29.5 -22t-16.5 -29t-8.5 -30.5q-6 -26 -12.5 -78t-11.5 -115t-8 -129.5t-3 -123.5z" />
    <glyph glyph-name="s_s" unicode="ss" horiz-adv-x="1341" 
d="M1024 1350q35 0 64 -3.5t49 -3.5q22 0 37.5 11t26.5 28t18.5 36t13.5 36t12.5 28t14.5 11q14 0 14 -20q0 -17 -5 -43.5t-11.5 -58.5t-11.5 -67.5t-5 -70.5q0 -56 2 -94.5t2 -67.5q0 -15 -4 -25t-12 -10q-13 0 -20 16t-13 44q-8 33 -17.5 68.5t-27.5 65.5t-46 49t-73 19
q-29 0 -55 -10t-45.5 -31t-31 -53.5t-11.5 -77.5q0 -73 31 -142.5t78 -139t101 -142.5t101 -153t78 -170t31 -193q0 -107 -35 -194.5t-100 -149.5t-156.5 -95.5t-204.5 -33.5q-102 0 -176 27t-126 70.5t-83.5 99t-48.5 113.5q-59 16 -101 45.5t-73 58.5t-55 50.5t-48 21.5
q-18 0 -38 -15t-39 -32.5t-35 -32.5t-27 -15q-10 0 -10 11q0 7 9.5 21.5t24 37.5t32.5 55.5t36 75.5q18 46 28 91.5t17 81.5t15.5 58.5t23.5 22.5q16 0 19.5 -19t3.5 -51t1.5 -74t10.5 -91q14 -78 60.5 -137.5t127.5 -84.5q-5 28 -6.5 54t-1.5 51q0 63 14.5 111t38.5 81
t56 49.5t67 16.5q45 0 74 -25t29 -71q0 -38 -15.5 -60.5t-38.5 -37.5t-50.5 -26.5t-50.5 -28.5t-38.5 -42.5t-15.5 -67.5v-16q9 -2 18.5 -2h20.5q54 0 98.5 16.5t77 49.5t50.5 81.5t18 112.5q0 77 -32.5 145.5t-81.5 133t-105.5 126t-105.5 126t-81.5 133t-32.5 145.5
q0 63 20 110.5t55.5 79.5t83.5 48t105 16q38 0 69 -8t52 -8q52 0 84 18t51.5 39t30.5 39t21 18q8 0 8 -8q0 -9 -12.5 -26.5t-30 -40t-36.5 -49t-32 -54.5q-7 -15 -18.5 -44t-24 -58.5t-25.5 -51.5t-22 -22q-4 0 -4 6q0 10 8 35t8 57q0 48 -25.5 79.5t-78.5 31.5
q-62 0 -96.5 -38.5t-34.5 -113.5q0 -71 34.5 -130t87 -114.5t113 -111.5t113 -120.5t87 -142.5t34.5 -177q0 -103 -34.5 -179.5t-91.5 -126.5t-130.5 -75t-151.5 -25h-23t-22 2q18 -50 51.5 -89.5t76.5 -67t91.5 -42t96.5 -14.5q145 0 223 95t78 276q0 87 -24.5 167.5
t-62 155.5t-80.5 147t-80.5 143.5t-62 143.5t-24.5 148q0 81 28 134.5t72 84.5t97 43.5t104 12.5z" />
    <glyph glyph-name="t_t" unicode="tt" horiz-adv-x="1167" 
d="M473 1528q9 0 12.5 -10t3.5 -25q0 -22 -5 -58.5t-11 -75.5t-11.5 -75t-6.5 -57q0 -33 30 -33q32 0 51.5 15.5t22.5 62.5q1 27 4.5 64t7 75t7.5 72t6 55q4 34 8 55.5t13 34.5t24.5 19t42.5 8q21 2 37 2h28q31 0 40 -11.5t9 -43.5q0 -21 -4 -60t-8.5 -81.5t-8 -82.5
t-3.5 -63q0 -13 6 -22t20 -9q28 0 69 13.5t81 30t73 30.5t46 14q12 0 12 -12q0 -8 -14.5 -19.5t-37.5 -25t-51.5 -27.5t-57 -26.5t-54 -24t-41.5 -18.5q-44 -22 -61 -51.5t-23 -63.5q-2 -7 -5.5 -34.5t-8 -69t-7.5 -94.5t-3 -111q0 -108 14.5 -204.5t46.5 -169t83 -115
t124 -42.5q29 0 49.5 9t33.5 22.5t19 28t6 26.5q0 22 -9.5 34.5t-24 20t-32.5 11t-36 8.5q-16 4 -31 11.5t-27 19.5t-19 28.5t-7 40.5q0 42 26 72.5t83 30.5q41 0 71.5 -16.5t51 -42t30.5 -56t10 -59.5q0 -41 -12.5 -84t-40.5 -78t-74.5 -57.5t-113.5 -22.5t-124 23t-102 63
t-77 93.5t-48 115.5q-15 58 -23.5 123.5t-12 130.5t-4.5 125.5t-1 107t-1 75t-5 30.5q-2 2 -10 2q-6 0 -16.5 -1t-21.5 -4t-20.5 -8t-13.5 -12t-13.5 -38.5t-19.5 -93.5t-18 -157.5t-8 -230.5q0 -196 26 -324.5t67.5 -205t94 -107.5t105.5 -31q35 0 55.5 19t31.5 45
t15.5 54.5t8.5 47.5t11 41.5t21 41.5t38 31.5t61 12.5q33 0 55 -9.5t35.5 -25.5t19.5 -37.5t6 -44.5q0 -32 -16.5 -73t-52.5 -77t-94 -60.5t-142 -24.5q-147 0 -252 60.5t-172 162.5t-98 235.5t-31 280.5q0 72 4 135.5t8.5 120.5t8.5 108t4 97q0 29 -14.5 37t-34.5 8
q-31 0 -59 1t-49.5 4t-34.5 9.5t-13 18.5q0 11 13 15.5t38 11t61.5 18t82.5 37.5q49 27 83.5 55.5t58.5 56.5t39.5 54t26.5 49q13 25 21.5 47.5t15.5 40t14.5 27.5t18.5 10z" />
    <glyph glyph-name="e_e" unicode="ee" horiz-adv-x="1602" 
d="M438 1141q55 0 99.5 -16.5t75 -46t47 -70.5t16.5 -90q0 -82 -22.5 -144.5t-59 -109t-83 -78t-93.5 -52t-90.5 -31.5t-75.5 -16q26 -72 71 -127.5t104 -93t130 -57t150 -19.5q59 0 112 9q-72 88 -104.5 199.5t-32.5 226.5q0 132 36.5 233t97.5 169t141.5 103t168.5 35
q67 0 122 -21t94 -61.5t60 -100t21 -136.5q0 -90 -25 -180t-72 -172t-116 -153t-157 -122q49 -46 111.5 -70t133.5 -24q58 0 97 20.5t63 51.5t34.5 68.5t10.5 72.5q0 40 -9.5 70.5t-21 53t-21 38t-9.5 26.5q0 13 12 13q16 0 36.5 -15.5t38.5 -43t30 -64.5t12 -80
q0 -67 -20.5 -126t-61 -103t-101 -69.5t-141.5 -25.5q-124 0 -216 35.5t-159 95.5q-107 -30 -233 -30q-75 0 -150.5 13.5t-146 42t-131.5 72.5t-106 104t-71 137.5t-26 172.5q0 122 39 213.5t101 152t138.5 90.5t151.5 30zM889 680q0 -133 31 -236t88 -176q59 36 103 85
t76.5 103t53.5 111t34 110t18 99.5t5 79.5q0 68 -13.5 116.5t-36.5 79.5t-55 45.5t-69 14.5q-44 0 -86.5 -24.5t-75.5 -77t-53 -134.5t-20 -196zM221 684q0 -43 4.5 -83t14.5 -75q70 14 121.5 38.5t86.5 56.5t57 69t34 75.5t16 76.5t4 71q0 34 -6 65.5t-20.5 55.5t-37 38.5
t-55.5 14.5q-52 0 -93 -32t-69 -86.5t-42.5 -128t-14.5 -156.5z" />
    <glyph glyph-name="o_o" unicode="oo" horiz-adv-x="1540" 
d="M1051 1010q15 0 20.5 -4t5.5 -11q0 -14 -30 -32q-39 -25 -79 -57t-71 -83q16 -45 25.5 -92t9.5 -98q0 -60 -11.5 -114.5t-31.5 -102.5q10 -17 27 -33t39.5 -29t51 -20.5t60.5 -7.5q51 0 92.5 21t71.5 58t46.5 88t16.5 111q0 88 -25 171t-75 138q-6 8 -14 15.5t-15.5 16
t-12.5 17t-5 17.5q0 15 9 24t26 9q23 0 54.5 -3t70.5 -3q72 0 143 15t135.5 41.5t120.5 61.5t98 76q42 40 74.5 85t55 90t34.5 88t12 81q0 32 -12.5 55t-31 40.5t-40.5 33t-40.5 33t-31 39.5t-12.5 53q0 51 33 84t94 33q30 0 58 -10.5t49 -32.5t34 -55.5t13 -79.5
q0 -56 -15 -128t-46.5 -148.5t-79.5 -152t-115 -139.5q-71 -68 -147 -109t-144.5 -64.5t-123 -32t-81.5 -9.5q8 -5 34 -27.5t54 -61t50 -93.5t22 -125q0 -90 -33.5 -160.5t-90.5 -118.5t-133 -73t-161 -25q-66 0 -127 14.5t-112 43.5q-59 -88 -152 -139.5t-215 -51.5
q-82 0 -161.5 24.5t-142.5 77.5t-101.5 136.5t-38.5 202.5q0 126 38.5 223t104.5 162.5t154 99t186 33.5q52 0 100.5 -12t91 -34.5t77.5 -54t61 -69.5q29 21 59 37t57.5 26.5t50.5 15.5t38 5zM535 1055q-63 0 -117.5 -31t-95 -94t-63.5 -157t-23 -220q0 -80 16.5 -143.5
t47 -107.5t73.5 -67.5t96 -23.5q51 0 92.5 20t73.5 54t53.5 78.5t32.5 93.5q-17 34 -28 76t-11 90q0 62 19.5 116.5t48.5 96.5q-17 109 -74.5 164t-140.5 55z" />
    <glyph glyph-name="l_l" unicode="ll" horiz-adv-x="1174" 
d="M344 1753q25 0 25 -47q0 -17 -0.5 -48t-1.5 -69.5t-1.5 -81.5t-0.5 -84q0 -50 1 -120.5t2.5 -154.5t3.5 -176.5l4 -185t4.5 -181t4.5 -164.5t4 -135t4 -93q1 -25 2.5 -54t4.5 -58t6.5 -55.5t7.5 -45.5q11 -56 30.5 -88t34.5 -47q18 -19 39 -33.5t40 -26.5t31.5 -23.5
t12.5 -23.5q0 -9 -7 -16.5t-24 -7.5q-20 0 -52.5 12t-75 29t-94.5 37t-111 36q-48 13 -95 22.5t-87.5 15.5t-70 10t-42.5 6q-26 5 -35.5 13.5t-9.5 21.5q0 9 6 17.5t26 8.5q19 0 57.5 -4t82.5 -4q24 0 38.5 9.5t22.5 27t11 40.5t5 50q3 68 6 151t5 175.5t3 191t1 197.5
q0 87 -1 173t-2.5 166t-3.5 152.5t-5 132.5q-2 32 -9.5 45t-19.5 13q-15 0 -39 -11.5t-48.5 -25.5t-46.5 -25.5t-32 -11.5q-14 0 -14 12q0 7 10 15q4 3 23.5 12.5t50 28t70 46.5t83.5 68q35 32 60.5 62t44.5 53t33.5 37t27.5 14zM694 1067q-8 130 -14 216t-16.5 138
t-29.5 73.5t-52 21.5q-22 0 -46 -4.5t-38 -4.5q-10 0 -17.5 5t-7.5 16t8 15.5t19 6.5q15 3 37 7.5t51 13t64 21.5t75 34q41 21 71 42.5t51.5 39t35.5 28.5t22 11t11.5 -14.5t3.5 -38.5q0 -66 -0.5 -141t-0.5 -154t-0.5 -159.5t-0.5 -158.5q0 -75 3 -165.5t8 -184t13 -184
t17 -166t20 -130.5t23 -77q17 -34 50 -47.5t81 -20.5q21 -3 35 -10t14 -22q0 -13 -12 -22t-46 -9q-21 0 -51.5 2t-67.5 5t-78.5 5t-82.5 2q-46 0 -89.5 -3.5t-80.5 -7.5t-66 -7.5t-47 -3.5q-17 0 -24 6.5t-7 15.5q0 14 11 21q8 5 23 8t32.5 7t36 9.5t33.5 16.5
q28 18 37.5 52t9.5 91v55t-1 106t-2.5 142.5t-3.5 164.5t-5.5 172t-8.5 165z" />
    <glyph glyph-name="z_z" unicode="zz" horiz-adv-x="1792" 
d="M541 967q61 0 109 6t84 12.5t60.5 12.5t39.5 6q16 0 16 -13q0 -6 -5 -16t-12.5 -21.5t-16 -23.5t-15.5 -21q-34 -44 -71.5 -97.5t-77 -111.5t-80 -118.5t-80.5 -118.5q-46 -68 -78 -118t-60.5 -94t-58 -88.5t-70.5 -101.5q50 17 129 31t178 14q86 0 161 -14t144.5 -35
t135 -46t133 -46t139 -35t152.5 -14q61 0 100 11.5t61.5 30t31.5 41.5t9 46q0 37 -11 65.5t-24.5 54t-24.5 50.5t-11 57q0 70 37.5 110t103.5 40q30 0 56 -9.5t45.5 -30t30.5 -51.5t11 -73q0 -97 -36.5 -170t-102.5 -121.5t-157.5 -73t-202.5 -24.5q-60 0 -132 11t-151 27
t-162.5 35.5t-166 35.5t-161.5 27t-149 11q-73 0 -141 -10.5t-124 -23t-96.5 -23t-58.5 -10.5q-5 0 -8.5 1.5t-3.5 6.5q0 11 16 40t37 63.5t42 66.5t30 49q21 36 54 94.5t71.5 126.5t78 139t74 133.5t60 110t35.5 68.5q5 11 7.5 20t2.5 19q0 15 -15.5 25.5t-39.5 17
t-51.5 9.5t-51.5 3q-20 0 -39.5 -1.5t-37 -7t-31.5 -17t-23 -31.5q-5 -13 -8.5 -30.5t-5 -34.5t-2 -31t-0.5 -19q0 -45 -12 -45q-5 0 -8 7t-3 24q0 3 -0.5 18t-1 37t-1.5 47.5t-1.5 48.5t-1 40t-0.5 22q0 15 4 30t23 15q24 0 63 -7.5t89.5 -16t108.5 -16t120 -7.5zM537 1262
q14 0 39.5 -9t65.5 -19.5t95 -19t129 -8.5q80 0 139.5 8t102.5 17.5t70.5 17.5t42.5 8q20 0 20 -20q0 -14 -11 -49.5t-29 -85t-42 -110t-49 -125.5t-50 -131.5t-46 -127.5q-32 -91 -51.5 -147.5t-32 -92t-19.5 -55.5t-12 -39q26 -3 72 -4.5t94 -1.5q44 0 81.5 3.5t67 15
t51 34.5t33.5 62q11 34 16.5 62.5t10 48t9.5 30.5t14 11q8 0 13 -9.5t5 -38.5q0 -20 -1 -52.5t-1 -57.5q0 -22 1 -44t2.5 -42t3 -35.5t1.5 -24.5q0 -15 -5.5 -25.5t-25.5 -10.5q-24 0 -56.5 5t-73.5 11t-89.5 11t-103.5 5q-53 0 -103.5 -6t-96 -12.5t-83.5 -12.5t-65 -6
q-26 0 -35.5 8.5t-9.5 22.5q0 19 19.5 68.5t51.5 119t74.5 155.5t87.5 179q34 72 62.5 135.5t49 114.5t31.5 86t11 49q0 17 -53.5 24.5t-147.5 12.5q-43 2 -84.5 4t-75.5 2q-35 0 -53.5 -14t-28.5 -39q-5 -12 -9 -28.5t-8.5 -31t-9 -24.5t-10.5 -10q-3 0 -5.5 5.5t-2.5 21.5
q0 18 1 42t1 46q0 10 -0.5 22.5t-0.5 25.5t-0.5 25t-0.5 21q0 18 3 23.5t10 5.5z" />
    <glyph glyph-name="j_j" unicode="jj" horiz-adv-x="1182" 
d="M426 1313q25 0 47 -8.5t38.5 -24.5t26 -39.5t9.5 -52.5q0 -23 -8 -45t-24 -40t-39 -29t-54 -11q-23 0 -44.5 8t-38 23t-26.5 37t-10 51q0 35 11 60t28.5 40.5t39.5 23t44 7.5zM573 940q12 0 21.5 -8t18.5 -29.5t17.5 -58.5t18.5 -94q15 -83 26 -171.5t18.5 -177.5
t11.5 -176t4 -168q0 -203 -21.5 -362.5t-60.5 -280t-92.5 -205t-117 -137t-135 -76.5t-145.5 -24q-96 0 -165 31.5t-114 84t-66 120t-21 139.5q0 86 23.5 151t62 109t88 66t100.5 22q45 0 77 -13.5t51.5 -35t28.5 -48.5t9 -55q0 -38 -11 -65t-30.5 -46t-45 -30.5
t-54.5 -17.5q-47 -10 -82.5 -22.5t-59 -31.5t-35.5 -45.5t-12 -64.5q0 -40 18 -76t50.5 -63.5t78 -43.5t101.5 -16q111 0 188 56t125 155.5t69 237t21 299.5q0 158 -13.5 294.5t-34 247.5t-45.5 193.5t-48 132.5q-26 59 -67.5 105.5t-98.5 74.5q-40 20 -80.5 32.5
t-68.5 20.5q-29 10 -29 23q0 16 23 16q9 0 29 -2t48 -5t63.5 -5t74.5 -2q61 0 107 7t80 15.5t58.5 15.5t42.5 7zM1141 -258q0 -108 -8.5 -228t-30.5 -236.5t-60 -222t-96 -185.5t-139 -127.5t-189 -47.5q-50 0 -93 14.5t-75 42.5t-50.5 68.5t-18.5 92.5q0 38 10.5 66.5
t28.5 47t42 28t50 9.5q44 0 70.5 -19t43 -48t27.5 -62t26 -62t38 -48t63 -19t71.5 29.5t54.5 82t39 125.5t26 160t14 185.5t4 201.5q0 63 -4.5 149.5t-14.5 186t-25.5 207.5t-37 214.5t-49.5 206t-63 182.5t-77.5 144t-92.5 91q-22 12 -43.5 17.5t-39 8.5t-28 6.5
t-10.5 12.5q0 11 15.5 17t47.5 14q41 9 95.5 20.5t132.5 36.5q26 8 46 14t36 6q20 0 35 -20t32 -64q44 -111 80 -252.5t62 -307t40.5 -352t14.5 -386.5zM717 1489q28 0 53 -8.5t44 -26t30.5 -44t11.5 -62.5q0 -81 -41 -124.5t-104 -43.5q-29 0 -55 8.5t-45.5 27t-31.5 48
t-12 71.5q0 68 39.5 111t110.5 43z" />
    <glyph glyph-name="f_b" unicode="fb" horiz-adv-x="1499" 
d="M678 2304q56 0 108 -17.5t92.5 -56t64.5 -98.5t24 -145q0 -76 -19 -138t-53 -106t-81 -68t-103 -24q-37 0 -66 11.5t-49 31t-30.5 46t-10.5 56.5q0 21 5 43t19 42t38.5 39t62.5 34q74 29 108.5 71t34.5 101q0 20 -7 45t-25 46.5t-50 36.5t-82 15q-62 0 -106.5 -32.5
t-75.5 -86t-50 -122t-29 -140t-13.5 -140t-3.5 -122.5q0 -39 1.5 -77.5t11.5 -69t31 -49.5t60 -19q31 0 63.5 6t62 12.5t54.5 12.5t42 6q30 0 30 -21q0 -14 -13.5 -22t-45.5 -14q-15 -3 -33.5 -5.5t-42.5 -5.5t-54 -8t-69 -14q-26 -6 -41.5 -15.5t-23.5 -21.5
q-10 -16 -12.5 -39.5t-2.5 -52.5q0 -8 1.5 -60t4 -132t5.5 -181t6.5 -207t7 -209.5t6.5 -188.5t5.5 -144.5t4.5 -77.5q5 -60 23.5 -99t64.5 -53q16 -5 29.5 -7.5t28 -4t31 -3.5t38.5 -5q26 -3 41 -10.5t15 -22.5q0 -20 -23 -29.5t-63 -9.5q-23 0 -62.5 1t-83.5 1
q-94 -1 -166 -18.5t-126.5 -38.5t-94 -38.5t-67.5 -17.5q-23 0 -23 19q0 12 11.5 20.5t33.5 18.5q45 18 75 38t49 47t27.5 65.5t10.5 94.5q2 47 2 116v153q0 83 -0.5 176t-1 187t-1.5 186t-2 173t-2.5 146.5t-2.5 108.5q-1 25 -5 41t-13 25t-24.5 12.5t-39.5 3.5
q-21 0 -47 -2t-51.5 -4.5t-47 -4.5t-34.5 -2q-17 0 -28 5t-11 18q0 14 12 19.5t35 8.5q37 5 72.5 8.5t84.5 12.5q42 7 66 28.5t38 52t20 68t12 78.5q12 90 29 177.5t42.5 167t59 147t78.5 116.5t101.5 77t127.5 28zM604 1550q104 21 168.5 49.5t103 54.5t58 44t33.5 18
q8 0 12.5 -27.5t6.5 -72t2.5 -99.5t0.5 -110v-108.5t-0.5 -93t-1 -88.5t-1 -94.5t-1.5 -112t-2 -140.5v-45.5t1 -40.5q0 -21 1 -41q54 37 108.5 52.5t110.5 15.5q55 0 108 -17.5t94.5 -55t67 -97t25.5 -142.5q0 -111 -34.5 -181t-89.5 -109.5t-123.5 -53.5t-135.5 -14
q-43 0 -90.5 7t-101.5 7q-46 0 -86.5 -11t-75 -23.5t-64 -23.5t-53.5 -11q-22 0 -22 20q0 13 12.5 22.5t32.5 19t44.5 19.5t47.5 25q38 25 50.5 63t12.5 78v633q0 38 -0.5 89.5t-2 108t-4.5 114t-9 108t-14.5 90t-20.5 60.5q-15 24 -40 37t-51.5 18.5t-51 6t-37.5 1.5
q-13 0 -21 6t-8 17q0 14 13 19.5t28 8.5zM1122 637q-39 0 -68 -18t-47.5 -58t-28 -104t-9.5 -156q0 -47 4.5 -87.5t17.5 -70t37.5 -46.5t63.5 -17q47 0 78.5 26t51 68.5t27.5 96t8 108.5q0 42 -5 88t-19.5 83.5t-41 62t-69.5 24.5z" />
    <glyph glyph-name="f_k" unicode="fk" horiz-adv-x="1452" 
d="M186 266q0 61 1 132.5t2.5 146.5l3 150t4 142t4.5 123t4 93q-18 -5 -38 -9t-37 -6.5t-30.5 -4t-19.5 -1.5q-19 0 -19 17q0 15 40.5 35t109.5 34q12 97 29 175t39 142.5t49.5 118.5t60.5 103q14 22 30.5 40.5t35.5 35.5q-22 26 -52 34.5t-61 8.5q-35 0 -74 -5.5t-71 -5.5
q-50 0 -50 27q0 12 9.5 19t21.5 10q52 11 95 22t80 23.5t69.5 27.5t64.5 35q36 22 60.5 46t41.5 43t29.5 31.5t24.5 12.5q14 0 18.5 -13.5t4.5 -27.5t-1 -35t-2.5 -46t-2.5 -51.5t-1 -51.5q52 12 111 12q72 0 125.5 -22t89.5 -57.5t54 -79.5t18 -88q0 -110 -47.5 -173
t-130.5 -63q-34 0 -62 10.5t-47.5 29.5t-30 44.5t-10.5 54.5q0 47 17.5 75.5t38 50.5t38 42.5t17.5 52.5q0 36 -28.5 54t-66.5 18q-23 0 -44.5 -2.5t-41.5 -7.5q0 -43 1.5 -112.5t4 -154.5t5.5 -181t6.5 -190.5t7.5 -183.5t7 -161.5t6 -122t5 -66.5q41 42 71.5 73t57 59.5
t52 58t55.5 67.5q17 23 25 42t8 36q0 39 -43 62l-82 39q-21 11 -21 28q0 10 5.5 17.5t19.5 7.5q12 0 27 -8t39 -19t58 -24t83 -23q19 -4 45.5 -7t54 -5.5t54 -4t44.5 -1.5q22 0 33.5 -5.5t11.5 -19.5q0 -11 -10.5 -18.5t-38.5 -7.5q-26 0 -51 -2t-50 -8t-50 -18t-51 -32
q-16 -12 -37.5 -31.5t-43 -42t-41.5 -46t-34 -44.5q3 -22 14.5 -70.5t31.5 -109t49.5 -125t67.5 -117.5t86 -87.5t105 -34.5q53 0 85 38t32 101q0 27 -7 52.5t-18 48.5t-26 42.5t-31 34.5q-12 12 -24.5 21.5t-12.5 15.5q0 8 10 8q13 0 34.5 -12.5t39.5 -28.5
q20 -16 38.5 -38.5t33 -51.5t23 -64.5t8.5 -78.5q0 -31 -9.5 -73t-34.5 -80.5t-69 -65.5t-113 -27q-93 0 -165.5 43.5t-128 118.5t-95.5 175t-67 212l-41 -45q2 -49 5.5 -106t8.5 -114.5t10 -112.5t9.5 -101t8.5 -79.5t7 -47.5q6 -33 15.5 -59t25.5 -44t41 -27.5t63 -9.5
q17 0 36 1t38 1q13 0 26 -1.5t23 -5.5t16.5 -11t6.5 -19q0 -18 -19 -31.5t-74 -13.5q-27 0 -54.5 2.5t-63 6t-83 6t-114.5 2.5q-51 0 -104 -4t-101.5 -9.5t-88.5 -9.5t-66 -4q-20 0 -27.5 7t-7.5 18q0 24 35 24q43 0 72 6.5t50 14.5q45 17 70 50t36 74t13 87t2 88
q0 58 -0.5 127.5t-1.5 144t-2.5 150t-2.5 146t-2.5 132t-2.5 107.5q-1 58 -2 126t-2.5 138.5t-3 140.5t-4 131t-6 109.5t-7.5 77.5l-4 20q-38 -51 -62 -118.5t-38 -144.5t-21 -160.5t-10 -168.5q-2 -56 -3.5 -126t-2.5 -146.5t-1.5 -155.5t-0.5 -153v-116t1.5 -100.5
t3.5 -97.5t7 -106q5 -59 22.5 -93t49.5 -53q11 -6 17 -11t6 -13q0 -9 -8.5 -14t-22.5 -5q-18 0 -43 5.5t-55 12t-63 12t-66 5.5q-25 0 -43 -2t-46 -2q-24 0 -38.5 4.5t-14.5 14.5q0 6 5.5 9t14 4.5t19 3.5t21.5 7q22 9 36.5 28t23 53.5t12 88.5t3.5 135z" />
    <glyph glyph-name="f_h" unicode="fh" horiz-adv-x="1788" 
d="M678 2324q56 0 108 -17.5t92.5 -56t64.5 -98.5t24 -145q0 -76 -19 -138t-53 -106t-81 -68t-103 -24q-37 0 -66 11.5t-49 31.5t-30.5 46.5t-10.5 56.5q0 21 5 42.5t19 42t38.5 39t62.5 33.5q74 29 108.5 71t34.5 101q0 20 -7 45t-25 47t-50 37t-82 15q-62 0 -106.5 -32.5
t-75.5 -86t-50 -122t-29 -140t-13.5 -140t-3.5 -122.5q0 -39 1.5 -77.5t11.5 -69t31 -49.5t60 -19q31 0 63.5 5.5t62 12.5t54.5 12.5t42 5.5q28 0 28 -20q0 -14 -12.5 -22.5t-44.5 -14.5q-15 -3 -33.5 -5t-42.5 -5t-54 -8.5t-69 -14.5q-50 -11 -65 -37q-10 -15 -12.5 -39
t-2.5 -53q0 -8 1.5 -60t4 -132t5.5 -181t6.5 -207t7 -209.5t6.5 -188.5t5.5 -144.5t4.5 -77.5q5 -60 23.5 -98.5t64.5 -52.5q16 -5 29.5 -7.5t28 -4.5t31 -4t38.5 -5q26 -3 41 -10t15 -23q0 -20 -23 -29.5t-63 -9.5q-23 0 -62.5 1t-83.5 1q-94 -1 -166 -18.5t-126.5 -38.5
t-94 -38t-67.5 -17q-23 0 -23 18q0 13 11.5 21.5t33.5 17.5q45 18 75 38t49 47.5t27.5 66t10.5 94.5q2 46 2 115.5v152.5t-0.5 176t-1 187t-1.5 186t-2 173t-2.5 146.5t-2.5 108.5q-1 25 -5 41t-13 25t-24.5 12.5t-39.5 3.5q-21 0 -47 -2t-51.5 -4t-47 -4t-34.5 -2
q-17 0 -28 5t-11 17q0 14 12 20t35 9q37 5 72.5 8t84.5 12q42 8 66 29t38 52t20 68.5t12 78.5q12 89 29 177t42.5 167t59 146.5t78.5 116.5t101.5 77t127.5 28zM1069 1827q14 0 18.5 -8.5t4.5 -16.5q0 -14 -4 -37t-10 -62t-14 -97t-15 -140q-16 -173 -23.5 -309.5
t-10.5 -243t-3.5 -185.5t-1.5 -136q16 47 43.5 94t66.5 85t90 61.5t113 23.5q37 0 78 -9.5t79 -34.5t69.5 -67.5t49.5 -109.5q17 -65 21 -127.5t4 -134.5q0 -54 -2 -120t-2 -134q0 -45 8.5 -70.5t24 -38.5t37 -17t47.5 -5q10 -1 20.5 -2t19 -4t14 -9t5.5 -16q0 -11 -11 -20
t-40 -9q-40 0 -87.5 9.5t-107.5 9.5q-38 0 -79.5 -8t-80 -17.5t-70.5 -17.5t-50 -8q-16 0 -19.5 5.5t-3.5 10.5q0 8 6 12.5t23 9.5q20 7 35.5 13t27.5 14q16 9 29.5 29.5t20.5 66.5q3 25 5 58.5t3.5 71t2.5 77.5t1 80q0 66 -2 124.5t-8 96.5q-6 42 -18 75.5t-30 57.5t-43 37
t-57 13q-31 0 -55.5 -12t-44 -31.5t-34 -43.5t-26.5 -49q-20 -43 -37.5 -110t-30.5 -144t-20.5 -158t-7.5 -151q0 -33 8 -53.5t23.5 -33t37 -19.5t48.5 -13q14 -3 22.5 -7.5t8.5 -16.5q0 -23 -35 -23q-27 0 -65.5 6.5t-82 15t-89 15t-87.5 6.5q-56 0 -98.5 -5t-73.5 -5
q-23 0 -33 7t-10 20q0 11 8.5 17.5t22.5 6.5q9 0 21 -1t24 -1q36 0 62 8.5t44.5 30t31.5 57t22 89.5q6 35 12.5 96.5t13.5 140t14 170t13.5 185.5t12 186.5t9.5 173.5t6.5 146.5t2.5 105.5q0 59 -10.5 93.5t-26.5 52.5t-36 23t-38 5t-39 -3.5t-42.5 -8t-42 -8t-38.5 -3.5
q-15 0 -21.5 7t-6.5 18q0 12 7.5 19t24.5 14q24 7 52 15.5t60.5 20t69.5 28t80 40.5q49 28 80.5 57t52 51.5t34 37t28.5 14.5z" />
    <glyph glyph-name=".notdef" horiz-adv-x="553" 
d="M77 1264h399v-1264h-399v1264zM468 8v1248h-383v-1248h383z" />
    <glyph glyph-name=".null" horiz-adv-x="0" 
 />
    <glyph glyph-name="nonmarkingreturn" horiz-adv-x="553" 
 />
    <glyph glyph-name="space" unicode=" " horiz-adv-x="553" 
 />
    <glyph glyph-name="exclam" unicode="!" horiz-adv-x="510" 
d="M244 -74q-25 0 -48.5 9.5t-42 26.5t-29.5 42t-11 57q0 38 12 63.5t30.5 41.5t41 22.5t43.5 6.5q24 0 47 -9t42 -25.5t30.5 -41.5t11.5 -56q0 -33 -10 -58.5t-27.5 -43t-40.5 -26.5t-49 -9zM244 408q-9 1 -12.5 17t-5 44.5t-1 68.5t-0.5 89q-1 78 -4 153.5t-9 151
t-14.5 152.5t-19.5 159q-12 91 -24.5 168.5t-23 143t-17.5 118.5t-7 94q0 38 7.5 69.5t24 54.5t42.5 35.5t62 12.5q49 0 80 -20t48.5 -55.5t24 -85t6.5 -107.5q0 -72 -4.5 -162.5t-12 -188.5t-17 -198t-20 -191t-20.5 -167.5t-18 -128.5q-18 -115 -32.5 -172t-32.5 -55z" />
    <glyph glyph-name="quotedbl" unicode="&#x22;" horiz-adv-x="600" 
d="M172 1679q32 0 52 -22t20 -78v-77.5t-1.5 -122.5t-3.5 -141.5t-6.5 -134t-11 -99.5t-16.5 -39q-6 0 -13.5 22.5t-16 60.5t-17 87.5t-16.5 103t-15.5 107t-13 99.5t-8.5 81.5t-3 52.5q0 100 70 100zM426 1712q21 0 34.5 -9.5t21 -24.5t10 -34.5t2.5 -39.5q0 -29 -2 -70.5
t-5 -84.5t-6.5 -81t-5.5 -61q-2 -25 -5.5 -58.5t-8 -68.5t-10 -69t-11.5 -60.5t-13.5 -43t-14.5 -16.5q-11 0 -19.5 34.5t-15.5 89.5t-12 123t-8.5 134.5t-5 124t-1.5 92.5q0 62 17 92.5t59 30.5z" />
    <glyph glyph-name="numbersign" unicode="#" horiz-adv-x="2111" 
d="M1180 1653q12 0 16 -9t4 -20q0 -16 -12.5 -55t-31.5 -90t-42.5 -109.5t-46 -113t-41 -100t-27.5 -71.5q-6 -17 -9 -28t-3 -21q0 -16 16 -25t38.5 -13t47.5 -4.5t44 -0.5q45 0 68 16t40 44q15 24 34 62.5t39 80.5t38 82.5t30 69.5q6 12 12 25t13.5 23.5t16 17.5t18.5 7
q8 0 13 -7.5t5 -18.5q0 -21 -11 -55t-28 -74t-36.5 -81.5t-36.5 -78.5t-28 -65t-11 -40q0 -17 12.5 -21.5t26.5 -6.5q22 -3 65 -4t97.5 -2.5t116 -2.5t122 -2.5t115 -4.5t94.5 -7q26 -3 37.5 -9.5t11.5 -20.5q0 -29 -53 -29q-24 0 -66 3.5t-88.5 8.5t-90 9.5t-69.5 7.5
q-17 1 -44.5 3.5t-60.5 4t-69 3t-69 1.5q-34 0 -61.5 -1.5t-43.5 -6.5q-21 -7 -32.5 -20.5t-22.5 -33.5q-3 -4 -14 -28t-27 -57.5t-34.5 -72.5t-35 -74.5t-29 -63t-16.5 -37.5q-6 -17 -6 -25q0 -6 5 -11t16 -5q36 0 85 6t103.5 14.5t110.5 19t106 19t89.5 14.5t62.5 6
t32 -6.5t9 -17.5q0 -14 -13 -23.5t-51 -17.5q-34 -6 -111.5 -15.5t-183.5 -23.5q-86 -11 -148 -21t-112 -22q-29 -8 -47 -27t-35 -57q-3 -6 -18 -41.5t-38 -90t-51.5 -123t-59 -141t-60 -143t-53.5 -129t-41.5 -99.5t-22.5 -54q-11 -27 -22.5 -54t-24.5 -48t-27.5 -34.5
t-29.5 -13.5q-14 0 -22.5 10t-8.5 25q0 21 7 47t17 51.5t19 47t14 32.5q20 50 46.5 112.5t55.5 129t57.5 132t53 120.5t42 95l24.5 56q8 20 17.5 43t17.5 44.5t13 38.5t5 26q0 16 -24 16q-15 0 -37 -2.5t-44 -6t-41.5 -8.5t-29.5 -9q-15 -8 -24.5 -19t-18.5 -32
q-1 -3 -15.5 -37t-36.5 -84.5t-48 -109.5t-49.5 -112t-41.5 -92t-24 -49q-10 -18 -20 -37.5t-21.5 -36t-24.5 -27.5t-30 -11q-14 0 -24.5 11t-10.5 34q0 30 17 80.5t42 109.5t54.5 121t54.5 115t42 90.5t17 48.5q0 18 -26 18q-33 0 -81.5 -6t-100 -12.5t-99.5 -12.5t-80 -6
q-20 0 -32.5 3.5t-19 9t-9 12.5t-2.5 14q0 19 13.5 28.5t41.5 14.5q9 2 40.5 5t73.5 7.5t90.5 9t92 10t77 10.5t46.5 10q26 9 40.5 23t22.5 28q5 9 19 36t32 64t37.5 80.5t36 85t27 77.5t10.5 58q0 25 -18 40t-68 20q-74 6 -138.5 9.5t-129.5 6t-135.5 5t-155.5 7.5
q-28 2 -48 6.5t-20 24.5q0 15 17 20t43 5q11 0 51.5 -1.5t98 -4.5t125.5 -5.5t135.5 -5.5t127.5 -4.5t101 -1.5q40 0 69 7t48 36q7 13 24.5 52.5t39 92t45 111.5t44 111.5t35 91t18.5 49.5q16 40 28 59t28 19zM999 944q-12 -2 -24 -5t-24.5 -11t-25.5 -22.5t-26 -39.5
q-6 -10 -15.5 -32.5t-21.5 -52t-25.5 -64t-26.5 -68.5q-31 -81 -67 -178q45 0 85 3q34 2 67 6t49 12q21 10 35.5 27.5t27 41.5t25 53.5t27.5 63.5q19 43 37.5 89t32.5 83.5t22.5 61.5t7.5 24q-31 3 -76.5 5.5t-83.5 2.5z" />
    <glyph glyph-name="dollar" unicode="$" horiz-adv-x="1638" 
d="M1049 1849q8 0 14 -7.5t6 -29.5q0 -24 -9 -80.5t-22 -125.5q44 -8 80 -15.5t70 -7.5q27 0 51 12t44.5 30t38.5 39t32.5 39t26 30t20.5 12q8 0 11 -5t3 -11q0 -13 -9 -32t-23.5 -49.5t-31.5 -74.5t-32 -107q-15 -64 -24.5 -130t-18 -120t-17 -88t-22.5 -34
q-9 0 -11.5 20.5t-4.5 56.5t-7 85.5t-20 107.5q-7 28 -20.5 56.5t-34.5 54.5t-48 47t-61 34q-12 -63 -23 -124.5t-20 -110.5l-57 -307q61 -72 128 -147t122 -156.5t91 -171.5t36 -193q0 -140 -43 -238.5t-115 -160.5t-166.5 -90.5t-196.5 -28.5q-59 0 -108 12l-16 -65
q-26 -109 -45 -158t-37 -49q-19 0 -19 29q0 12 6 42t14.5 67.5t18.5 78t18 74.5q-49 20 -87 46.5t-68.5 50.5t-56 41t-50.5 17q-26 0 -50.5 -21.5t-46 -47t-39 -47t-27.5 -21.5q-9 0 -9 10q0 12 14 41t34 72.5t43.5 99.5t41.5 121q22 76 32 138.5t16 107.5t12 69.5t18 24.5
q17 0 17 -45q0 -31 0.5 -66.5t2 -72.5t5.5 -74t12 -70q26 -112 78.5 -188t126.5 -115q28 121 51 223.5t42.5 195t37.5 179.5t37 177q-57 59 -112.5 119.5t-100 125t-71.5 135t-27 148.5q0 109 39 183t100 119t136.5 64t148.5 19q15 0 30 -1t31 -3q9 57 18 102.5t15 73.5
q6 32 15 45.5t22 13.5zM1083 197q0 67 -18 127t-49 115t-72 106.5t-86 101.5l-164 -739q25 -6 51 -10t54 -4q66 0 118.5 21.5t89.5 61.5t56.5 95.5t19.5 124.5zM743 1378q0 -40 10.5 -78.5t28.5 -76t43 -75t54 -75.5l94 498q-8 2 -18 3t-19 1q-43 0 -78.5 -13t-61 -38
t-39.5 -61.5t-14 -84.5z" />
    <glyph glyph-name="percent" unicode="%" horiz-adv-x="1616" 
d="M459 1888q80 0 144.5 -24t109.5 -69.5t69.5 -110.5t24.5 -146q0 -105 -34.5 -175t-87.5 -112t-116 -59.5t-120 -17.5q-61 0 -121.5 20.5t-108.5 64t-78 111t-30 162.5q0 91 27.5 158.5t75 111t110.5 65t135 21.5zM446 1839q-37 0 -64 -16t-44.5 -44.5t-26 -68t-8.5 -86.5
q0 -87 13.5 -161t39 -128t62 -84t82.5 -30q40 0 67 23t43 60.5t22.5 85t6.5 95.5q0 54 -8 116.5t-29.5 115t-59 87.5t-96.5 35zM1186 846q82 0 151 -28t119.5 -77t78.5 -116.5t28 -145.5q0 -100 -33.5 -175.5t-91 -126t-133.5 -76t-160 -25.5q-75 0 -140.5 21.5t-114 65.5
t-76.5 111t-28 158q0 105 34.5 183t91 129.5t128 76.5t146.5 25zM1180 795q-44 0 -82.5 -21.5t-67.5 -66.5t-46 -114t-17 -163q0 -71 15.5 -126.5t42.5 -93.5t63.5 -57.5t78.5 -19.5q52 0 89.5 25t62.5 70.5t37 110.5t12 146q0 85 -14 144t-39 96t-59.5 53.5t-75.5 16.5z
M1398 1903q17 0 17 -21q0 -13 -14.5 -42.5t-38 -69.5t-53 -86t-60 -91t-59 -85.5t-48.5 -69.5q-35 -50 -85 -120t-109 -152t-124 -171t-129.5 -178t-126 -173t-113.5 -154.5t-91 -124.5t-59 -82q-39 -56 -76.5 -106.5t-65.5 -92.5q-32 -46 -55 -74t-43 -28q-9 0 -15.5 5
t-6.5 19q0 25 30.5 77t81.5 124q57 80 123.5 172.5t138.5 198.5q56 81 125 177.5t144 200t152.5 210t151.5 207.5t141 193t120 167q27 37 49 68.5t40 54t32.5 35t25.5 12.5z" />
    <glyph glyph-name="ampersand" unicode="&#x26;" horiz-adv-x="1585" 
d="M668 1786q64 0 110 -18t76 -49t44.5 -71t14.5 -83q0 -85 -35 -162t-90 -151t-121.5 -147t-129.5 -151q40 -84 84 -160.5t84.5 -138.5t74 -108t51.5 -70q15 -20 38 -47t52 -58.5t63.5 -65t70.5 -66.5q43 49 75 104.5t53 111.5t31.5 110.5t10.5 101.5q0 98 -29 139t-74 41
q-32 0 -76 -9.5t-89.5 -20.5t-86.5 -20.5t-67 -9.5q-16 0 -25.5 5t-9.5 16q0 13 18.5 19.5t55.5 16t92.5 27.5t130.5 54q62 30 105 63.5t72 62t47 47.5t30 19q11 0 19.5 -14t14.5 -37.5t9.5 -55t3.5 -65.5q0 -104 -16 -208t-48 -201.5t-80.5 -185t-113.5 -158.5
q34 -29 67.5 -53.5t65.5 -42.5t61.5 -28t55.5 -10q22 0 41.5 13.5t36.5 34.5t31.5 44.5t26.5 44.5t22 34.5t18 13.5q10 0 10 -17q0 -15 -13.5 -53t-35 -85.5t-49.5 -99t-56.5 -94.5t-55 -70.5t-46.5 -27.5q-18 0 -51 13.5t-79 43.5t-103.5 79t-124.5 120q-71 -38 -153.5 -60
t-178.5 -22q-117 0 -214.5 31t-167.5 92t-109 152t-39 211q0 81 21 154t57 140t84.5 129t103.5 119q-55 177 -55 357q0 103 29.5 183.5t81.5 135t123.5 83t154.5 28.5zM727 291q-196 257 -309 497q-40 -71 -64 -146.5t-24 -160.5q0 -90 23.5 -168.5t69 -136t111.5 -90.5
t150 -33q56 0 106 13t95 34q-35 42 -76.5 88.5t-81.5 102.5zM406 1446q0 -79 15.5 -158t43.5 -160q64 61 122 121.5t101 120t68.5 119t25.5 119.5q0 63 -35 103t-104 40q-44 0 -86.5 -16.5t-76 -52.5t-54 -94t-20.5 -142z" />
    <glyph glyph-name="quotesingle" unicode="'" horiz-adv-x="358" 
d="M178 1597q38 0 57 -29.5t19 -92.5q0 -25 -1 -73.5t-3.5 -107t-5.5 -120t-7.5 -112t-10 -82.5t-11.5 -32q-7 0 -18 31.5t-23 81t-24 110.5t-22 120.5t-16 110.5t-6 81q0 59 17.5 86.5t54.5 27.5z" />
    <glyph glyph-name="parenleft" unicode="(" horiz-adv-x="883" 
d="M504 2038q10 0 10 -13q0 -9 -15 -37.5t-38 -73.5t-50 -105t-51 -132q-21 -65 -43 -152t-39.5 -197t-28.5 -243t-11 -290q0 -164 23 -312.5t59.5 -278.5t80.5 -239t86 -194q78 -159 149.5 -264.5t126 -172.5t87.5 -103t33 -56q0 -10 -7.5 -13.5t-13.5 -3.5q-20 0 -62 22.5
t-98 67t-122 111.5t-134 156q-34 45 -79 109t-92 146t-92 181t-80.5 216t-57.5 250.5t-22 284.5q0 205 31.5 383.5t80 327t107 265t112 196.5t94.5 122t56 42z" />
    <glyph glyph-name="parenright" unicode=")" horiz-adv-x="909" 
d="M150 1532q37 0 106.5 -23t151.5 -71.5t167.5 -124.5t155 -182t114 -244.5t44.5 -311.5q0 -135 -28 -251t-75.5 -213.5t-110 -178t-131 -144t-139.5 -110t-134.5 -77t-116.5 -45.5t-86 -15q-48 0 -48 21q0 13 14.5 23.5t40.5 23t61.5 29t78 42.5t89.5 62.5t97 89.5
q80 85 130 176t78.5 182.5t39 179.5t10.5 167q0 48 -6.5 114.5t-22.5 140t-42.5 149.5t-65.5 144q-46 80 -93.5 139.5t-92 102t-83 71.5t-67.5 49.5t-46 35t-17 28.5q0 21 27 21z" />
    <glyph glyph-name="asterisk" unicode="*" horiz-adv-x="1004" 
d="M481 1878q38 0 60 -26.5t28 -71.5q4 -27 7.5 -63.5t6 -76t5 -78t5.5 -69t6 -49.5t7 -19t15 21t27 52t36.5 67.5t45 67.5t52 52t56.5 21q31 0 44 -16.5t13 -42.5q0 -29 -20.5 -59t-51.5 -58t-66.5 -53.5t-66.5 -46t-51.5 -35t-20.5 -21.5q0 -10 19.5 -26t49 -37t64 -46
t64 -52.5t49 -58t19.5 -62.5q0 -34 -18.5 -57t-53.5 -23q-32 0 -57.5 17t-46.5 46q-27 37 -49 79t-39 77t-28.5 58.5t-17.5 23.5t-22 -17.5t-37.5 -43.5t-48 -57t-53.5 -57t-53.5 -43.5t-47.5 -17.5t-37 12.5t-16 38.5q0 25 19.5 50.5t49 49.5t63.5 45.5t63.5 38.5t49 29.5
t19.5 18.5t-18 6q-17 0 -47 -1t-68 -1q-40 0 -86.5 0.5t-91.5 5.5q-48 5 -81.5 23.5t-33.5 58.5q0 21 7 35t18.5 22.5t25.5 11.5t29 3q28 0 66 -9.5t78 -23.5t79 -29.5t69.5 -29t49.5 -21.5t19 -6q0 7 -9.5 31t-24 58t-31 74t-31 80.5t-24 77t-9.5 62.5q0 25 6.5 42.5t17 28
t23.5 15t26 4.5z" />
    <glyph glyph-name="plus" unicode="+" horiz-adv-x="903" 
d="M502 1200q14 0 22 -11.5t8 -45.5q0 -12 -1 -43.5t-2 -73.5t-2 -89.5t-1 -92.5q0 -35 0.5 -65t3.5 -52q3 -25 25 -25q25 0 52 3.5t53 8t51 8t45 3.5q26 0 35.5 -8t9.5 -21q0 -29 -47 -39q-20 -4 -45.5 -7.5t-51 -6.5t-49 -6t-39.5 -6q-12 -3 -20 -9.5t-8 -31.5
q0 -16 3 -48t7.5 -72t10 -83.5t10 -83t7.5 -71t3 -46.5q0 -31 -10 -42t-21 -11q-14 0 -24 11.5t-15 39.5q-2 14 -5.5 41.5t-7.5 62.5t-8.5 74.5t-9.5 77.5t-9.5 72t-8.5 59q-5 29 -16 38t-29 9q-20 0 -56.5 -1.5t-77 -3t-78 -2.5t-59.5 -1q-24 0 -35.5 12t-11.5 29
q0 19 14.5 29t39.5 12q31 2 66 3t67.5 1t61 1t46.5 3q37 5 51 20t17 52q5 47 6.5 92t1.5 88q0 57 -2 106t-2 81q0 61 35 61z" />
    <glyph glyph-name="comma" unicode="," horiz-adv-x="516" 
d="M248 330q45 0 76.5 -16t51.5 -43t29 -61.5t9 -70.5q0 -57 -15 -114.5t-39 -111.5t-53.5 -100.5t-58 -81.5t-52.5 -55t-38 -20q-17 0 -17 16q0 9 6.5 19.5t17.5 25t24.5 33.5t27.5 43q16 28 28.5 58t12.5 61q0 26 -11.5 47t-29 40t-37.5 37.5t-37.5 40t-29 47.5t-11.5 60
q0 33 10.5 60t30 46t46.5 29.5t59 10.5z" />
    <glyph glyph-name="hyphen" unicode="-" horiz-adv-x="893" 
d="M449 397q-32 0 -77 2.5t-91.5 7.5t-87 12t-62.5 15q-29 10 -29 35q0 14 8.5 21.5t22.5 7.5q26 0 56 -4t67 -8.5t81.5 -8.5t100.5 -4q113 0 188.5 8t118.5 8q46 0 46 -28q0 -30 -41 -43t-119.5 -17t-181.5 -4z" />
    <glyph glyph-name="period" unicode="." horiz-adv-x="489" 
d="M248 260q38 0 64.5 -13.5t43 -35t24 -48t7.5 -52.5q0 -46 -11 -80t-30 -56t-45 -32.5t-55 -10.5q-31 0 -57 11t-45.5 32t-30.5 50.5t-11 66.5q0 39 11 70t30.5 52.5t46 33.5t58.5 12z" />
    <glyph glyph-name="slash" unicode="/" horiz-adv-x="1415" 
d="M1378 1903q17 0 17 -21q0 -13 -14.5 -42.5t-38 -69.5t-53 -86t-60 -91t-59 -85.5t-48.5 -69.5q-35 -50 -85 -120t-109 -152t-124 -171t-129.5 -178t-126 -173t-113.5 -154.5t-91 -124.5t-59 -82q-39 -56 -76.5 -106.5t-65.5 -92.5q-32 -46 -55 -74t-43 -28q-9 0 -15.5 5
t-6.5 19q0 25 30.5 77t81.5 124q57 80 123.5 172.5t138.5 198.5q56 81 125 177.5t144 200t152.5 210t151.5 207.5t141 193t120 167q27 37 49 68.5t40 54t32.5 35t25.5 12.5z" />
    <glyph glyph-name="zero" unicode="0" horiz-adv-x="1481" 
d="M428 1542q37 16 77.5 28t81 19.5t79 11t71.5 3.5q116 0 215 -29t179 -80.5t141.5 -122t103 -154.5t63 -178t21.5 -192q0 -153 -48.5 -284.5t-139 -228t-220 -151.5t-290.5 -55q-89 0 -178.5 19.5t-171.5 60.5t-153 103t-123.5 147.5t-82.5 194t-30 241.5
q0 102 26.5 199.5t78 182.5t127 153.5t173.5 111.5zM702 1542q-114 0 -198.5 -49t-140.5 -131.5t-83.5 -191t-27.5 -228.5q0 -166 37 -302.5t107.5 -234.5t172.5 -152t232 -54q113 0 192 48t129 130t72.5 190t22.5 228q0 364 -128 555.5t-387 191.5z" />
    <glyph glyph-name="one" unicode="1" horiz-adv-x="1036" 
d="M18 1098q-18 0 -18 16q0 14 23 28.5t63 41.5t94.5 71t118.5 117q60 68 95.5 135.5t56 121t31.5 87t22 33.5q8 0 15 -14.5t12 -36t9.5 -46.5t8.5 -46q4 -20 13 -76.5t21.5 -136.5t28 -177.5t32 -200t34 -205t33.5 -191.5t30 -159.5t25 -109.5q12 -45 25 -78t30.5 -58.5
t40.5 -43.5t56 -33q19 -9 39.5 -15.5t37.5 -12t28 -10.5t11 -11q0 -5 -6.5 -8.5t-23.5 -3.5q-23 0 -61 3t-89 3q-82 -1 -156.5 -16t-141.5 -37t-125 -48t-105 -48.5t-83 -37t-59 -14.5q-8 0 -14 3.5t-6 13.5q0 13 22 29t57 35t77 41t83 48q28 18 48 38t33 45.5t19.5 58
t6.5 73.5q0 31 -3 94.5t-9.5 146t-15 175.5t-20 182t-25 166.5t-29.5 128.5q-5 15 -11.5 30t-17 27.5t-25 20.5t-35.5 8q-23 0 -50.5 -11t-57 -27t-59 -35.5t-55.5 -35.5t-46.5 -27t-32.5 -11z" />
    <glyph glyph-name="two" unicode="2" horiz-adv-x="1094" 
d="M504 1665q108 0 189 -32.5t135.5 -87.5t82 -128.5t27.5 -154.5q0 -80 -25.5 -158.5t-67.5 -152t-96 -140.5t-111 -126t-113 -107.5t-102 -84.5t-77 -58t-39 -27q-25 -17 -45 -31.5t-20 -22.5q0 -9 34 -30t88.5 -47.5t122 -55t134 -52t125.5 -39t96 -15.5t66 15t52.5 37
t41.5 48t32.5 48t25.5 37t21 15q8 0 10.5 -4.5t2.5 -9.5q0 -15 -12 -41t-31 -58t-42 -68.5t-44 -72.5q-26 -41 -46.5 -82t-39 -73.5t-35 -53t-33.5 -20.5q-19 0 -56.5 24t-89.5 61.5t-116 83t-137 89.5q-79 48 -146.5 82.5t-117 59t-77.5 40.5t-28 25q0 6 12 13.5t34 20
t52 31t66 46.5q133 103 222.5 204.5t143.5 199t76.5 190t22.5 178.5q0 72 -18.5 131t-54.5 101.5t-89 65.5t-121 23q-63 0 -114 -24t-89.5 -66t-64.5 -98.5t-39 -120.5q-10 -48 -15 -87t-8.5 -67t-8 -43.5t-13.5 -15.5q-25 0 -25 98q0 121 31.5 228t93 187t153.5 126.5
t214 46.5z" />
    <glyph glyph-name="three" unicode="3" horiz-adv-x="1047" 
d="M129 1548q22 0 51.5 -6t69 -15t90 -19t115.5 -17q63 -8 128 -11t119.5 -5t93 -5t48.5 -10q8 -5 10 -10.5t2 -13.5q0 -15 -15.5 -43.5t-40.5 -65.5t-57 -79.5t-65 -85t-65 -82.5t-57 -72t-40.5 -53.5t-15.5 -26.5q0 -4 27 -10t72 -20.5t102.5 -40.5t119.5 -71
q55 -39 97 -83t70.5 -96t43.5 -113.5t15 -135.5q0 -53 -12 -110t-37.5 -112t-64.5 -103.5t-93 -85.5t-123.5 -58.5t-155.5 -21.5q-119 0 -207 33.5t-150.5 88.5t-102 124t-62 140.5t-31 138t-8.5 116.5q0 42 4.5 65t13.5 23q6 0 10 -11.5t8.5 -34t11 -54.5t18.5 -72
q52 -179 166.5 -273t271.5 -94q61 0 115.5 20.5t95.5 61.5t64.5 103t23.5 145q0 85 -30 153t-75.5 120.5t-98.5 91t-98.5 65t-75.5 41.5t-30 21t12 21.5t31.5 39.5l45.5 56t55 71q12 17 28.5 40t34.5 48.5t35 51t30.5 47.5t22 38t8.5 23q0 6 -23 11t-58.5 9t-79 6t-84.5 2
q-70 0 -127.5 -15t-98.5 -60q-30 -32 -48 -71.5t-30 -74t-19.5 -57.5t-16.5 -23q-10 0 -12.5 13.5t-2.5 36.5q0 29 2 80t2 110q0 21 -1.5 48.5t-3 55.5t-2.5 54t-1 45q0 32 7.5 47.5t27.5 15.5z" />
    <glyph glyph-name="four" unicode="4" horiz-adv-x="1460" 
d="M891 1747q16 0 16 -25q0 -9 -4.5 -24.5t-11.5 -35t-14 -41t-13 -42.5q-8 -29 -12 -62t-4 -67q0 -51 7 -106.5t17 -108t20.5 -99.5t18.5 -81q34 -160 65.5 -284.5t59.5 -227.5q15 -8 37.5 -15.5t48 -13t51 -9t46.5 -3.5q27 0 50 19t42 41.5t33.5 41.5t25.5 19q8 0 8 -11
q0 -10 -7 -27t-17.5 -38t-23.5 -45.5t-25 -48.5q-19 -38 -32 -68.5t-23 -51.5t-18 -32.5t-15 -11.5q-14 0 -32.5 6t-39 14.5t-40.5 18t-38 16.5q1 -18 4.5 -39t8 -41.5t9 -38.5t7.5 -28q7 -31 15 -60.5t19 -59.5t26 -62t36 -66q18 -29 40.5 -49.5t46.5 -35.5t46.5 -25
t40.5 -17l30 -12t27 -11.5t19.5 -12t7.5 -13.5q0 -5 -4.5 -9t-13.5 -4q-21 0 -61.5 14.5t-95 35t-120 41.5t-135.5 34q-59 11 -121 13t-113.5 2t-84.5 2t-33 14q0 8 13.5 13.5t34 10t45 8.5t46.5 9q74 15 74 84q0 18 -3.5 48t-9.5 65.5t-13 74.5t-14 75t-13.5 66.5
t-10.5 49.5q-39 17 -83.5 37.5t-89.5 41.5t-88 41t-79 35q-97 42 -182 73.5t-148.5 56t-100 42.5t-36.5 33q0 13 23.5 39t64 64.5t95 90t116.5 116.5q67 69 115.5 119.5t84 89t61.5 67.5t49 56.5t46 56t52 65.5q48 60 77 99t47 62.5t28.5 32.5t21.5 9zM641 1350
q-7 0 -23.5 -13.5t-39.5 -35t-49.5 -49t-53 -56t-50.5 -56t-42 -48.5q-7 -9 -23 -28t-36 -43t-41 -50.5t-38.5 -50.5t-28.5 -43t-11 -27q0 -12 24 -29t60.5 -36.5t80.5 -39t83 -34.5l80 -32.5t97 -39t92 -35.5t66 -22q-5 31 -12 75.5t-15 98t-17.5 113.5t-20.5 122
q-6 33 -12.5 72t-13 79t-14 77.5t-14.5 66.5t-14 46.5t-14 17.5z" />
    <glyph glyph-name="five" unicode="5" horiz-adv-x="1552" 
d="M852 1696q15 0 46.5 -14.5t72.5 -37t87.5 -48t91 -48t83 -37t63.5 -14.5q51 0 86.5 37t73.5 100q34 54 50 75.5t30 21.5q6 0 11 -4.5t5 -16.5q0 -17 -8.5 -49t-22.5 -72.5t-33 -87t-39.5 -92.5t-41.5 -88t-39.5 -74t-34 -51t-24.5 -18q-19 1 -59 25t-90.5 59t-105.5 76
t-104 76t-86 58.5t-51 24.5q-10 1 -32.5 -30t-51 -77.5t-59 -101.5t-55.5 -102.5t-41.5 -80.5t-16.5 -36q0 -5 22.5 -7.5t60.5 -6.5t89.5 -11t110.5 -22q90 -23 166.5 -68t131.5 -109t86 -144.5t31 -174.5q0 -167 -52.5 -302t-143.5 -231t-214 -148t-265 -52
q-132 0 -237.5 40.5t-179.5 113t-113.5 174.5t-39.5 225q0 92 16 165.5t39.5 125t49 79t43.5 27.5q8 0 10 -3.5t2 -8.5q0 -8 -7 -23t-17.5 -36.5t-21.5 -48t-20 -56.5q-11 -40 -17.5 -90t-6.5 -119q0 -107 37.5 -189t101.5 -137.5t147 -83.5t175 -28q94 0 176.5 35t143 105
t95.5 176t35 247q0 64 -14.5 117t-40 96t-59.5 76.5t-74 58.5q-56 36 -118 58.5t-113.5 36.5t-85 21.5t-33.5 13.5q0 18 43.5 103.5t132.5 252.5q51 97 87 168t61.5 118t42.5 70t32 23z" />
    <glyph glyph-name="six" unicode="6" horiz-adv-x="1225" 
d="M702 1610q79 0 142.5 -15.5t114 -41t88 -57.5t64.5 -64.5t43.5 -62t25.5 -50.5q9 -22 12.5 -42t3.5 -34t-5.5 -19t-14.5 -5q-14 0 -26.5 17t-37.5 58q-18 31 -49 70.5t-78 75t-110.5 60t-145.5 24.5q-94 0 -161 -35.5t-113.5 -90t-74.5 -120.5t-42.5 -126t-19.5 -107
t-5 -64q22 21 57 48.5t81 53t102.5 43t122.5 17.5q136 0 236 -44.5t164.5 -119.5t96 -174t31.5 -207q0 -136 -44.5 -244t-117.5 -183t-166.5 -115t-191.5 -40q-70 0 -146 17.5t-148.5 55.5t-138 98t-115 146t-78.5 199t-29 256q0 189 50 341t139.5 259t213 164.5t270.5 57.5
zM635 1081q-62 0 -122 -26t-107.5 -84.5t-77 -152t-29.5 -228.5q0 -126 30 -223t83 -163t124.5 -100t155.5 -34q75 0 135 35.5t102 99t64.5 152.5t22.5 196q0 61 -6 124t-22 121.5t-43 110t-69.5 90t-101.5 60.5t-139 22z" />
    <glyph glyph-name="seven" unicode="7" horiz-adv-x="1040" 
d="M27 1497q27 0 66.5 -5t94 -11.5t126.5 -11.5t165 -5q135 0 234 13.5t165.5 29.5t104 29.5t49.5 13.5q8 0 8 -8q0 -14 -32.5 -64.5t-85.5 -142.5t-120.5 -227.5t-137.5 -319.5q-46 -119 -74 -225t-44 -196t-22 -162t-8 -124t-3 -81.5t-5 -34.5q-5 -5 -19 -6.5t-34.5 -3
t-47 -3.5t-57.5 -9q-52 -13 -85.5 -26t-47.5 -13q-10 0 -10 14q0 18 10 56.5t26.5 88t37.5 106t43 110.5q44 111 93.5 217.5t98 202.5t93.5 178t79 145t54 103.5t20 52.5t-25.5 26.5t-67 30t-94.5 30.5t-108.5 26.5t-108 18.5t-92.5 7q-51 0 -80 -27t-45.5 -70.5
t-25.5 -97.5t-19 -108q-8 -40 -12.5 -67t-15.5 -27q-7 0 -10 11t-3 42q0 30 -1 69t-4 82t-7.5 88t-11.5 88q-11 70 -21 111t-10 59q0 5 4 16t23 11z" />
    <glyph glyph-name="eight" unicode="8" horiz-adv-x="975" 
d="M496 1606q89 0 153 -24.5t105.5 -65t61.5 -93.5t20 -110q0 -44 -9.5 -83t-25.5 -73t-35.5 -62t-40.5 -51q-49 -54 -111 -92q98 -61 175 -143q33 -35 64.5 -77.5t56.5 -92.5t40 -107.5t15 -121.5q0 -105 -34 -195t-97 -156t-151.5 -103.5t-197.5 -37.5q-86 0 -170.5 22
t-152 73t-109 134t-41.5 205q0 60 13 111.5t34.5 95t49 79t56.5 64.5q68 66 154 111q-65 46 -116 107q-22 26 -42.5 57.5t-36.5 68.5t-26 79t-10 89q0 98 34.5 171.5t91.5 122.5t130.5 73.5t151.5 24.5zM580 1001q16 0 48 22.5t64 63.5t56 98.5t24 127.5q0 50 -13.5 92.5
t-40 74t-65.5 49t-90 17.5q-43 0 -79.5 -14t-63.5 -42t-42.5 -71.5t-15.5 -101.5q0 -75 28 -133.5t65 -99t73 -62t52 -21.5zM406 735q-33 0 -79 -27t-88 -79t-71 -126.5t-29 -168.5q0 -81 23.5 -149.5t69 -117.5t111 -76.5t149.5 -27.5q74 0 131 22.5t95.5 65t58.5 103
t20 135.5q0 60 -16.5 116t-45 105.5t-67 91t-82 71t-90 46t-90.5 16.5z" />
    <glyph glyph-name="nine" unicode="9" horiz-adv-x="1231" 
d="M561 1534q138 0 257 -46.5t206 -136t136.5 -220.5t49.5 -300q0 -217 -59.5 -378.5t-158.5 -268.5t-226.5 -160t-263.5 -53q-105 0 -184.5 23.5t-132 55.5t-79 65t-26.5 51q0 11 5.5 17.5t16.5 6.5q12 0 29 -9t39.5 -22t51.5 -29t64.5 -29t79 -22t95.5 -9q89 0 155.5 26.5
t114 69t78 95.5t48 106t24 100.5t6.5 79.5q0 12 -1.5 22.5t-6.5 10.5q-6 0 -30 -12t-64 -26t-95.5 -26t-124.5 -12q-138 0 -240.5 39.5t-170 110t-101 167.5t-33.5 211q0 118 41 211.5t113 158t171 98.5t216 34zM539 1485q-143 0 -223 -108t-80 -324q0 -122 31.5 -212.5
t85.5 -150.5t125.5 -89.5t152.5 -29.5q77 0 130.5 24t86.5 70t48 112.5t15 152.5q0 64 -9 129.5t-28.5 127t-49 116t-71 95t-95 64t-119.5 23.5z" />
    <glyph glyph-name="colon" unicode=":" horiz-adv-x="504" 
d="M252 975q28 0 53 -8.5t44 -26t30.5 -44t11.5 -62.5q0 -81 -41 -124.5t-104 -43.5q-29 0 -55 8.5t-45.5 27t-31.5 48t-12 71.5q0 68 39.5 111t110.5 43zM268 238q39 0 65 -13.5t41 -34.5t21 -47t6 -51q0 -36 -10.5 -65t-29.5 -50t-44.5 -32t-56.5 -11q-62 0 -96.5 41.5
t-34.5 104.5q0 34 9.5 63t27 50t43.5 33t59 12z" />
    <glyph glyph-name="semicolon" unicode=";" horiz-adv-x="545" 
d="M293 920q41 0 69 -13t45.5 -33.5t25 -46.5t7.5 -51q0 -28 -7.5 -58t-25 -55.5t-45.5 -42t-69 -16.5q-74 0 -114 43t-40 115q0 25 7.5 53t25 51t47 38.5t74.5 15.5zM260 184q41 0 71.5 -12.5t51 -34t31 -50.5t10.5 -62q0 -51 -19 -103t-49 -100t-66 -90t-70.5 -73
t-62.5 -49t-42 -18q-13 0 -13 13q0 9 9 20q9 13 30.5 34.5t43 48.5t38.5 57.5t17 62.5q0 31 -19.5 51.5t-43 41t-43 48t-19.5 72.5q0 28 10.5 54t29 46t45.5 31.5t60 11.5z" />
    <glyph glyph-name="less" unicode="&#x3c;" horiz-adv-x="1071" 
d="M909 1104q21 0 21 -19q0 -14 -20.5 -37t-52 -50t-70.5 -55t-76.5 -53.5t-68 -46t-46.5 -30.5q-86 -55 -145.5 -91.5t-97 -59.5t-54 -35.5t-16.5 -20.5q0 -10 27 -29.5t72.5 -45.5t105 -57t124.5 -64q24 -13 60 -31.5t75.5 -40t79 -44.5t71.5 -44t51.5 -39t19.5 -29
t-6.5 -17.5t-22.5 -6.5q-24 0 -65.5 15t-93.5 40t-112 57t-121 66t-121 67t-112 60q-39 20 -77 39t-68.5 35.5t-49 29t-18.5 19.5q0 9 15.5 21.5t56.5 37.5q21 12 63 37t93 55.5t105.5 63t99.5 61.5q88 55 150 100t104.5 76.5t70.5 48.5t49 17z" />
    <glyph glyph-name="equal" unicode="=" horiz-adv-x="1343" 
d="M1178 795q7 0 18 -1t21 -4t17 -9.5t7 -18.5t-7 -20t-18.5 -12.5t-25 -6t-25.5 -2.5q-38 -2 -78.5 -4.5t-87.5 -5.5t-102 -7t-121 -10q-33 -3 -86 -8t-115 -11.5t-127.5 -13.5t-124 -13t-104.5 -9.5t-69 -3.5q-22 0 -35 6.5t-13 20.5q0 8 5.5 15.5t20.5 14t41.5 12
t68.5 11.5q67 9 150.5 18t174.5 18t182.5 17t174 14t149.5 9.5t109 3.5zM1034 461q42 -5 56 -13.5t14 -19.5q0 -10 -7 -16t-18.5 -9.5t-25.5 -4.5t-29 -1q-5 0 -28.5 0.5t-58.5 0.5t-77.5 1t-86 1t-83.5 0.5t-69 0.5q-70 0 -138 -0.5t-126 -1.5t-102.5 -1.5t-68.5 -0.5
q-45 0 -64.5 12t-19.5 33q0 9 4.5 17.5t15.5 15t30.5 10.5t48.5 4q49 0 121.5 -1t155.5 -3.5t169.5 -5t162.5 -6t135.5 -6.5t88.5 -6z" />
    <glyph glyph-name="greater" unicode="&#x3e;" horiz-adv-x="1092" 
d="M117 1133q10 0 28.5 -7.5t41 -19t47 -25t45.5 -26t37 -22.5t22 -13q24 -14 57 -34t69.5 -42t74.5 -45.5t73 -44.5l65 -39t50 -29q66 -38 111 -64.5t73 -45.5t40 -32t12 -23q0 -16 -19 -38.5t-47.5 -47.5t-62.5 -50t-64 -47q-9 -6 -32.5 -22.5t-54.5 -38t-67.5 -46
t-71.5 -48.5t-66 -45t-52 -35q-57 -37 -99 -62.5t-61 -25.5q-20 0 -20 20q0 11 8.5 22.5t34.5 32.5q10 9 35.5 28t59 42.5t70.5 50.5t71.5 50.5t61.5 42.5t40 28q44 31 81.5 59.5t64.5 52.5t42.5 41t15.5 25q0 6 -10 15t-25.5 20t-33.5 22t-33 21q-19 12 -51.5 32.5
t-72 45.5t-82.5 52t-81.5 51.5t-70 45t-47.5 31.5q-25 17 -62.5 41.5t-73 50t-61 48t-25.5 34.5q0 6 4.5 9.5t10.5 3.5z" />
    <glyph glyph-name="question" unicode="?" horiz-adv-x="1157" 
d="M399 43q64 0 94.5 -39t30.5 -96q0 -35 -11.5 -58t-28 -36t-34.5 -18t-32 -5q-29 0 -52.5 11.5t-40.5 31t-26.5 44.5t-9.5 52q0 47 27.5 80t82.5 33zM584 1700q104 0 197 -26.5t162.5 -81t110 -138t40.5 -197.5q0 -80 -19 -144.5t-54 -119t-85.5 -101t-114.5 -89.5
q-67 -45 -131.5 -83.5t-122.5 -74t-106.5 -70t-84 -72t-55.5 -80t-20 -93.5q0 -32 8 -54.5t20.5 -37.5t29 -22t34.5 -7q21 0 35 8.5t23 21t13 26.5t5 26q2 17 4 26t10 9t12.5 -11.5t4.5 -29.5q0 -24 -7 -46t-21 -38.5t-37 -26.5t-54 -10q-29 0 -57 9.5t-50 30.5t-35.5 54
t-13.5 80q0 69 26 126.5t68.5 109.5t96.5 101t111 100t111 106.5t96.5 121t68.5 143t26 173.5q0 62 -16 123t-51.5 109t-93 78t-140.5 30q-64 0 -113 -18.5t-82.5 -50t-51 -73t-17.5 -87.5t13 -82.5t33 -68t43 -59.5t43 -58t33 -63.5t13 -74.5q0 -30 -9.5 -59.5t-30.5 -53.5
t-54 -38.5t-80 -14.5q-115 0 -171 80.5t-56 226.5q0 52 12 111.5t39 119t69 114.5t102.5 97t140 67.5t180.5 25.5z" />
    <glyph glyph-name="at" unicode="@" horiz-adv-x="1841" 
d="M788 -539q121 0 186.5 36t65.5 91q0 20 -10 35t-24.5 27.5t-32 24.5t-32 27t-24.5 35t-10 48q0 22 8.5 44.5t26 40.5t43.5 29t62 11q34 0 63 -13t51 -37t34.5 -58.5t12.5 -77.5q0 -29 -7 -64.5t-25.5 -71.5t-49 -70t-78 -60t-113 -42t-153.5 -16q-137 1 -260 67
t-216.5 191t-148.5 305.5t-55 411.5q0 157 31 297t89 258t140.5 212t185 160t223.5 101t255 35q190 0 328.5 -60.5t227.5 -167.5t132 -255t43 -322q0 -170 -29 -298.5t-78 -215t-112.5 -130.5t-132.5 -44q-64 0 -111.5 26t-80.5 67t-52.5 93t-27.5 105q-3 -17 -9.5 -49.5
t-21.5 -70.5t-39 -77.5t-62 -71.5t-90.5 -52.5t-124.5 -20.5q-68 0 -138 24.5t-128 80t-95.5 144.5t-41.5 217q2 110 24.5 195.5t58.5 149.5t82 108.5t96.5 72t102 40t97.5 12.5q61 0 106 -13t77 -31t52.5 -36.5t32.5 -30.5q0 38 -1 64t-1 57q0 22 8.5 31.5t22.5 12.5
t33.5 2t42.5 1q32 2 57 5.5t39 3.5t17 -11t3 -32q0 -22 -2.5 -64.5t-6 -96.5t-8 -114t-8 -117.5t-6 -106.5t-2.5 -81q0 -70 6 -129t22 -102.5t42.5 -68t67.5 -24.5q44 0 88.5 35.5t80.5 107t58.5 178t22.5 247.5q0 197 -51 339t-141 233.5t-212 135t-264 43.5
q-119 0 -228 -32t-203 -92t-171 -147t-131.5 -198t-84.5 -244t-30 -284q0 -178 31.5 -315.5t82.5 -239.5t116.5 -171.5t134 -112t134 -61t117.5 -18.5zM862 885q-57 0 -104.5 -26.5t-81.5 -77t-53 -123t-19 -164.5q0 -90 16.5 -170.5t49 -141t81 -96t113.5 -35.5
q66 0 113 37t77 98.5t44 142t14 167.5q0 74 -14.5 144t-44.5 124.5t-77.5 87.5t-113.5 33z" />
    <glyph glyph-name="A" unicode="A" 
d="M852 1679q7 0 16 -17t17.5 -39.5t16 -45t11.5 -33.5q22 -65 49 -147t57.5 -175t64 -193.5l67 -201t66.5 -198.5t63 -186.5t56.5 -163t47.5 -129.5q24 -65 47 -104t49 -62t57.5 -34t72.5 -20q30 -6 30 -22q0 -11 -11 -15t-25 -4q-22 0 -56 1t-78 1q-35 0 -75.5 -1.5
t-83.5 -4.5q-67 -5 -124 -16.5t-103 -23t-80.5 -20.5t-55.5 -9q-11 0 -17.5 5.5t-6.5 14.5q0 13 7 21t27 14q8 2 23 6t33 9t37.5 11.5t35.5 14.5q20 11 36 29t16 55q0 8 -1.5 22t-4.5 25q-18 70 -37 142t-38 137t-36 120t-31 90q-23 58 -53 88.5t-66 47.5q-10 4 -33 13
t-54.5 19.5l-67.5 22.5t-71 23.5t-65.5 21t-50.5 16.5q-24 -77 -47.5 -152.5t-43 -139t-34 -111.5t-20.5 -70q-8 -26 -11 -47t-3 -37q0 -29 8.5 -48.5t22.5 -33t32.5 -23t38.5 -18.5q17 -8 30 -17.5t13 -23.5q0 -9 -7.5 -15.5t-23.5 -6.5q-17 0 -43 8t-57.5 20t-66.5 25.5
t-70 24.5q-28 8 -58 14.5t-58 10.5t-50.5 6.5t-34.5 3.5q-25 2 -36 7t-11 19q0 10 6.5 16.5t22.5 6.5q6 0 21.5 -1t35.5 -1q48 0 80 6t54 19t36.5 32.5t26.5 46.5q12 26 29 69.5t36.5 95t39.5 107t37.5 105t30.5 88t19 57.5q8 26 22.5 71.5t32.5 101.5t36.5 116.5t34 116
t25 101t9.5 71.5q0 20 -11 33.5t-36 13.5q-22 0 -49.5 -3t-55.5 -6t-54.5 -6t-45.5 -3q-37 0 -37 26q0 24 35 27q24 1 54.5 5t64.5 11t68.5 17.5t66.5 25.5q51 23 87 47t61.5 43t42 31t26.5 12zM547 838q31 -11 79.5 -27.5t98.5 -32t92.5 -26.5t61.5 -11q12 0 21 8.5t9 26.5
q0 15 -9 54.5t-22.5 90t-29.5 106t-30 102.5t-23.5 78.5t-10.5 35.5q-4 12 -10.5 34.5t-14 44.5t-15 38t-11.5 16t-10.5 -11t-13.5 -26.5t-14 -33.5t-11 -33z" />
    <glyph glyph-name="B" unicode="B" horiz-adv-x="1403" 
d="M836 1749q63 0 128.5 -15t118.5 -52t87 -100t34 -159q0 -75 -22.5 -135t-58.5 -107t-81 -82.5t-90 -60.5t-85.5 -41.5t-67.5 -25.5q41 0 99.5 -9.5t123 -32.5t127.5 -62t113.5 -99t82 -142.5t31.5 -191.5q0 -96 -21 -172t-57 -135t-83 -102t-99 -72t-105.5 -45
t-101.5 -21q-52 -6 -97 -8t-83 -2q-62 0 -113 3t-102 3q-66 0 -124 -13.5t-107 -33.5t-89.5 -44t-73 -44t-56 -33.5t-39.5 -13.5q-23 0 -23 25q0 19 20.5 38t52.5 40t70.5 44t73.5 50q22 17 40.5 37t33 45.5t24 59t15.5 77.5q8 62 11 154t3 206q0 60 1 144t1 178
q0 97 -2 198t-8.5 192.5t-18 166.5t-30.5 119q-17 39 -40.5 66.5t-53 46t-63 29.5t-69.5 17q-26 5 -34.5 11.5t-8.5 15.5t7.5 12.5t19.5 3.5q18 0 38 -2.5t46.5 -5.5t59.5 -5.5t77 -2.5q91 0 161.5 13.5t134 30t128 30.5t144.5 14zM494 1638q3 -45 6 -98t7 -109.5t7.5 -114
t7.5 -110.5q8 -125 17 -254q116 8 208 50q39 18 76.5 45t67 66t47.5 91.5t18 120.5q0 98 -24 163t-64 104t-93 55t-111 16q-48 0 -91.5 -7t-78.5 -18zM543 879q3 -56 7.5 -126t9.5 -143t10.5 -145.5t10 -134.5t8.5 -109.5t7 -70.5q5 -50 18.5 -92t37.5 -72t60 -47t87 -17
q70 0 129.5 28.5t103 88.5t68 151.5t24.5 217.5q0 122 -30.5 215.5t-84.5 157t-127.5 96t-160.5 32.5q-54 0 -103 -9t-75 -21z" />
    <glyph glyph-name="C" unicode="C" horiz-adv-x="1520" 
d="M1329 1731q14 0 17.5 -14t3.5 -36q0 -12 -2 -48t-2 -89q0 -93 7.5 -161.5t17.5 -119t21 -85.5t19 -60q6 -20 15.5 -48.5t9.5 -47.5q0 -16 -13 -16q-11 1 -26 14.5t-31.5 32.5t-32 40t-26.5 37q-45 60 -93 107t-106.5 80t-130 50t-162.5 17q-104 0 -195 -40.5
t-158.5 -123.5t-107 -208.5t-39.5 -294.5q0 -156 27.5 -277.5t73.5 -212t106.5 -153t127 -101.5t134.5 -56t129 -17q94 0 167 23t129 61.5t96 88.5t67 104.5t43 109t23 102.5q4 30 6.5 60.5t5 55.5t7 40.5t13.5 15.5q29 0 29 -102q0 -26 -3.5 -68t-15 -94t-32.5 -109.5
t-55.5 -114t-84 -107.5t-118.5 -90t-159.5 -62t-205.5 -23q-97 0 -195.5 20t-189 61.5t-169 106t-136.5 154t-91.5 205t-33.5 258.5q0 171 36 300t97 223t140.5 155.5t167 98.5t177 52t169.5 15q60 0 109.5 -5t91 -10.5t76 -10.5t63.5 -5q51 0 85 21.5t50 82.5
q10 42 14.5 81t9 69.5t11.5 49t22 18.5z" />
    <glyph glyph-name="D" unicode="D" horiz-adv-x="1487" 
d="M883 1368q104 0 187 -24t147 -66t109 -99.5t74 -125t42.5 -142.5t13.5 -151q0 -95 -19 -186t-61 -170.5t-109.5 -143.5t-164.5 -106q-54 -24 -105 -40t-101.5 -28.5t-102.5 -24.5t-107.5 -27.5t-115.5 -37.5t-128 -55q-108 -53 -180 -103.5t-119.5 -90.5t-75.5 -64.5
t-47 -24.5q-20 0 -20 20q0 13 16.5 28.5t43.5 38t60 54.5t66 78q44 60 73 134t38 159q2 22 4.5 58.5t4 83t2.5 101t1 113.5q0 92 -3 188.5t-9.5 182.5t-17.5 154.5t-27 105.5q-14 32 -34.5 53t-42 35t-43 22.5t-39 15t-28 13t-10.5 15.5q0 16 27 16q18 0 39.5 -2.5
t49.5 -5.5t63 -5.5t81 -2.5q74 0 149 9t147.5 19.5t141 19.5t130.5 9zM737 1300q-105 0 -166 -23t-73 -60q-8 -25 -12.5 -75t-4.5 -116q0 -75 3.5 -163.5t9 -173t12 -158t12.5 -119.5q6 -47 14.5 -83t18 -64t21.5 -49t26 -38q15 -18 36 -31t44.5 -21t48 -11.5t47.5 -3.5
q77 0 136.5 28.5t104 76t75.5 110t50 131.5t27.5 139.5t8.5 134.5q0 109 -20.5 193.5t-54.5 148t-78.5 106.5t-93.5 70t-98.5 39t-93.5 12z" />
    <glyph glyph-name="E" unicode="E" horiz-adv-x="1141" 
d="M1004 1642q15 0 20.5 -7t5.5 -21q0 -18 -2.5 -41t-5.5 -57.5t-5.5 -83t-2.5 -117.5q0 -13 -4 -23t-15 -10q-16 0 -22 33q-5 21 -8.5 53.5t-10.5 79.5q-5 38 -16.5 59t-28 31t-35.5 12t-38 2q-39 0 -89.5 -3.5t-98.5 -8t-86.5 -9.5t-53.5 -9q-32 -8 -39.5 -26.5
t-7.5 -43.5q0 -22 1 -63.5t3 -95t5 -115t5.5 -123.5t5 -120t4.5 -104q22 -3 50.5 -5.5t56.5 -2.5q33 0 55.5 4.5t38 12.5t24.5 19.5t15 25.5q6 15 8.5 29t5.5 32q3 19 9 25t12 6q14 0 14 -25q0 -22 -2.5 -54t-5.5 -67t-5.5 -71t-2.5 -66q0 -27 0.5 -54t1.5 -50t1.5 -41
t0.5 -27q0 -14 -5.5 -26.5t-19.5 -12.5q-23 0 -26 41q-1 10 -1.5 28t-1.5 38t-3.5 40t-6.5 34q-5 17 -18 33.5t-41 25.5q-12 4 -29.5 7t-38 5t-42 3.5t-40.5 2.5q3 -50 7.5 -123.5t10 -155t11.5 -164.5t11 -152t8.5 -116.5t5.5 -58.5q4 -41 21 -60t54 -24q40 -6 97 -6
q76 0 134 8t101 28t73 53.5t50 84.5q11 27 18.5 53.5t13 47.5t10.5 34t11 13q8 0 11.5 -18.5t3.5 -43.5q0 -36 -3.5 -79.5t-9.5 -85.5t-13.5 -78t-14.5 -56q-13 -32 -35 -44.5t-59 -12.5q-32 0 -87 5.5t-126.5 13t-154 15.5t-169.5 13q-67 4 -127.5 6t-110.5 3t-87 1h-58
q-28 0 -36.5 7.5t-8.5 19.5q0 15 11 21t28 6q11 0 37.5 -2.5t64.5 -2.5q13 0 26.5 0.5t29.5 2.5q36 1 55.5 12.5t28.5 27t10.5 32.5t1.5 30q-2 97 -10.5 207.5t-18 215.5t-19 193t-14.5 140q-3 34 -8 81.5t-11.5 101.5t-14 110.5t-15 110t-15 99.5t-13.5 78q-8 39 -17.5 67
t-20.5 49t-23.5 36t-27.5 26q-11 9 -26 17.5t-28.5 16.5t-22.5 15.5t-9 16.5q0 16 27 16q14 0 39 -3.5t62.5 -7.5t89 -7.5t118.5 -3.5q52 0 117 5.5t133.5 13t135.5 17t122 17t92.5 13t47.5 5.5z" />
    <glyph glyph-name="F" unicode="F" horiz-adv-x="1092" 
d="M1079 1724q23 0 38.5 -13.5t15.5 -51.5q0 -27 -7 -70.5t-16 -87.5t-17.5 -80.5t-11.5 -50.5q-2 -9 -7.5 -31t-14 -49t-18 -56t-19.5 -53t-19.5 -39.5t-17.5 -15.5q-5 0 -8.5 5t-3.5 22t3 47.5t6 68t6 78t3 76.5q0 55 -11.5 86.5t-33 48t-52 21t-67.5 4.5
q-49 0 -108.5 -6.5t-112.5 -20.5q-44 -11 -57.5 -38t-13.5 -70q0 -7 1 -56t3 -126t4.5 -176.5t5.5 -206.5q28 2 57 5.5t49 12.5q21 9 35.5 23.5t23.5 31t14.5 33.5t8.5 31q16 64 25 90.5t24 26.5q19 0 19 -37q0 -18 -4 -43t-9.5 -56.5t-9.5 -69.5t-4 -81q0 -39 1.5 -80
t3.5 -76t3.5 -62.5t1.5 -39.5q0 -34 -6.5 -51t-17.5 -17q-12 0 -20 18.5t-9 71.5q-1 39 -4.5 71.5t-13 57t-26.5 41t-44 25.5q-17 5 -43.5 6.5t-52.5 1.5q3 -107 6.5 -213t6.5 -196.5t6 -158.5t5 -99q3 -48 12 -77.5t24 -47.5t35 -27t46 -16q9 -3 20 -5t21.5 -6t17.5 -9.5
t7 -14.5t-5.5 -14t-14 -7.5t-18 -3t-18.5 -0.5q-15 0 -42 3.5t-62 7t-75 7t-81 3.5q-37 0 -71 -2.5t-70 -6t-75 -6t-85 -2.5q-28 0 -45 3t-26 7.5t-12 10.5t-3 12q0 23 37 29q9 1 29 2.5t44.5 3.5t50.5 5.5t46 8.5q21 6 42 16.5t37 29t26 49t10 77.5q0 80 -6.5 184
t-17 216.5t-24 226t-28 215t-28.5 182t-25 127.5q-9 38 -26 61.5t-38.5 37t-47 20t-52.5 10.5q-29 5 -46.5 13t-17.5 26q0 17 13.5 23t32.5 6q85 0 213 12t290 49q125 28 209.5 53t141.5 43t93.5 28.5t65.5 10.5z" />
    <glyph glyph-name="G" unicode="G" horiz-adv-x="1536" 
d="M788 1335q80 0 140 -10t109.5 -22.5t92.5 -22.5t89 -10q95 0 180 88q24 25 41.5 50t31.5 44.5t26.5 32t25.5 12.5q22 0 22 -24q0 -15 -21 -48t-50 -75t-59.5 -87t-49.5 -83q-19 -39 -32.5 -70t-25.5 -61.5t-24 -63t-27 -74.5q-12 -35 -26 -56t-33 -21q-24 0 -24 40
q0 16 5 47.5t5 69.5q0 144 -100 219.5t-285 75.5q-51 0 -107.5 -14t-111.5 -45.5t-105 -82t-87.5 -124t-60 -172t-22.5 -225.5q0 -75 10 -143t28 -127t42 -107t53 -82q37 -44 79 -71t84.5 -42t82.5 -20.5t74 -5.5q62 0 111.5 11.5t87.5 30t64.5 42t43.5 47.5q14 19 24 44
t16.5 51.5t9.5 53t3 49.5q0 39 -4.5 75t-19 63t-40.5 43t-69 16q-57 0 -103.5 -8t-97.5 -8q-21 0 -33 7t-12 21q0 13 10 23t44 10q55 0 142.5 7.5t209.5 29.5q67 12 115.5 25t83 23.5t58.5 17t44 6.5q27 0 27 -17q0 -9 -6 -15t-16.5 -11.5t-24.5 -11.5t-29 -15
q-31 -19 -46.5 -54t-15.5 -104q0 -36 3 -78t6.5 -81.5t8 -73.5t7.5 -54q5 -27 8.5 -53.5t3.5 -40.5q0 -11 -4 -17.5t-12 -6.5q-12 0 -27.5 9t-35 20.5t-41.5 20.5t-46 9q-31 0 -60.5 -13t-62.5 -32.5t-73 -42.5t-93.5 -42.5t-123 -32.5t-160.5 -13q-130 0 -243.5 43.5
t-198 124.5t-133 195t-48.5 255q0 132 31.5 238t84.5 187.5t121 140.5t142 98q56 30 111.5 49t107.5 30t97.5 15t82.5 4z" />
    <glyph glyph-name="H" unicode="H" horiz-adv-x="1522" 
d="M88 1794q18 0 47.5 -10t70 -24.5t91 -30t109.5 -27.5q58 -12 122.5 -19.5t121.5 -12t100.5 -7.5t58.5 -4q14 -2 22.5 -5.5t8.5 -13.5q0 -11 -9 -14.5t-20 -3.5q-22 0 -64.5 3t-89.5 3q-35 0 -61.5 -6.5t-44 -21.5t-27.5 -39.5t-12 -61.5q-2 -21 -2.5 -54.5t-1 -74.5
t-0.5 -87.5v-94.5v-113v-101t0.5 -78t1.5 -44q1 -26 6 -42t14 -25t21 -12t27 -3q28 0 68 2.5t85.5 6.5t91.5 9.5t85.5 10t69.5 8.5t42 6q34 6 54 23t29.5 41t12 54.5t2.5 63.5q0 45 -3.5 92.5t-8.5 90.5t-10.5 78t-8.5 53q-6 39 -18 60.5t-26.5 32t-30 13t-27.5 2.5
q-34 0 -69.5 -2t-55.5 -2t-30.5 8t-10.5 21q0 11 8.5 21t40.5 12q30 1 67.5 3.5t79 7t84.5 10.5t85 15q38 9 81.5 21.5t85 24t77.5 20t59 8.5t29 -7t6 -15q0 -14 -11.5 -19.5t-25.5 -5.5q-7 0 -19 -1t-25 -3.5t-26 -6.5t-22 -11q-16 -13 -29.5 -35.5t-20.5 -67.5
q-5 -36 -7.5 -90.5t-4.5 -114.5t-3.5 -120t-2.5 -107q-1 -24 -2.5 -70.5t-2.5 -107t-2.5 -132t-2.5 -145t-1.5 -147t-0.5 -137.5v-99t2 -77q1 -32 8.5 -52.5t17.5 -33t21.5 -19t21.5 -10.5q22 -8 47 -12t54 -11q14 -3 18 -7.5t4 -10.5q0 -2 -1 -5.5t-4.5 -6.5t-11.5 -5
t-22 -2q-12 0 -42.5 2.5t-68.5 6t-78 6t-71 2.5q-41 0 -81 -3.5t-76 -8t-68 -8t-57 -3.5q-42 0 -54 10.5t-12 22.5q0 16 12.5 20.5t30.5 4.5q57 2 95.5 5.5t72.5 18.5q25 12 40.5 28.5t23 36t10 40t2.5 39.5q0 15 -2 54t-5.5 91.5t-8 112t-9.5 116t-9.5 103.5t-8.5 74
q-5 30 -12.5 47.5t-18 26.5t-24.5 11.5t-31 2.5q-18 0 -54.5 -3t-82 -7.5t-95 -10.5t-93 -12t-77.5 -12t-47 -11q-19 -6 -30 -16t-16 -21.5t-6.5 -24t-2.5 -24.5q0 -29 0.5 -79t1 -110.5t1.5 -127t1.5 -128.5t1 -114.5t0.5 -85.5q0 -47 6 -76t16 -46.5t24 -28t30 -19.5
q17 -9 32 -16.5t15 -20.5q0 -8 -6.5 -11t-15.5 -3q-21 0 -43.5 6t-52.5 12.5t-71.5 12.5t-99.5 6q-60 0 -110.5 -7t-90.5 -15.5t-69 -15.5t-47 -7q-37 0 -37 26q0 16 8.5 23t22.5 12q6 2 20 5t33.5 6.5t42.5 8.5t47 11q32 8 50 22t26.5 31.5t10.5 37.5t3 40q0 6 1 40.5t3 87
t4 120t4 140t3 145t2 137.5q0 15 0.5 49.5t0.5 82.5t0.5 107t0.5 123q0 85 -0.5 173t-2 164.5t-4 134.5t-6.5 83q-4 29 -11 51.5t-19 40.5t-28.5 33t-39.5 29q-22 13 -42 23t-35.5 18t-24.5 16.5t-9 18.5q0 9 6 14.5t21 5.5z" />
    <glyph glyph-name="I" unicode="I" horiz-adv-x="899" 
d="M918 1733q34 0 53.5 -3.5t30 -8.5t13.5 -11.5t3 -13.5q0 -17 -21.5 -27t-70.5 -10q-50 0 -93 -3t-81 -14q-34 -9 -62 -26.5t-50.5 -46.5t-39.5 -71t-29 -101q-13 -64 -26.5 -165t-27 -223.5t-25.5 -258.5t-21 -270t-14.5 -258t-5.5 -222q0 -56 9.5 -88.5t24 -49.5
t30.5 -23t28 -9q28 -8 64 -9t61 -1q49 0 49 -27q0 -12 -11.5 -22.5t-50.5 -10.5q-20 0 -45.5 1t-56.5 1q-43 0 -97 -3.5t-120 -12.5q-65 -9 -128 -29t-118 -40t-98 -35t-68 -15q-26 0 -26 23q0 17 24 26q8 3 41 14.5t74 26.5t80 30.5t59 27.5q30 17 49.5 38t31.5 46.5
t17.5 55.5t8.5 65q2 40 4 114t3.5 170t2 208t0.5 228q0 94 -0.5 186.5t-1 176t-2 153.5t-2.5 121q-2 75 -10.5 122.5t-21.5 77t-29.5 45.5t-35.5 28q-30 20 -80.5 29.5t-101.5 9.5q-23 0 -33 8.5t-10 19.5q0 6 2 11.5t8 10.5t18.5 8t33.5 3q27 0 70.5 -3t95.5 -6t110 -6
t115 -3q61 0 126 6.5t130 14t127 14t117 6.5z" />
    <glyph glyph-name="J" unicode="J" horiz-adv-x="1288" 
d="M1364 1878q14 0 20.5 -5t6.5 -13q0 -14 -14.5 -23t-39.5 -18q-23 -10 -64.5 -23t-92.5 -41q-23 -13 -44.5 -30t-39 -42.5t-30 -61.5t-17.5 -87q-7 -53 -8 -120t-1 -150q0 -71 -1 -156.5t-6.5 -190t-16 -230t-29.5 -275.5q-13 -103 -38.5 -212.5t-64.5 -213.5t-93 -196.5
t-124.5 -162.5t-158.5 -110.5t-195 -40.5q-76 0 -132.5 25.5t-94.5 67.5t-57 96t-19 112q0 77 24.5 129.5t62 85t83 47t86.5 14.5q94 0 151.5 -46t57.5 -130q0 -77 -38 -119.5t-101 -42.5q-38 0 -69.5 10.5t-63.5 10.5q-38 0 -58 -20.5t-20 -57.5q0 -33 14 -59.5t39 -45
t58.5 -28.5t72.5 -10q102 0 179.5 54t134.5 146t95 214t61 257t32.5 276t9.5 271q0 160 -7 298.5t-20 247t-31 183t-40 107.5q-19 29 -44.5 45.5t-53.5 24.5t-57.5 10t-57.5 2q-23 0 -37 5.5t-14 22.5q0 13 10 21t33 10q22 1 63.5 2.5t96.5 5.5t121.5 12t138.5 23
q88 18 158.5 39.5t125 40.5t93.5 32t65 13z" />
    <glyph glyph-name="K" unicode="K" horiz-adv-x="1774" 
d="M897 1657q17 0 34.5 -8t44 -20.5t65.5 -27.5t98 -28q33 -7 68 -11t69 -5.5t66 -2t59 -0.5q15 0 29 -1t25.5 -4t18.5 -9t7 -16q0 -11 -5 -17.5t-12.5 -10t-16.5 -4.5t-17 -1q-22 0 -47 2t-54 2q-91 0 -155.5 -30.5t-110.5 -78.5q-12 -12 -35.5 -37.5t-51 -56.5
t-56.5 -65.5t-53 -64.5t-39 -52.5t-15 -30.5q0 -15 14.5 -58.5t41 -105.5t65.5 -136.5t88 -149.5t107 -145.5t124.5 -125t139.5 -87.5t151 -33q45 0 80 14t58 38.5t35 58.5t12 73q0 38 -11.5 75.5t-34.5 71.5q-17 25 -31.5 40.5t-25.5 26t-17.5 19t-6.5 19.5q0 8 5 16t19 8
q25 0 58.5 -21.5t62.5 -61t49.5 -96t20.5 -126.5q0 -31 -6 -68t-21.5 -74t-42 -71t-66.5 -60.5t-95 -42.5t-128 -16q-105 0 -197 35.5t-171.5 94t-146 133.5t-120.5 153q-126 183 -215 416l-110 -137q1 -75 1.5 -156.5t2 -160.5t5 -152t9.5 -133q6 -62 25 -102.5t43 -66
t48 -39t40 -20.5q34 -15 53.5 -24.5t19.5 -20.5q0 -5 -4 -8.5t-18 -3.5q-32 0 -72.5 13t-88 29t-100 29t-108.5 13q-40 0 -70 -3t-59 -3t-42 5.5t-13 16.5q0 10 10 15t25.5 10.5t34 14t36.5 26.5q23 23 27 61.5t4 83.5q0 35 -2.5 101.5t-7 151.5t-10.5 183.5t-12.5 197.5
t-12.5 193t-11.5 170.5t-9.5 129.5t-5 71q-7 64 -19.5 100t-44.5 56q-9 6 -23 10t-29 7t-30.5 4t-28.5 1q-6 0 -13.5 1t-14 3.5t-11 7.5t-4.5 13q0 14 10 20.5t25 8.5q42 4 78 4.5t72.5 1.5t75.5 3t86 9q73 11 121 25t79.5 27t51 21.5t36.5 8.5q21 0 21 -18q0 -11 -11 -18.5
t-22 -12.5q-15 -8 -33.5 -16.5t-40.5 -22.5q-43 -28 -58.5 -70.5t-19.5 -107.5q-1 -9 -1.5 -22t-0.5 -27v-28v-26q0 -96 4.5 -212.5t6.5 -247.5v-37q17 18 49 54t72.5 81.5t85.5 95.5t86 97.5t75 88t54 66.5q34 45 49.5 78.5t15.5 60.5q0 23 -8.5 42t-18.5 30
q-13 16 -27.5 29.5t-27 25.5t-21 22t-8.5 19q0 10 5.5 16.5t17.5 6.5z" />
    <glyph glyph-name="L" unicode="L" horiz-adv-x="1352" 
d="M80 1544q37 -1 78 -9t92 -19t113.5 -22t142.5 -17q42 -3 73.5 -5t57.5 -2q30 0 55 1.5t49.5 4t51.5 4t61 1.5q48 0 62 -9t14 -24q0 -16 -13.5 -22.5t-37.5 -8.5q-19 -2 -43.5 -3.5t-47.5 -4.5q-19 -3 -37.5 -8.5t-34.5 -17t-28 -32t-18 -53.5q-9 -50 -19 -132t-19 -178
t-17 -199t-14 -196t-9.5 -169t-3.5 -117q0 -65 17.5 -93.5t51.5 -39.5q10 -3 29 -6t43.5 -5t53 -3.5t57.5 -1.5q85 0 142 14t91.5 43t49 72t14.5 102q0 52 -8 102.5t-18 93.5t-18 77t-8 53q0 11 4 18.5t13 7.5q12 0 20 -10.5t15 -25.5q12 -35 21.5 -66.5t19.5 -65.5t22 -73
t29 -88q37 -107 63.5 -175.5t26.5 -99.5q0 -15 -20 -24t-76 -9h-134t-182 -1.5t-200.5 -4.5t-188.5 -8q-70 -5 -121 -11.5t-93.5 -12.5t-81 -10.5t-83.5 -4.5q-31 0 -42 6.5t-11 20.5q0 12 11.5 17.5t27.5 8.5q5 1 22 3t38.5 6t45.5 10t43 14q47 20 65 65t23 113
q4 48 5.5 118t1.5 151q0 90 -1 185t-3.5 181.5t-5 158t-5.5 116.5t-9.5 78.5t-16 57.5t-22 39.5t-27.5 26.5q-14 10 -33 18t-39.5 13.5t-41 9.5t-38.5 7q-26 4 -43 8t-26.5 9t-13 11t-3.5 13q0 18 11.5 23t27.5 5z" />
    <glyph glyph-name="M" unicode="M" horiz-adv-x="2232" 
d="M569 1014q-11 66 -41 104.5t-61 55.5q-25 14 -49.5 21t-42.5 13q-19 7 -28 15t-9 22q0 29 39 29q18 0 35 -4t41 -9t57 -11.5t82 -10.5q45 -4 76 -4.5t52.5 -1t36.5 -2t27 -6.5q18 -8 47.5 -39t66 -76t77.5 -100t81.5 -111.5t79 -109.5t70 -94t54 -66t30.5 -25
q17 0 66.5 92.5t140.5 276.5q25 51 51.5 108.5t52 114t48.5 108.5t42.5 92t34.5 64.5t23 26.5q5 2 10.5 2h12.5q18 0 50 -1t83 -1q31 0 56 2.5t44.5 5.5t35.5 5.5t30 2.5q21 0 27.5 -6t6.5 -14q0 -18 -30 -27q-29 -9 -81.5 -18.5t-117.5 -32.5q-40 -14 -56 -50.5t-16 -90.5
q0 -39 6.5 -99.5t18 -134t27.5 -156t34.5 -166t39 -162.5t41.5 -146t41.5 -117.5t39.5 -75.5q18 -24 36.5 -41t41 -29t49 -21t59.5 -18q32 -8 44 -17t12 -22q0 -14 -16.5 -23t-51.5 -9q-42 0 -87.5 3t-100.5 3q-89 0 -162.5 -13t-134 -29t-109.5 -29t-90 -13q-11 0 -22 4
t-11 18q0 15 18 24.5t46.5 18t63.5 17.5t69 24q35 16 50.5 41.5t15.5 65.5q0 23 -7.5 72t-19.5 114t-27.5 140t-32 150t-33 144.5t-29.5 122.5t-22.5 85t-11.5 32q-3 0 -18.5 -27t-38.5 -72t-52 -103t-58.5 -119t-58.5 -121t-53 -109.5t-40 -83t-21 -41.5q-10 -19 -21 -40
t-22.5 -38.5t-21.5 -29t-17 -11.5q-6 0 -15.5 9.5t-19.5 23.5t-20.5 30t-17.5 29q-26 45 -61 106.5t-73.5 129t-76 135.5t-70 125.5t-55.5 99t-31 56.5q-17 30 -29 50.5t-20.5 32.5t-14.5 17.5t-12 5.5q-8 0 -8 -16t3 -43.5t5 -48.5q10 -97 13.5 -181.5t3.5 -162.5
q0 -70 -8 -151.5t-27 -163t-51.5 -156.5t-82.5 -133t-118.5 -92.5t-159.5 -34.5q-53 0 -94 17t-69.5 45.5t-43 65t-14.5 76.5q0 28 7.5 56t24.5 49.5t43 35t64 13.5q30 0 53.5 -10.5t42 -26t33.5 -34.5t27 -36q42 -57 92 -57q44 0 76 27t55.5 72.5t38.5 104.5t23.5 123
t12 128.5t3.5 120.5q0 99 -8 189t-19 161z" />
    <glyph glyph-name="N" unicode="N" horiz-adv-x="1638" 
d="M475 1468q21 -8 56.5 -40.5t81 -82.5t101 -113t117.5 -130q46 -50 91.5 -101.5t87.5 -99.5t79.5 -90t68 -73.5t53.5 -49.5t36 -18q8 0 14 17t10.5 45t7.5 63t5 71t3 70t1 59q0 34 -1.5 76t-4.5 81.5t-8.5 72t-13.5 49.5q-12 24 -27 40t-37 26.5t-53 16.5t-76 11
q-29 3 -40 10t-11 21t11 18t24 4q10 0 30.5 -1.5t48.5 -3t60.5 -2.5t66.5 -1q55 0 109 8t101 17.5t84 17.5t57 8q30 0 30 -24q0 -16 -12.5 -23t-26.5 -10q-18 -4 -33 -6.5t-29 -5.5t-29 -7.5t-33 -11.5q-15 -5 -29.5 -15t-27.5 -26.5t-23.5 -41t-16.5 -58.5
q-6 -36 -10.5 -100.5t-8.5 -144t-6.5 -167t-5 -169t-4 -151t-2.5 -112.5q-3 -159 -9.5 -235t-20.5 -76q-8 0 -30.5 20.5t-53.5 55t-69 80t-78 95t-80 101t-75 97t-63.5 83t-44.5 60.5q-196 270 -300.5 408.5t-129.5 138.5q-5 0 -7.5 -30t-4 -81t-2 -119t-0.5 -145
q0 -99 0.5 -204.5t0.5 -199.5t0.5 -166.5t0.5 -105.5q0 -59 1.5 -121t6 -117.5t12.5 -101t21 -70.5q18 -35 39 -59t44.5 -41t49.5 -28t53 -19q23 -8 34 -14t11 -17q0 -18 -31 -18q-18 0 -44 6t-56.5 14.5t-64.5 18.5t-68 18q-38 9 -76 14t-74 5q-24 0 -49.5 -1.5t-47.5 -3
t-38 -3t-22 -1.5q-19 0 -37.5 3t-18.5 20q0 12 13 16t35 4q29 0 65.5 7.5t67.5 27.5q42 28 64 74.5t30 118.5q4 34 6.5 70.5t4 81t2.5 101.5t1 132q0 32 -1 68.5t-1 76.5q0 27 -0.5 75.5t-0.5 110.5t-1 133.5t-3 143.5t-5 141.5t-8 128t-12 101.5t-17 63q-11 22 -30 34
t-45 18t-58.5 7.5t-69.5 2.5q-24 0 -40.5 6.5t-16.5 27.5q0 16 11 23.5t28 7.5h86q61 0 154 6q43 3 85.5 9t73.5 6q11 0 21 -1.5t16 -5.5z" />
    <glyph glyph-name="O" unicode="O" horiz-adv-x="1530" 
d="M731 1561q177 0 322 -56t248.5 -156.5t160 -239t56.5 -304.5q0 -94 -20 -187t-60 -177t-101.5 -156t-144 -125t-187 -83t-231.5 -30q-189 0 -332 57.5t-239 160t-144.5 244t-48.5 308.5q0 163 53 299.5t148.5 235.5t228 154t291.5 55zM690 1509q-98 0 -176.5 -44
t-134 -125.5t-85.5 -197t-30 -259.5q0 -83 11.5 -173t36.5 -177t66 -165t100 -137t137.5 -94t179.5 -35q120 0 202 48.5t132.5 127.5t73 179.5t22.5 204.5q0 87 -9.5 184t-33 191t-63 179.5t-99 150.5t-141 103.5t-189.5 38.5z" />
    <glyph glyph-name="P" unicode="P" horiz-adv-x="1276" 
d="M895 1532q62 0 129.5 -14.5t123.5 -54t92 -109.5t36 -180q0 -102 -23.5 -178.5t-62.5 -132t-89.5 -91.5t-104.5 -57.5t-108 -30t-100 -8.5q-66 0 -113 6.5t-79 15.5q1 -51 1.5 -105.5t1 -103t1 -86t0.5 -53.5q1 -35 4 -87.5t9.5 -108.5t17 -109.5t26.5 -89.5
q17 -38 44 -65t58.5 -45t65.5 -29t66 -17q16 -3 32.5 -5.5t29.5 -6t21.5 -9t8.5 -14.5q0 -12 -10 -19t-41 -7q-32 0 -81 9.5t-109.5 21t-128.5 21t-136 9.5q-74 0 -139.5 -8t-117 -17.5t-87.5 -17.5t-51 -8q-4 0 -9.5 0.5t-11 2.5t-9 6t-3.5 12q0 11 13.5 18t36 14t51 16.5
t57.5 24.5q57 31 86 81t43 116q6 30 12.5 87t12.5 130.5t11.5 158t9.5 169t6.5 163t2.5 140.5q0 122 -7 215t-30 145q-18 41 -48.5 65.5t-67 37.5t-76.5 17.5t-78 6.5q-50 1 -67 7.5t-17 25.5q0 29 51 29q22 0 70 -3t115 -3q49 0 107 3t120 11q52 6 92.5 15.5t75 19t64.5 19
t61 17.5t64.5 12.5t74.5 4.5zM608 1227q-4 -42 -6 -96.5t-3.5 -116.5t-2 -129t-0.5 -133q32 -10 72 -14.5t96 -4.5q75 0 127.5 36t85 95.5t47 135t14.5 153.5q0 64 -11.5 124t-37.5 105.5t-70 73t-108 27.5q-50 0 -86 -18t-60 -51.5t-37.5 -81t-19.5 -105.5z" />
    <glyph glyph-name="Q" unicode="Q" horiz-adv-x="1647" 
d="M817 1583q95 0 191.5 -21t185.5 -63.5t166.5 -107t134.5 -151.5t90 -196.5t33 -242.5q0 -196 -47 -344t-127 -254q46 -91 83.5 -193.5t69.5 -206.5q41 -129 84 -225t93 -160t110.5 -95.5t136.5 -31.5t143 51t109 162q15 42 22.5 74t12.5 53.5t9.5 33t13.5 11.5
q8 0 11 -12t3 -31q0 -27 -5.5 -77t-23 -109t-48.5 -120t-82.5 -111t-126 -81.5t-177.5 -31.5q-123 0 -209.5 42.5t-146.5 115t-98 167.5t-64 199.5t-44 213t-38 206.5q-106 -74 -232 -108.5t-259 -34.5q-101 0 -198.5 24t-184.5 71.5t-160 118t-126 164t-82.5 209.5
t-29.5 254q0 184 59.5 338t166.5 265t255.5 173t325.5 62zM1049 528q86 0 156.5 -40t127.5 -109q16 66 24.5 140.5t8.5 158.5q0 103 -18 205t-54 194.5t-89.5 171.5t-125.5 137.5t-162 91.5t-198 33q-98 0 -184.5 -46t-150.5 -130.5t-101 -204t-37 -266.5q0 -97 15 -192
t44 -182.5t72.5 -165.5t101 -140t129 -106t156.5 -64q-3 20 -5.5 49.5t-2.5 69.5q0 66 13 136t46.5 127.5t90 94.5t143.5 37zM895 0q122 0 209.5 46t144.5 134q-16 58 -37.5 105.5t-50 82t-66.5 53.5t-87 19q-61 0 -98.5 -33t-58 -82.5t-27.5 -107.5t-7 -108q0 -31 1 -60
t3 -45q19 -3 37 -3.5t37 -0.5z" />
    <glyph glyph-name="R" unicode="R" horiz-adv-x="1780" 
d="M834 1407q120 0 197 -34.5t122 -88t62.5 -118t17.5 -124.5q0 -59 -15 -119.5t-44.5 -113.5t-72 -95.5t-97.5 -64.5l-41 -16q49 -147 117 -252t146.5 -173t164 -100t170.5 -32q49 0 89.5 13t70 38.5t45.5 62t16 84.5q0 36 -4 60t-8.5 39.5t-8.5 24.5t-4 16q0 5 2 8.5
t8 3.5q9 0 22 -14.5t24.5 -38.5t19.5 -54.5t8 -62.5q0 -76 -22 -141t-67.5 -113t-114.5 -75t-162 -27q-130 0 -232.5 38.5t-181.5 99.5t-136 136.5t-97 151t-64 142.5t-37 110q-29 -4 -55 -5.5t-49 -1.5q-28 0 -47.5 1t-30.5 3q2 -65 5.5 -137.5t9.5 -139.5t15 -120.5
t21 -81.5q21 -47 54 -73.5t65 -42t55 -24.5t23 -19q0 -13 -29 -13q-32 0 -72 9.5t-86.5 20.5t-98.5 20.5t-108 9.5q-54 0 -111 -4.5t-104 -4.5q-65 0 -93 9t-28 30q0 13 8 21t31 8q26 0 46.5 -1t41.5 -1q49 0 84.5 7t57.5 28.5t32.5 60.5t10.5 103q0 26 -2 86t-7 139
t-12.5 169t-17.5 176.5t-24 161.5t-31 124q-18 49 -43 77t-56.5 43t-68 20t-76.5 9q-17 2 -27 7.5t-10 19.5q0 12 8 20.5t33 10.5q28 2 50 2h44h58t59.5 1.5t70 5t89.5 9.5q66 7 120.5 21.5t104 29t97 25t100.5 10.5zM543 627q116 1 199.5 33t137.5 87.5t79.5 130.5
t25.5 162q0 155 -57 233.5t-162 78.5q-44 0 -78 -15.5t-59.5 -43t-41.5 -66t-24 -84.5q-15 -96 -18.5 -190.5t-3.5 -182.5z" />
    <glyph glyph-name="S" unicode="S" horiz-adv-x="1059" 
d="M647 1587q54 0 95 -10t72.5 -22.5t55 -22.5t41.5 -10q13 0 22 11t16 27t12 35t10 35q6 23 13.5 39.5t21.5 16.5q16 0 16 -29q0 -16 -3.5 -36t-9 -47.5t-12 -64t-12.5 -84.5q-8 -59 -10.5 -104.5t-4.5 -76t-5.5 -46.5t-12.5 -16q-7 0 -11 7.5t-7 18.5t-5 22t-3 19
q-5 26 -12.5 57.5t-20.5 64t-32 63.5t-47.5 55t-67.5 38.5t-91 14.5q-94 0 -146 -56t-52 -165q0 -55 26.5 -111.5t70 -116.5t98.5 -123t113 -130t113 -138t98.5 -147t70 -157.5t26.5 -168.5q0 -120 -39 -208.5t-105 -147t-153 -87t-182 -28.5q-74 0 -129.5 17.5t-100 38
t-81 38t-72.5 17.5q-28 0 -51.5 -17t-43 -37.5t-34 -37.5t-23.5 -17q-8 0 -10 5.5t-2 13.5t3 26.5t6.5 44.5t6.5 59t3 71q0 68 -13 139.5t-29 134.5t-29 111t-13 69q0 9 3.5 17t14.5 8q15 0 28 -21.5t27 -56.5q9 -24 23.5 -59t32.5 -75.5t39.5 -84.5t46.5 -86
q43 -74 90 -123t96.5 -78.5t100.5 -42t102 -12.5q61 0 105.5 23t73.5 60t42.5 83t13.5 92q0 91 -24.5 170.5t-64 152t-90.5 139.5t-104.5 131t-104.5 127t-90.5 128.5t-64 135t-24.5 146.5q0 75 19 132t50.5 99t72 70.5t84 45.5t87 24.5t80.5 7.5z" />
    <glyph glyph-name="T" unicode="T" horiz-adv-x="1350" 
d="M109 1786q21 0 49 -4.5t59.5 -10.5t65.5 -13t69 -11q57 -8 112 -14.5t115.5 -11t129.5 -7t153 -2.5q106 0 179 7t126 15.5t92.5 15.5t79.5 7q44 0 58 -20t14 -56q0 -33 -3 -80.5t-8 -98.5t-12.5 -101.5t-16 -90.5t-18.5 -65t-20 -24q-12 0 -16.5 41.5t-9.5 121.5
q-3 59 -14 104.5t-33 77.5t-57 52t-87 29q-43 8 -98.5 10t-114.5 2v-1290q0 -106 12.5 -172t32 -105t43 -56t45.5 -26q15 -6 36 -10t44 -7t45.5 -4.5t40.5 -2.5q40 -2 63 -6t23 -21q0 -7 -4 -14t-15 -12.5t-31.5 -9t-53.5 -3.5q-51 0 -100 2t-99 2q-76 0 -147 -10.5
t-140 -31.5t-139 -52.5t-143 -73.5q-23 -14 -46.5 -25.5t-37.5 -11.5q-13 0 -13 13q0 11 15.5 25.5t40.5 33t57.5 43.5t67.5 57q50 47 80.5 93t48 96t25 106.5t10.5 124.5l67 1350q-47 1 -78.5 1.5t-58.5 0.5h-54.5h-64.5q-69 0 -117 -6.5t-80.5 -18.5t-50.5 -30.5
t-27.5 -43t-11.5 -54.5t-2 -66q0 -39 4.5 -80.5t11.5 -81.5t15 -75.5t16 -63.5q7 -26 13 -46t6 -34q0 -5 -2.5 -12t-11.5 -7q-13 0 -27.5 19t-28.5 50.5t-28 71.5t-26.5 82.5t-23.5 84t-20 75.5q-22 85 -32.5 157t-10.5 116q0 40 13.5 63t54.5 23z" />
    <glyph glyph-name="U" unicode="U" horiz-adv-x="1415" 
d="M848 1614q26 0 26 -21q0 -15 -13.5 -27t-47.5 -28q-18 -8 -39.5 -19t-44 -25.5t-44.5 -34t-42 -44.5q-26 -32 -45 -82t-32.5 -113.5t-20 -138.5t-6.5 -157q0 -90 6 -178.5t20.5 -168.5t38.5 -148t59.5 -118t84.5 -78t114 -28q83 0 142.5 44t98 113t57 153t18.5 165
q0 21 -0.5 56.5t-2 78.5t-5 89t-10.5 89t-18 78.5t-26 56.5t-35 38t-48.5 31t-67.5 24t-91 18q-42 6 -64 14.5t-22 30.5q0 19 17.5 26t48.5 7q29 0 63.5 -4t74 -8.5t83.5 -8.5t92 -4q44 0 88 5t84.5 10.5t76 10.5t63.5 5q35 0 47 -6t12 -17q0 -12 -14 -16t-37 -6
q-24 -2 -51.5 -4t-54.5 -9t-50.5 -21t-38.5 -40q-20 -33 -28.5 -90t-11.5 -126t-3 -143.5t-4 -142.5q-2 -40 -9 -101.5t-24 -130t-47 -137t-78.5 -123.5t-118.5 -89.5t-167 -34.5q-94 0 -171 28t-138 79t-105 121.5t-72 154.5q-17 51 -27.5 114.5t-17 133.5t-10 144
t-4.5 147q-2 63 -6 114t-13 90t-24.5 65.5t-40.5 41.5q-28 17 -57.5 24t-75.5 7q-39 0 -39 28q0 23 33 29q44 7 88.5 13t91.5 13t97 15.5t104 21.5q97 24 170 49.5t125.5 46.5t86 34.5t52.5 13.5z" />
    <glyph glyph-name="V" unicode="V" horiz-adv-x="1636" 
d="M870 1606q21 0 21 -13q0 -8 -8 -14.5t-37 -17.5q-13 -5 -33 -12.5t-42 -17t-44 -20t-39 -20.5q-18 -11 -27.5 -25.5t-9.5 -35.5q0 -20 9.5 -54t25 -76t36.5 -89.5t43 -94.5t44 -91t41 -79q22 -43 49.5 -93t55.5 -101t56 -98.5t51.5 -84t41 -58.5t26.5 -22t22.5 22.5
t30 57t34 77t32.5 83.5q12 33 26.5 79.5t27 94.5t20.5 91t8 69q0 23 -9.5 36.5t-26.5 20t-40 8.5t-51 2q-23 0 -47.5 -1t-46.5 -1q-45 0 -45 27q0 14 11 20t34 9q14 1 50.5 4t87 11t110.5 24t121 45q72 34 121.5 68.5t84 63t56.5 46.5t39 18q20 0 20 -20q0 -16 -23 -39
t-61.5 -60t-89.5 -90t-108 -129q-34 -45 -67.5 -107t-66.5 -132.5t-65.5 -147t-65.5 -149.5q-66 -147 -108.5 -252.5t-69.5 -173.5t-42 -100.5t-25 -32.5q-9 0 -24 22.5t-35 62.5t-45 96t-54 124q-14 32 -39 93t-57.5 139t-70 166.5t-77.5 175t-79.5 165.5t-75.5 137
q-39 63 -82.5 108.5t-112.5 70.5q-40 14 -76.5 19.5t-81.5 8.5t-67.5 11t-22.5 28t19 28.5t61 8.5q22 0 43 -1t43 -2t46.5 -2t53.5 -1q67 0 134.5 8.5t130 21.5t118 28.5t99.5 28.5t73.5 21.5t40.5 8.5z" />
    <glyph glyph-name="W" unicode="W" horiz-adv-x="2294" 
d="M586 1300q9 0 12.5 -5t3.5 -11q0 -12 -17 -34t-38 -51.5t-38 -63.5t-17 -68q0 -35 9 -78t22.5 -88.5t29.5 -89.5t31 -80q5 -15 18 -45.5t29 -67.5t34.5 -76t35.5 -71.5t31 -53t22 -20.5t22 17.5t32.5 49t43 74t53.5 93.5q45 79 79.5 142t59.5 107t41 67.5t25 23.5
t23.5 -15t42 -54t72 -107t114.5 -174q11 -17 31.5 -49t45.5 -71t52.5 -79.5t52 -73.5t44 -54.5t28.5 -21.5q10 0 28 26.5t39 65t42.5 81.5t37.5 77q7 15 24 52t39.5 89t49.5 115.5t53.5 130.5t51.5 134.5t44.5 127.5t31 108.5t11.5 78.5q0 26 -17 47t-48 37
q-47 24 -83.5 39.5t-62 27t-38.5 21t-13 22.5q0 11 8 17t19 6q15 0 39 -8.5t63.5 -21t99 -27.5t146.5 -27q69 -9 127 -12.5t109 -3.5q31 0 52 1t34 1q28 0 38.5 -7.5t10.5 -19.5t-8 -18.5t-19.5 -10.5t-25 -5t-25.5 -1q-52 0 -88.5 -2.5t-64 -10t-49.5 -23t-44 -40.5
q-23 -26 -53 -79.5t-64 -125t-71.5 -155.5t-75 -170.5t-74.5 -170.5t-71 -155q-21 -44 -50.5 -109.5t-62.5 -138.5t-66.5 -145.5t-63.5 -130.5t-53 -94.5t-34 -36.5q-17 0 -54.5 71.5t-99.5 204.5q-38 83 -72.5 162.5t-65 150t-55.5 129.5t-45 102t-34 67t-21 24t-24.5 -27
t-41 -69t-49.5 -93t-50 -98t-43 -85l-27 -54l-150 -284q-14 -25 -23.5 -35t-19.5 -10q-17 0 -32 36q-12 28 -26.5 65t-30 79.5t-32 88t-32.5 89.5q-29 81 -52 157.5t-45 145t-45 125.5t-51 98.5t-63.5 64.5t-81.5 23q-23 0 -44.5 -2.5t-41 -5.5t-36 -5.5t-28.5 -2.5
q-34 0 -34 25q0 14 9 20.5t23 11.5q18 6 48 11t69.5 15t88.5 27t106 46q80 40 133 77t87.5 65.5t53 45t29.5 16.5z" />
    <glyph glyph-name="X" unicode="X" horiz-adv-x="1778" 
d="M909 1577q27 0 27 -18q0 -15 -18.5 -24.5t-40 -22t-40 -33t-18.5 -58.5q0 -33 11 -73t26.5 -79.5t33.5 -75.5t32 -60q7 -15 22 -41.5t33 -58t38.5 -63.5t40 -58.5t36 -43t26.5 -16.5q12 0 29 15t37 39.5t42 56.5t44 67q18 29 34 58.5t28 57.5t19 52.5t7 44.5
q0 26 -18.5 44.5t-41.5 35.5q-17 12 -34 22.5t-31 19t-22.5 16.5t-8.5 16q0 14 15 14q12 0 30.5 -9.5t45.5 -24.5t64.5 -33t88.5 -35q56 -19 102 -28t84 -15q31 -7 44.5 -12.5t13.5 -14.5q0 -16 -27 -16q-19 0 -48.5 6t-60.5 6q-23 0 -45 -6.5t-41 -20.5q-21 -15 -50 -50.5
t-61.5 -81t-64.5 -95.5t-57 -94.5t-41 -77.5t-16 -45q0 -17 16 -56.5t42 -90.5t58 -108t63.5 -111t59.5 -98.5t45 -70.5q23 -34 44.5 -61t46.5 -50t56.5 -43t76.5 -38q25 -11 46.5 -18.5t37.5 -14t25 -12.5t9 -15q0 -8 -9.5 -14t-41.5 -6t-77 7t-103.5 15.5t-132 15.5
t-162.5 7q-40 0 -79 -1.5t-73 -3t-62.5 -2.5t-47.5 -1q-25 0 -40 4.5t-15 21.5q0 11 9.5 19t41.5 10q13 1 35.5 1t49.5 1t56 2.5t55 5.5q28 5 45 13t17 22t-10.5 39t-28.5 58t-42.5 73t-51.5 84q-34 54 -67 107t-61 94.5t-49.5 67.5t-31.5 26q-7 0 -28.5 -22.5t-51 -60
t-64.5 -86.5t-69 -103q-40 -62 -68.5 -121t-28.5 -103q0 -29 10.5 -52.5t28.5 -43.5q12 -12 27 -22t27.5 -19.5t21 -18.5t8.5 -18q0 -20 -24 -20q-18 0 -47 11t-68 27t-86 33.5t-100 30.5q-71 17 -145 21t-148 6q-34 0 -47 6t-13 18q0 13 13 20t53 7q20 0 48.5 1t61 4.5
t66.5 9.5t66 16q45 15 81 35.5t66.5 47.5t58 60t56.5 72q15 21 37 50.5t46 63.5t48 69.5t43 67.5t31 58t12 41q0 17 -15.5 55.5t-42.5 89.5t-63.5 110t-79 118t-88.5 113.5t-92 95.5q-40 35 -87.5 59t-101 38.5t-112.5 21t-121 6.5q-47 0 -47 24q0 11 9 18t34 7q35 0 73 -1
t83 -1q54 0 125 2.5t172 13.5q83 9 151 22t120 25.5t88 21.5t54 9z" />
    <glyph glyph-name="Y" unicode="Y" horiz-adv-x="1632" 
d="M733 1739q0 -10 -13.5 -18.5t-35.5 -18t-50.5 -21t-58.5 -26.5q-20 -10 -32.5 -25.5t-12.5 -38.5q0 -25 22.5 -63t55 -80t68 -83.5t61.5 -72.5q28 -34 67.5 -77t79 -82t74 -65.5t52.5 -27.5q10 -1 26.5 11.5t36.5 32.5t42 45.5t43.5 52.5t41.5 52t35 44q21 26 48 62
t51 72t40.5 68t16.5 50q0 11 -9 21t-23 19.5t-31.5 17.5t-35.5 14t-30.5 14t-12.5 20q0 10 7 14.5t18 4.5q15 0 35.5 -7t50 -17t69.5 -21t95 -19q45 -6 81.5 -9.5t66 -5t53 -1.5h44.5q48 0 48 -21q0 -24 -54 -24q-11 0 -33 1t-51 1q-21 0 -45.5 -0.5t-49 -4t-48 -10.5
t-43.5 -20q-24 -15 -50 -42.5t-53.5 -61t-56.5 -72t-57 -76.5q-29 -38 -55 -74t-49 -68.5t-41.5 -60t-30.5 -47.5q-22 -34 -36 -62t-22.5 -56.5t-12 -60.5t-3.5 -73q0 -55 1.5 -119t4.5 -130t6 -130.5t7 -121.5t7.5 -102.5t6.5 -73.5q9 -83 29.5 -130t52.5 -73
q14 -12 33 -22t36 -20t29 -20t12 -22q0 -8 -5.5 -13.5t-20.5 -5.5q-22 0 -57.5 9.5t-82.5 22t-104 25.5t-121 21q-56 6 -106 8t-92 2q-47 0 -80 -1t-50 -1q-27 0 -43 6t-16 21q0 17 18 24.5t47 12t66.5 10t75.5 17.5q26 8 43.5 22t29 33t18 41t11.5 47q6 27 13 79.5t14 120
t11.5 144t4.5 151.5q0 53 -2.5 100t-13.5 93q-7 30 -30 75t-57.5 99t-77 113.5t-88 119t-91 115.5t-86 102t-73.5 79.5t-52 48.5q-24 18 -45 30t-42.5 20.5t-45 14t-53.5 10.5q-48 6 -48 29q0 12 10.5 18.5t41.5 6.5q52 0 122 2.5t175 17.5q82 12 139.5 27t97.5 28t65 22
t42 9q20 0 20 -16z" />
    <glyph glyph-name="Z" unicode="Z" horiz-adv-x="1286" 
d="M201 -229q-4 8 -4 18q0 35 25.5 124t76.5 243q16 48 37.5 121t45.5 159.5t50 182t51 188t47 178t38.5 152.5t26 110.5t9.5 52.5q0 5 -13 9.5t-35 8t-49.5 5.5t-57.5 2t-61 -3.5t-60 -13t-55.5 -26.5t-47.5 -43q-26 -33 -40.5 -78.5t-22.5 -90t-11 -80.5t-6 -50
q-6 -41 -24 -41q-8 0 -13.5 9.5t-5.5 35.5q0 30 3.5 75t7 93.5t7 95.5t3.5 82q0 71 -4 115t-4 70q0 20 8 20q7 0 31.5 -17t75.5 -37.5t135 -37.5t210 -17q78 0 142 8t112.5 18t82 18t49.5 8t16 -17q0 -23 -18.5 -73.5t-43.5 -122.5q-23 -67 -57.5 -157.5t-75.5 -198.5
t-86 -231t-90 -253q-41 -121 -71 -208t-49 -146t-28 -92t-9 -45q0 -11 9 -13t21 -2q30 0 84.5 7t118.5 18.5t130 27t118 33.5q74 25 117.5 64.5t66 87.5t29 102t6.5 107q0 26 -2 54.5t-5 56.5t-5 52.5t-2 42.5q0 33 12 33q10 0 18.5 -20.5t18 -58.5t22.5 -93.5t31 -124.5
q20 -74 38 -136t32 -109t22 -79.5t8 -47.5q0 -17 -16 -17q-14 0 -40.5 4t-62 9.5t-78.5 9.5t-89 4q-62 0 -141.5 -9.5t-167.5 -25.5t-180.5 -36.5t-182.5 -41.5q-50 -12 -87.5 -22.5t-60.5 -10.5q-11 0 -18 2t-12 9z" />
    <glyph glyph-name="bracketleft" unicode="[" horiz-adv-x="705" 
d="M264 1667q29 0 69 -5.5t86.5 -13.5t98.5 -18t105 -20q24 -5 42.5 -13t18.5 -20q0 -14 -33 -14q-24 0 -48.5 3t-48.5 6t-45.5 6t-39.5 3q-22 0 -40 -3t-32 -15q-23 -20 -40.5 -84.5t-31 -164.5t-23 -231.5t-15.5 -287.5q-4 -83 -7.5 -168.5t-6 -169t-4 -163.5t-1.5 -153
t2 -136t6.5 -113.5t11 -87t15.5 -54.5q12 -24 32 -38.5t44.5 -22.5t52.5 -10.5t57 -2.5q10 0 22.5 0.5t25 0.5t24 0.5t19.5 0.5q42 0 59.5 -10.5t17.5 -27.5q0 -14 -17.5 -23t-49 -14t-74 -7t-92.5 -2q-47 0 -89.5 2t-68.5 5q-37 4 -74.5 10t-69.5 16.5t-55 28t-30 45.5
q-8 25 -11 72t-3 112q0 115 8 268t20 320q6 82 15 181.5t20 203.5t23 206t23 189.5t20.5 154t15.5 99.5q8 46 17 77t20 49.5t25.5 26t33.5 7.5z" />
    <glyph glyph-name="backslash" unicode="\" horiz-adv-x="711" 
d="M43 1942q18 0 34.5 -29t30.5 -69t25.5 -80.5t18.5 -63.5q4 -16 18.5 -67.5t34.5 -125.5t44.5 -163t49.5 -178.5t48 -173t42 -146.5l32.5 -110t43 -145t49.5 -166.5t51 -174t47.5 -167.5t40 -147.5t27.5 -113.5t10 -66q0 -14 -5.5 -22t-16.5 -8q-20 0 -37 35t-37 98
q-26 79 -59.5 191t-71 240t-76 263.5t-72.5 261.5q-17 61 -37.5 136.5t-42 156t-44 162.5t-43.5 157t-39 138.5t-31 107.5q-25 84 -40 145.5t-15 92.5q0 18 6 24.5t14 6.5z" />
    <glyph glyph-name="bracketright" unicode="]" horiz-adv-x="686" 
d="M489 1417q25 0 33.5 -16.5t12.5 -38.5q2 -16 7 -63.5t12 -113.5t15 -143.5t15.5 -154t13.5 -144.5t10 -114q9 -108 19 -219t18.5 -210.5t13.5 -179t5 -122.5q0 -21 -2.5 -35.5t-8 -25t-14.5 -18.5t-23 -16q-18 -10 -44 -20.5t-59.5 -24.5t-75 -31.5t-91.5 -41.5
q-40 -20 -85 -44t-87 -45.5t-75.5 -36t-49.5 -14.5q-15 0 -22 7t-7 16q0 5 2 12t15 17q17 12 56 30t83.5 43t86.5 57.5t65 73.5q15 28 24 65t13 79.5t5 91t1 100.5q0 48 -1 95.5t-2.5 90.5t-3 79.5t-2.5 62.5q-1 32 -3 93.5t-5.5 138t-7 160.5t-8 161.5t-8.5 141.5t-8 100
q-4 24 -13.5 31t-29.5 7q-17 0 -39 -3t-44.5 -7t-42.5 -7t-34 -3q-13 0 -24 4t-11 18t17.5 23.5t46.5 17.5t66.5 15.5t78.5 17.5q47 12 78.5 20t53.5 13t36.5 7.5t27.5 2.5z" />
    <glyph glyph-name="asciicircum" unicode="^" horiz-adv-x="1348" 
d="M631 1612q14 0 30.5 -21.5t44.5 -59t72 -87.5t113 -107q66 -54 129.5 -89.5t113.5 -58t80.5 -35t30.5 -21.5q0 -13 -16.5 -21t-54.5 -8q-33 0 -79 10t-97 27t-102.5 38t-94.5 44q-42 21 -76 40.5t-60.5 34.5t-44.5 24t-28 9q-8 0 -38 -14.5t-72 -36.5t-92 -48t-99 -48
t-92 -36.5t-72 -14.5q-11 0 -18 5t-7 11q0 12 18 23t50 28.5t77.5 44t100.5 70.5q75 58 123 111.5t78.5 95t48.5 66t33 24.5z" />
    <glyph glyph-name="underscore" unicode="_" horiz-adv-x="1389" 
d="M1196 -487q12 0 27.5 -1t29.5 -5.5t23.5 -13.5t9.5 -25q0 -17 -16.5 -32t-65.5 -16q-48 -2 -106.5 -3t-129 -2.5t-155 -5t-184.5 -9.5q-49 -3 -114 -8.5t-131 -11t-126 -9.5t-98 -4q-8 0 -18 0.5t-19 3.5t-15 8.5t-6 14.5q0 14 13 22.5t45 16.5q31 7 87.5 14t121.5 13.5
t131.5 12t117.5 9.5q46 3 99 7t108 7.5t109.5 6.5t103.5 5t89.5 3.5t68.5 1.5z" />
    <glyph glyph-name="grave" unicode="`" horiz-adv-x="571" 
d="M172 1935q19 0 40.5 -13t44 -35.5t45.5 -52t44 -62.5q24 -36 46 -70.5t38.5 -64.5t26.5 -54.5t10 -42.5q0 -11 -5 -19t-16 -8q-12 0 -34.5 14.5t-51 38t-60.5 53.5t-62 62q-24 24 -48.5 49t-44 49.5t-31.5 47.5t-12 43q0 34 22 49.5t48 15.5z" />
    <glyph glyph-name="a" unicode="a" horiz-adv-x="1081" 
d="M309 721q-37 0 -69.5 14t-56.5 42t-38 70t-14 99q0 62 17.5 121.5t54.5 106t94.5 74.5t138.5 28q67 0 118.5 -17.5t90.5 -47t66.5 -68.5t46.5 -81.5t31.5 -86t21.5 -82.5q5 -22 12.5 -62.5t16.5 -93.5t19 -113.5t20 -122.5t19.5 -120.5t17.5 -107t13.5 -83t8.5 -47.5
q6 -31 13.5 -63t19 -58.5t28.5 -43.5t43 -17q15 0 26 7t17.5 19t9.5 27t3 31q0 19 -1 38.5t-1 33.5q0 15 4 26t16 11q11 0 17.5 -12.5t10 -29t4.5 -33t1 -24.5q0 -35 -6 -79t-25 -85q-18 -42 -60 -69t-97 -27q-48 0 -82.5 14t-59 35t-41 45t-26.5 45q-28 54 -42.5 118.5
t-23.5 123.5q-15 -25 -45.5 -62t-75.5 -71t-104 -58t-131 -24q-80 0 -136.5 22.5t-92.5 61t-53 90t-17 109.5q0 62 23 125t75.5 114t137 83t206.5 32q28 0 54.5 -2.5t48 -5.5t37 -6t22.5 -4q-6 86 -15 172q-4 36 -8.5 76t-9.5 80.5t-11 79.5t-13 73q-16 77 -62.5 122.5
t-118.5 45.5q-39 0 -68.5 -14t-50 -36t-30.5 -49.5t-10 -54.5q0 -29 14 -48.5t34.5 -34.5t44.5 -28.5t44.5 -31t34.5 -42t14 -61.5q0 -49 -33.5 -78.5t-81.5 -29.5zM643 518q-7 3 -24.5 7.5t-41.5 9t-51.5 7.5t-54.5 3q-53 0 -98.5 -15t-78.5 -44.5t-52 -74t-19 -102.5
q0 -53 17.5 -87.5t45 -54.5t61 -28t65.5 -8q51 0 97 16t81 37t57 41t27 27q-7 67 -13 122q-3 24 -5.5 47t-5 43t-4.5 34t-3 20z" />
    <glyph glyph-name="b" unicode="b" horiz-adv-x="1192" 
d="M311 2238q1 -17 2.5 -54.5t3.5 -88t4 -109t4 -116.5t3.5 -112t3.5 -95q1 -26 3 -74.5t5.5 -113.5t7.5 -143.5t9 -163.5t11 -174t13 -175q48 59 99 97t101 59.5t97 30t86 8.5q89 0 162 -31t124.5 -86.5t80 -134t28.5 -172.5t-18 -166t-48.5 -126t-71.5 -91t-87 -61
t-95 -37t-96 -19q-50 -6 -94 -7.5t-90 -3.5t-97.5 -7t-115.5 -17q-43 -8 -91.5 -23.5t-94.5 -30.5t-85 -26.5t-63 -11.5q-12 0 -20 5t-8 18q0 21 34 30q58 17 94 38.5t56 51t27.5 69t7.5 93.5q0 23 -2 90.5t-5 163.5t-7 212.5t-9 238.5t-10 242t-9.5 222t-9 179t-8.5 113
q-5 56 -18 89.5t-32.5 51t-45.5 23t-57 5.5q-45 0 -73.5 -3t-51.5 -3q-13 0 -21 4.5t-8 14.5q0 11 7.5 17t29.5 9q30 5 66 12t72.5 19.5t72.5 31t66 46.5q28 26 47.5 55t32 57t20.5 53t14 44.5t12 31t15 11.5q11 0 14.5 -16t5.5 -44zM649 907q-45 0 -83.5 -14.5t-71 -37
t-59 -50.5t-46.5 -55q11 -137 22.5 -240.5t26.5 -175.5q9 -41 24 -77t39 -62.5t59 -42t83 -15.5q84 0 137.5 34t84.5 88.5t43 121.5t12 133q0 67 -12.5 136.5t-43.5 126.5t-83.5 93.5t-131.5 36.5z" />
    <glyph glyph-name="c" unicode="c" horiz-adv-x="897" 
d="M676 881q-32 0 -59.5 10t-47.5 30.5t-31.5 52t-11.5 73.5q0 30 -3.5 58t-14.5 50t-31.5 35.5t-54.5 13.5q-41 0 -81 -25.5t-72 -76.5t-52 -127t-20 -176q0 -122 24.5 -217.5t71 -162t113.5 -101.5t151 -35q55 0 98.5 19t72.5 51t44.5 75.5t15.5 91.5q0 51 -12.5 86
t-27 59.5t-27 41t-12.5 28.5q0 15 16 15q15 0 38.5 -16t46 -46.5t38.5 -74.5t16 -99q0 -90 -29.5 -159.5t-81.5 -117t-124 -72t-156 -24.5q-98 0 -179 37t-139.5 106.5t-91 169t-32.5 224.5q0 60 11 119t30 112.5t44 99.5t54 81q43 52 88 87.5t91.5 57t96 30.5t101.5 9
q57 0 107 -16t86.5 -45t57.5 -69.5t21 -90.5q0 -48 -13 -80.5t-34 -53t-46.5 -29.5t-49.5 -9z" />
    <glyph glyph-name="d" unicode="d" horiz-adv-x="1073" 
d="M915 2030q8 0 10.5 -14.5t2.5 -39.5q0 -78 -1.5 -168.5t-3.5 -189t-4.5 -202t-5.5 -206.5q-3 -145 -6 -283t-5 -253.5t-3.5 -201.5t-1.5 -128q0 -48 8 -79t21 -50.5t30.5 -29.5t36.5 -17q25 -9 48.5 -12.5t41.5 -5.5t28.5 -6t10.5 -15q0 -15 -21.5 -19t-45.5 -4
q-34 0 -94 5.5t-138 5.5q-38 0 -76 -4t-80.5 -8.5t-93 -8.5t-114.5 -4q-90 0 -169 22t-138 69.5t-93 123t-34 182.5q0 95 34.5 169.5t94 125.5t139 78t168.5 27q93 0 155.5 -15t100.5 -30q0 96 -2 195.5t-4.5 194t-5 178.5t-5 148t-4.5 104t-2 46q-1 15 -2.5 29.5t-5 26
t-10.5 18t-19 6.5q-15 0 -34 -6.5t-38.5 -14t-38.5 -14t-34 -6.5q-9 0 -17 3.5t-8 14.5q0 13 9.5 21t27.5 16q13 6 30 11.5t41.5 16t58.5 27t81 44.5q46 27 77.5 50t52 40t32 27t18.5 10zM725 375q0 44 -0.5 95.5t-1 105t-2 106.5t-2.5 100q-31 16 -76 26.5t-100 10.5
q-67 0 -118 -23t-86 -65t-53 -101t-18 -132q0 -78 17 -141.5t50.5 -108.5t84.5 -69.5t119 -24.5q58 0 95.5 18.5t57.5 46.5t26.5 67t6.5 89z" />
    <glyph glyph-name="e" unicode="e" horiz-adv-x="889" 
d="M819 530q14 -23 25.5 -62t11.5 -79q0 -73 -24 -130.5t-69 -97t-108.5 -60.5t-142.5 -21q-114 0 -203.5 38.5t-150.5 107.5t-93 164.5t-32 209.5q0 103 22 187t60 150t88 115t106 81t114 47.5t112 15.5q53 0 110 -14t104.5 -48t78 -89.5t30.5 -139.5q0 -73 -21.5 -128
t-56.5 -95t-79.5 -66t-91 -41.5t-91 -21.5t-78.5 -6q-49 0 -95.5 7t-72.5 15q4 -78 24.5 -150.5t58.5 -127.5t94.5 -88t132.5 -33q53 0 91.5 18t63.5 48.5t37 70.5t12 84q0 26 -3.5 54t-12.5 53q-6 15 -10 28t-4 21q0 20 18 20q9 0 21.5 -9t23.5 -28zM268 635
q26 -8 59 -13.5t83 -5.5q58 0 107 22t84 61.5t55 95.5t20 125q0 61 -13.5 102.5t-35.5 66.5t-50.5 35.5t-58.5 10.5q-38 0 -82 -23t-81.5 -80t-62 -153.5t-24.5 -243.5z" />
    <glyph glyph-name="f" unicode="f" horiz-adv-x="614" 
d="M678 2304q56 0 108 -17.5t92.5 -56t64.5 -98.5t24 -145q0 -76 -19 -138t-53 -106t-81 -68t-103 -24q-37 0 -66 11.5t-49 31t-30.5 46t-10.5 56.5q0 21 5 43t19 42t38.5 39t62.5 34q74 29 108.5 71t34.5 101q0 20 -7 45t-25 46.5t-50 36.5t-82 15q-62 0 -106.5 -32.5
t-75.5 -86t-50 -122t-29 -140t-13.5 -140t-3.5 -122.5q0 -39 1.5 -77.5t11.5 -69t31 -49.5t60 -19q31 0 63.5 6t62 12.5t54.5 12.5t42 6q28 0 28 -21q0 -14 -12.5 -22t-44.5 -14q-15 -3 -33.5 -5.5t-42.5 -5.5t-54 -8t-69 -14q-26 -6 -41.5 -15.5t-23.5 -21.5
q-10 -16 -12.5 -39.5t-2.5 -52.5q0 -8 1.5 -60t4 -132t5.5 -181t6.5 -207t7 -209.5t6.5 -188.5t5.5 -144.5t4.5 -77.5q5 -60 23.5 -99t64.5 -53q16 -5 29.5 -7.5t28 -4t31 -3.5t38.5 -5q26 -3 41 -10.5t15 -22.5q0 -20 -23 -29.5t-63 -9.5q-23 0 -62.5 1t-83.5 1
q-94 -1 -166 -18.5t-126.5 -38.5t-94 -38.5t-67.5 -17.5q-23 0 -23 19q0 12 11.5 20.5t33.5 18.5q45 18 75 38t49 47t27.5 65.5t10.5 94.5q2 47 2 116v153q0 83 -0.5 176t-1 187t-1.5 186t-2 173t-2.5 146.5t-2.5 108.5q-1 25 -5 41t-13 25t-24.5 12.5t-39.5 3.5
q-21 0 -47 -2t-51.5 -4.5t-47 -4.5t-34.5 -2q-17 0 -28 5t-11 18q0 14 12 19.5t35 8.5q37 5 72.5 8.5t84.5 12.5q42 7 66 28.5t38 52t20 68t12 78.5q12 90 29 177.5t42.5 167t59 147t78.5 116.5t101.5 77t127.5 28z" />
    <glyph glyph-name="g" unicode="g" horiz-adv-x="1163" 
d="M995 1214q51 0 92 -15.5t70 -42.5t44.5 -63t15.5 -77q0 -81 -38.5 -125.5t-103.5 -44.5q-27 0 -50 8t-40 24t-27 39t-10 52q0 32 8.5 57.5t8.5 50.5q0 34 -20 47t-46 13q-34 0 -68.5 -23t-56.5 -61q-9 -17 -15.5 -35.5t-6.5 -32.5q0 -8 9 -17.5t23.5 -21.5t33 -27.5
t36.5 -35.5q32 -35 58 -88t26 -125q0 -80 -18 -139.5t-49.5 -103t-73.5 -72t-90.5 -45.5t-101 -24t-103.5 -7h-39q-65 -11 -105.5 -41t-40.5 -78q0 -31 20 -52t53.5 -35.5t77.5 -23t91.5 -15t95 -12.5t88.5 -14q69 -14 133.5 -37t114 -61.5t79.5 -96.5t30 -141
q0 -65 -22 -121.5t-61 -104t-92 -86.5t-114 -67q-80 -37 -175 -56t-198 -19q-96 0 -180 21t-146.5 64.5t-98.5 109.5t-36 155q0 73 24 132t61.5 105.5t84 81.5t91 60t82.5 41t59 24q-35 4 -70.5 14t-64 27t-46.5 43.5t-18 63.5q0 49 42.5 83.5t119.5 53.5q-57 15 -106 43.5
t-85 70.5t-56.5 99t-20.5 129q0 89 31.5 159t85.5 118.5t127 74t157 25.5q25 0 51 -2.5t49 -6t42.5 -6t31.5 -2.5q25 0 41.5 7t30.5 30q20 32 44 64t56 57.5t74.5 41t99.5 15.5zM545 956q-38 0 -75.5 -17.5t-67 -58t-48 -105.5t-18.5 -159q0 -77 16.5 -131.5t43 -90
t59.5 -52t65 -16.5q28 0 64 13.5t68 51.5t54.5 105t22.5 174q0 142 -49.5 214t-134.5 72zM231 -369q0 -73 21.5 -136.5t63.5 -111t103 -75t140 -27.5q90 0 155 28.5t107 75t62 107t20 125.5q0 63 -16 118.5t-49 100.5t-85 78.5t-124 52.5q-47 13 -90 19.5t-78 9.5
q-35 -21 -75.5 -54.5t-75 -79t-57 -103.5t-22.5 -128z" />
    <glyph glyph-name="h" unicode="h" horiz-adv-x="1161" 
d="M459 2191q14 0 18 -8t4 -16q0 -14 -4 -37.5t-10 -62.5t-13.5 -96.5t-15.5 -139.5q-11 -115 -19.5 -232t-15 -228t-11.5 -212.5t-8.5 -186.5t-5.5 -150t-3 -103q16 47 43.5 94t66.5 85t90 61.5t113 23.5q37 0 78 -9.5t79.5 -34.5t70 -67.5t49.5 -109.5q16 -65 20 -127.5
t4 -134.5q0 -54 -2 -120t-2 -134q0 -45 8.5 -70.5t24 -38.5t37 -17t47.5 -5q10 -1 20.5 -2t19 -4t14 -9t5.5 -16q0 -11 -11 -20t-40 -9q-40 0 -87.5 9.5t-107.5 9.5q-38 0 -79.5 -8t-80 -17.5t-70.5 -17.5t-50 -8q-16 0 -19.5 5.5t-3.5 10.5q0 8 6 12.5t23 9.5q20 7 35.5 13
t28.5 14q15 9 28.5 29.5t20.5 66.5q3 25 5 58.5t3.5 71t2.5 77.5t1 80q0 66 -2 124.5t-8 96.5q-13 84 -48 133t-100 49q-31 0 -55.5 -12t-43.5 -31t-34 -43t-26 -49q-20 -43 -38 -110t-31 -144.5t-20.5 -158t-7.5 -150.5q0 -33 8 -53.5t23.5 -33t37 -19.5t48.5 -13
q14 -3 22.5 -7.5t8.5 -16.5q0 -23 -35 -23q-27 0 -65.5 6.5t-82 15t-89 15t-87.5 6.5q-55 0 -98 -5t-74 -5q-43 0 -43 27q0 11 8.5 17.5t22.5 6.5q9 0 21 -1t24 -1q36 0 62 8.5t44.5 29.5t31.5 56.5t22 89.5q6 35 13.5 107t16.5 167.5t18 208t17.5 229t16.5 230t13.5 211.5
t9 173.5t3.5 115.5q0 59 -10.5 93.5t-26.5 52.5t-35.5 23t-37.5 5t-39 -3.5t-42.5 -7.5t-42 -7.5t-38.5 -3.5q-16 0 -22.5 6.5t-6.5 17.5q0 13 8 20t25 13q24 8 52 16t60.5 19.5t69.5 28t80 41.5q49 28 80 56.5t52 51t34.5 37t28.5 14.5z" />
    <glyph glyph-name="i" unicode="i" horiz-adv-x="618" 
d="M317 1604q59 0 94 -31t35 -88q0 -38 -12 -63.5t-31 -41t-41.5 -22t-44.5 -6.5q-19 0 -40 6t-39 20.5t-29.5 38t-11.5 58.5q0 37 12 61.5t30 39.5t39 21.5t39 6.5zM459 1276q10 0 10 -23q0 -15 -3.5 -49.5t-8.5 -73.5q-8 -62 -16 -137.5t-15.5 -155t-14 -157.5
t-11.5 -144.5t-8 -117t-3 -74.5q0 -31 4 -51t10 -33t13.5 -21t15.5 -14q9 -6 22 -11t28 -9.5t30.5 -7.5t28.5 -4q21 -4 34 -6t13 -13q0 -20 -43 -20q-30 0 -60 4.5t-61.5 10.5t-65.5 10.5t-73 4.5q-36 0 -65 -2t-53 -5t-45 -5t-42 -2q-17 0 -31 4.5t-14 18.5t15.5 19.5
t31.5 8.5q20 4 39 9t34.5 15.5t26 28t13.5 45.5q4 55 6 112t3 112.5t1 108v98.5v100.5t-2 77.5q-2 51 -11.5 80t-27 43t-44.5 18.5t-65 7.5q-11 2 -17.5 7t-6.5 16q0 19 30 22q15 1 38 3.5t53.5 7.5t66.5 14.5t76 26.5q44 18 72.5 36t46.5 32.5t28 24t17 9.5z" />
    <glyph glyph-name="j" unicode="j" horiz-adv-x="752" 
d="M426 1313q25 0 47 -8.5t38.5 -24.5t26 -39.5t9.5 -52.5q0 -23 -8 -45t-24 -40t-39 -29t-54 -11q-23 0 -44.5 8t-38 23t-26.5 37t-10 51q0 35 11 60t28.5 40.5t39.5 23t44 7.5zM573 940q12 0 21.5 -8t18.5 -29.5t17.5 -58.5t18.5 -94q15 -83 26 -171.5t18.5 -177.5
t11.5 -176t4 -168q0 -203 -21.5 -362.5t-60.5 -280t-92.5 -205t-117 -137t-135 -76.5t-145.5 -24q-96 0 -165 31.5t-114 84t-66 120t-21 139.5q0 86 23.5 151t62 109t88 66t100.5 22q45 0 77 -13.5t51.5 -35t28.5 -48.5t9 -55q0 -38 -11 -65t-30.5 -46t-45 -30.5
t-54.5 -17.5q-47 -10 -82.5 -22.5t-59 -31.5t-35.5 -45.5t-12 -64.5q0 -40 18 -76t50.5 -63.5t78 -43.5t101.5 -16q111 0 188 56t125 155.5t69 237t21 299.5q0 158 -13.5 294.5t-34 247.5t-45.5 193.5t-48 132.5q-26 59 -67.5 105.5t-98.5 74.5q-40 20 -80.5 32.5
t-68.5 20.5q-29 10 -29 23q0 16 23 16q9 0 29 -2t48 -5t63.5 -5t74.5 -2q61 0 107 7t80 15.5t58.5 15.5t42.5 7z" />
    <glyph glyph-name="k" unicode="k" horiz-adv-x="1163" 
d="M352 -223q-51 0 -104 -4t-101.5 -9.5t-88.5 -9.5t-66 -4q-20 0 -27.5 7t-7.5 18q0 24 35 24q43 0 72 6.5t51 14.5q45 17 70 50t36 74t13 87t2 88q0 58 -0.5 127.5t-2 144t-2.5 150t-2.5 146t-3 132t-2.5 107.5q-1 58 -2 126t-2.5 138.5t-3 140.5t-4 131t-5.5 109.5
t-7 77.5q-6 41 -21 66t-34.5 38.5t-43 18t-47.5 4.5q-35 0 -74 -5.5t-71 -5.5q-26 0 -37.5 6.5t-11.5 20.5q0 12 9 19t21 10q52 11 95.5 22t80.5 23.5t69.5 27.5t64.5 35q35 22 59.5 46t42 43t30 31.5t23.5 12.5q14 0 18.5 -13.5t4.5 -27.5q0 -16 -1 -42.5t-2 -57.5
t-2 -62.5t-1 -56.5q0 -39 1.5 -107t4 -153.5t5.5 -182.5t6.5 -194t7 -188.5t7 -166t6.5 -126t5 -68.5q40 42 71 73t57 59.5t51.5 58t55.5 67.5q17 23 25 42t8 36q0 40 -43 62l-82 39q-20 11 -20 28q0 10 5 17.5t19 7.5q12 0 27 -8t39 -19t58 -24t83 -23q19 -4 45.5 -7
t54.5 -5.5t54.5 -4t44.5 -1.5q21 0 33 -5.5t12 -19.5q0 -11 -11 -18.5t-38 -7.5q-26 0 -51.5 -2t-50.5 -8t-50 -18t-51 -32q-16 -12 -37.5 -31.5t-43 -42t-41.5 -46t-34 -44.5q3 -22 14.5 -70.5t31.5 -109t49.5 -125t67.5 -117.5t86 -87.5t105 -34.5q53 0 85 38t32 101
q0 27 -7 52.5t-18 48.5t-26 42.5t-31 34.5q-12 12 -24.5 21.5t-12.5 15.5q0 8 11 8q12 0 33.5 -12.5t39.5 -28.5q20 -16 38.5 -38.5t33 -51.5t23 -64.5t8.5 -78.5q0 -31 -9.5 -73t-34 -80.5t-68.5 -65.5t-113 -27q-93 0 -165.5 43.5t-128 118.5t-95.5 175t-68 212l-41 -45
q2 -49 5.5 -106t8.5 -114.5t10 -112.5t9.5 -101t8.5 -79.5t7 -47.5q6 -33 15.5 -59t25.5 -44t41 -27.5t63 -9.5q17 0 36.5 1t37.5 1q13 0 26 -1.5t23 -5.5t16.5 -11t6.5 -19q0 -18 -18.5 -31.5t-73.5 -13.5q-28 0 -55.5 2.5t-63 6t-83 6t-114.5 2.5z" />
    <glyph glyph-name="l" unicode="l" horiz-adv-x="725" 
d="M442 1870v-52t0.5 -98t1 -122t2.5 -125q2 -84 7 -194t10.5 -228.5t12 -238.5t13 -224.5t11.5 -185.5t8 -123q4 -59 16 -93t33.5 -54t54 -31t78.5 -23q17 -5 22 -11t5 -14q0 -9 -7 -15.5t-26 -6.5q-9 0 -36.5 2t-64.5 5t-80.5 5t-84.5 2q-33 0 -70 -3t-72 -6t-65.5 -6
t-50.5 -3q-14 0 -27.5 5t-13.5 23q0 27 39 27q26 0 58.5 3t53.5 11q17 6 27 17t15.5 24.5t7.5 28t2 29.5q0 18 -2.5 57.5t-6.5 92.5t-9.5 117t-11.5 131.5t-12 134.5t-12 127t-10.5 109t-7.5 80q-5 46 -10 95.5t-10 97.5t-11 92t-12 80q-6 35 -20.5 54.5t-43.5 19.5
q-23 0 -53.5 -11t-61.5 -24t-58.5 -24t-43.5 -11q-11 0 -19.5 5.5t-8.5 19.5q0 19 20 32q9 7 24 14t39.5 19.5t60.5 33.5t87 56q54 37 98 78t78.5 79.5t58 70.5t35.5 51q11 15 17 24t14 9t10 -11.5t2 -23.5z" />
    <glyph glyph-name="m" unicode="m" horiz-adv-x="1450" 
d="M78 303q0 13 11.5 19.5t29 10t38.5 6t40 7.5q25 7 46 30t21 70q0 49 -4.5 103.5t-11.5 105.5t-16.5 95t-18.5 73q-11 34 -32.5 55t-67.5 21q-14 0 -26.5 -1t-20.5 -1q-19 0 -27 6.5t-8 16.5q0 14 12.5 19.5t36 10t58 12.5t79.5 27q43 18 70 35.5t43.5 31t25.5 21.5t15 8
q8 0 15.5 -27.5t13.5 -68.5t11 -90t9 -92q8 18 27.5 47.5t49.5 57.5t70.5 48.5t91.5 20.5q45 0 79.5 -14.5t58.5 -37t39 -51.5t22 -57q19 34 44 64t56 51.5t68.5 34t81.5 12.5q64 0 105 -23t64.5 -61t32.5 -86t9 -98q0 -41 -3.5 -84.5t-7 -85.5t-7 -80.5t-3.5 -69.5t5 -59
t16 -51q12 -27 29.5 -42t33 -24.5t26.5 -17.5t11 -21q0 -9 -8 -14.5t-22 -5.5q-18 0 -45 13.5t-57 32.5t-61 38.5t-57 31.5q-41 20 -74.5 30.5t-57.5 18t-37 14t-13 19.5q0 11 9 16.5t26 10.5q22 6 39 24.5t26 49.5q5 15 10 38t8.5 49.5t6 55t2.5 55.5q0 29 -3 65
t-14.5 67.5t-34 53t-61.5 21.5q-26 0 -45.5 -9t-33.5 -22.5t-23.5 -29t-15.5 -29.5q-19 -43 -27 -105t-8 -122q0 -59 20 -94.5t54 -51.5q8 -3 15 -8.5t7 -13.5q0 -21 -31 -21q-18 0 -43 5.5t-55 12t-63 12t-66 5.5q-25 0 -42.5 -2t-45.5 -2q-25 0 -39 4.5t-14 14.5q0 6 5 9
t13.5 4.5t19 3.5t21.5 7q22 9 36 31t21.5 52.5t10 68t2.5 78.5q0 29 -2.5 65t-13.5 68t-33.5 53.5t-61.5 21.5q-23 0 -41.5 -9.5t-33.5 -25.5t-25.5 -35.5t-16.5 -39.5t-15 -75t-9 -146q0 -70 10 -123t41 -76q20 -15 42.5 -21t42 -10t32 -8.5t12.5 -15.5q0 -8 -10.5 -13.5
t-38.5 -5.5q-16 0 -42.5 3.5t-57 8t-62 8t-57.5 3.5q-27 0 -50 -1.5t-46 -3.5t-47 -3.5t-52 -1.5q-21 0 -33.5 2.5t-18.5 6.5t-7.5 8t-1.5 7z" />
    <glyph glyph-name="n" unicode="n" horiz-adv-x="1198" 
d="M344 1288q8 0 16 -25.5t16 -66.5t16 -94.5t16 -108.5l36 -252q5 33 17.5 76t33.5 89t51 90t69.5 79t89 56.5t110.5 21.5q75 0 130 -28.5t91 -79t53 -120.5t17 -153q0 -75 -8.5 -150.5t-18 -148.5t-18 -141t-8.5 -127q0 -35 6 -61t18 -48q14 -21 34.5 -36.5t39 -29t32 -27
t13.5 -28.5q0 -9 -5 -15.5t-17 -6.5q-18 0 -39.5 13.5t-53 34t-75.5 44t-107 43.5q-47 16 -94.5 25t-110.5 12q-35 3 -35 20q0 19 23 19h39t51 2q40 3 66 24.5t39 79.5q4 23 8 58.5t7 76t5 82.5t2 80q0 34 -1 78.5t-6.5 92.5t-17 94t-33.5 82t-56 58.5t-83 22.5
q-42 0 -76.5 -21t-61.5 -58.5t-46 -88.5t-29 -112q-11 -62 -14.5 -127.5t-3.5 -130.5q0 -55 4 -105.5t11 -93t17 -75.5t23 -52q19 -26 41 -39t37 -18q20 -6 28.5 -10.5t8.5 -12.5q0 -6 -9.5 -11t-31.5 -5q-21 0 -46 3.5t-52 7.5t-56 7.5t-57 3.5t-57 -2t-55.5 -4t-48.5 -4
t-35 -2q-39 0 -39 25q0 9 6.5 15.5t23.5 8.5q14 1 25 2t22.5 1.5t24 1.5t29.5 3q32 5 43.5 23.5t11.5 50.5q0 55 -9.5 134t-25.5 174t-38.5 201.5t-47.5 217.5q-12 57 -27.5 85t-44.5 28q-15 0 -31 -5.5t-31.5 -12t-29.5 -12t-26 -5.5q-19 0 -19 16q0 13 10.5 18.5
t22.5 10.5q28 11 60.5 28t70.5 46q37 29 66 62t50 61t34 46.5t20 18.5z" />
    <glyph glyph-name="o" unicode="o" horiz-adv-x="1032" 
d="M43 614q0 112 35 202.5t99 154.5t154.5 98.5t200.5 34.5q99 0 182.5 -33t144.5 -94.5t95.5 -149t34.5 -196.5q0 -129 -42.5 -221t-109 -151t-148.5 -86.5t-161 -27.5q-95 0 -182.5 31.5t-154.5 91.5t-107.5 147.5t-40.5 198.5zM518 1065q-57 0 -98.5 -28.5t-68.5 -77
t-39.5 -113t-12.5 -135.5q0 -59 7 -119t21.5 -115.5t36 -104t51.5 -84.5t68.5 -56.5t85.5 -20.5q61 0 102.5 27.5t66.5 72t35.5 100t10.5 111.5q0 138 -20 240t-56 169.5t-84.5 100.5t-105.5 33z" />
    <glyph glyph-name="p" unicode="p" horiz-adv-x="1044" 
d="M430 1044q0 -14 -1 -45t-1 -73q0 -24 0.5 -38t0.5 -27t0.5 -30t0.5 -47q32 44 74 79q18 15 40 29t48.5 25t56 18t62.5 7q72 0 128 -26t94.5 -72.5t58.5 -111t20 -142.5q0 -117 -31 -210t-84 -158.5t-124 -100.5t-152 -35q-29 0 -54.5 5t-47.5 13t-40.5 17.5t-32.5 17.5
q-1 -41 -1.5 -72.5t-0.5 -61.5v-62v-74q0 -68 1.5 -150t7 -160.5t15.5 -143.5t28 -97q17 -31 42 -49t50 -29q31 -14 54.5 -28t23.5 -29q0 -11 -7 -18t-24 -7q-27 0 -75.5 8.5t-105 18.5t-112.5 18.5t-98 8.5q-45 0 -75 -3.5t-63 -3.5q-44 0 -59.5 5.5t-15.5 13.5q0 9 10 12
t27 6t38 9.5t44 21.5q24 17 38.5 42.5t22.5 56.5t11 64.5t5 65.5q2 25 4 76.5t4 120t4.5 149.5t4.5 167t4 171.5t3 162.5t2 141.5t1 107.5q0 64 -3.5 105.5t-11.5 66t-21 34t-32 9.5q-15 0 -31.5 -6t-33 -12.5t-30.5 -12.5t-23 -6q-17 0 -17 17q0 6 6 14t31 20q16 9 38 18.5
t47.5 22t53 30t54.5 42.5q36 33 58.5 59t37 43.5t23 27t16.5 9.5q9 0 11.5 -10.5t2.5 -24.5zM614 844q-43 0 -74.5 -20t-53.5 -53t-35.5 -75t-21.5 -86.5t-10.5 -87t-2.5 -76.5q0 -53 7.5 -106.5t27 -96t53.5 -69.5t86 -27q41 0 78.5 21t66 67.5t45.5 122t17 183.5
q0 66 -10 121.5t-32 96t-57 63t-84 22.5z" />
    <glyph glyph-name="q" unicode="q" horiz-adv-x="1036" 
d="M389 1014q58 0 103 -10.5t78 -25.5t54.5 -30t32.5 -24q2 14 2.5 31t2 33t4.5 29t10 19q6 6 17.5 8.5t25.5 2.5q18 0 41 -2.5t51 -2.5q59 0 104 6.5t68 6.5t23 -11q0 -12 -29 -20.5t-68 -19.5q-23 -6 -37 -18.5t-22.5 -31.5t-11.5 -44.5t-4 -57.5q-1 -6 -1 -40t-0.5 -89.5
t-0.5 -128t-0.5 -156.5t-0.5 -175.5v-184v-182v-170.5v-125t0.5 -104t1 -77.5t1.5 -46.5q1 -35 11 -68.5t44 -58.5q31 -23 65.5 -37t57.5 -22q12 -5 19 -9.5t7 -15.5q0 -9 -6 -15.5t-18 -6.5q-32 0 -75.5 13t-90.5 29.5t-93 33t-83 24.5q-28 6 -62 11.5t-69 9.5t-67 6t-56 2
q-38 0 -49 6.5t-11 15.5q0 25 45 25q11 0 30 -0.5t39 -0.5t39 -0.5t30 -0.5q27 0 43.5 9.5t25 26.5t11.5 40t4 51q1 27 2.5 84.5t3.5 132.5t3.5 161.5t3 172t2.5 163.5t1 136v69.5t-2 38.5q-23 -21 -54.5 -38t-68 -29t-75.5 -18.5t-76 -6.5q-30 0 -66 6t-73.5 21t-72.5 40.5
t-62 64t-43.5 92t-16.5 124.5q0 82 27.5 148.5t76 113t114 72t140.5 25.5zM481 932q-47 0 -87 -16t-69.5 -48t-46 -81t-16.5 -115q0 -86 21 -141.5t54.5 -87.5t75 -45t81.5 -13q30 0 57.5 9t48.5 26t34 42.5t15 57.5q1 19 2.5 45.5t2 55.5t1 58.5t0.5 55.5v48.5t-2 29.5
q-3 21 -16.5 42t-35.5 38t-52.5 28t-67.5 11z" />
    <glyph glyph-name="r" unicode="r" horiz-adv-x="848" 
d="M381 1276q0 -12 -1 -33.5t-1 -44.5q0 -29 3.5 -61.5t9 -60t11 -46t9.5 -18.5t11.5 29t22 73t37.5 94.5t59 94.5t86.5 73t119.5 29q64 0 107.5 -22t69.5 -55t37 -71.5t11 -72.5q0 -53 -14 -92.5t-37.5 -65.5t-53.5 -39.5t-61 -13.5q-57 0 -93 27t-36 79q0 28 7.5 48t20 34
t30 23.5t38.5 15.5q43 13 58.5 32t15.5 44q0 15 -5.5 29t-18 25.5t-32 18.5t-47.5 7q-57 0 -100 -26.5t-75 -71t-53 -102.5t-34 -121.5t-18.5 -128t-5.5 -120.5q0 -51 4 -110.5t10.5 -119.5t14.5 -117t15.5 -104t13.5 -81t9 -47q11 -45 34.5 -62.5t62.5 -17.5q17 0 35.5 1
t27.5 1q27 0 27 -20q0 -16 -15 -21q-12 -5 -42.5 -6t-71 -2t-87.5 -3t-91 -7q-49 -6 -95 -16.5t-85 -20t-69 -16.5t-48 -7q-19 0 -26 8t-7 17q0 15 12.5 21.5t34.5 13.5q17 5 40.5 10.5t55.5 19.5t44.5 37.5t12.5 71.5q0 15 -2 50.5t-5.5 84.5t-8 107.5t-9.5 120
t-10.5 122.5t-10.5 114.5t-9.5 95.5t-7.5 67q-4 30 -12 47.5t-19 26.5t-25.5 11.5t-31.5 2.5h-41q-5 0 -12.5 0.5t-14.5 3t-11.5 7.5t-4.5 13q0 11 9 16t22 7q50 6 90.5 17t79.5 40q24 19 50.5 50.5t43.5 66.5q12 25 26 25q13 0 16 -10t3 -19z" />
    <glyph glyph-name="s" unicode="s" horiz-adv-x="989" 
d="M598 1282q41 0 69.5 -4t49 -9.5t35.5 -9.5t30 -4q17 0 26.5 18t18.5 44q13 35 31 35q16 0 20.5 -10t4.5 -19q0 -12 -2.5 -24.5t-7.5 -32.5t-11.5 -50t-13.5 -75q-6 -37 -9.5 -64t-5 -48t-3.5 -38t-5 -35q-6 -38 -26 -38q-13 0 -17 12.5t-4 27.5v78q0 59 -13.5 99t-37 64
t-56 34t-69.5 10q-33 0 -63.5 -11t-53.5 -32.5t-37 -52.5t-14 -70q0 -51 24 -99t63 -94t88.5 -92.5t102 -95.5t102 -102t88.5 -112.5t63 -126.5t24 -144q0 -103 -32 -182.5t-86 -133.5t-126 -82t-153 -28q-56 0 -104.5 12t-89 31t-72.5 43.5t-54 48.5q-41 46 -70 70t-63 24
q-18 0 -39 -13t-41.5 -28t-38.5 -28t-30 -13q-11 0 -16 6.5t-5 12.5q0 12 15 26q6 6 23.5 22t43.5 42t58.5 64t68.5 88q34 47 56 88.5t38 72t28.5 48.5t27.5 18t19.5 -9t4.5 -20q0 -15 -11 -39t-23.5 -58t-23.5 -79t-11 -102q0 -33 13 -77t42 -83t76.5 -66.5t115.5 -27.5
q54 0 97.5 20t74.5 56.5t47.5 87t16.5 112.5q0 79 -37 152.5t-93 144t-121 138.5t-121 135.5t-93 135.5t-37 138q0 78 29 135.5t76.5 94.5t107 55t121.5 18z" />
    <glyph glyph-name="t" unicode="t" horiz-adv-x="889" 
d="M45 1083q23 8 60.5 15.5t72.5 15.5q71 17 118 46t79.5 71.5t55.5 98t46 126.5q20 62 40.5 87.5t45.5 25.5q23 0 32 -17t9 -45q0 -27 -9 -69.5t-20.5 -89.5t-20.5 -92.5t-9 -79.5q0 -16 6.5 -28.5t26.5 -12.5q12 0 29 2t36 4t39.5 4t38.5 2q43 0 43 -27q0 -14 -11 -20
t-30 -6q-14 0 -34 -1t-43 -4.5t-46 -9.5t-43 -16q-28 -14 -45.5 -35t-28.5 -43q-17 -35 -36 -96t-35 -135.5t-26.5 -156t-10.5 -157.5q0 -107 18 -183.5t50 -126.5t76 -73.5t95 -23.5q40 0 68 11.5t46 30t26 41t8 44.5q0 27 -14.5 45.5t-32.5 35.5t-32.5 37t-14.5 52
q0 40 25.5 67t70.5 27q20 0 38.5 -7t33 -23t23.5 -40.5t9 -58.5q0 -59 -18 -117.5t-57 -105t-101 -76t-151 -29.5q-100 0 -180 41.5t-128 112.5q-43 66 -63 149.5t-20 169.5q0 100 15 193.5t33 170t33 132t15 80.5q0 18 -10 22t-27 4q-10 0 -27.5 -1t-38.5 -2t-44 -2t-44 -1
q-37 0 -37 21q0 17 27 26z" />
    <glyph glyph-name="u" unicode="u" horiz-adv-x="1524" 
d="M412 1112q6 0 11 -9t11 -46q14 -84 24 -152t21 -125q24 -131 47.5 -234t55.5 -174t78.5 -108t117.5 -37q51 0 89 23.5t64.5 63t43.5 90.5t26.5 105.5t13 109t3.5 100.5q0 43 -2 85t-14 75.5t-37.5 54t-73.5 20.5q-29 0 -59 -5t-58 -5q-14 0 -23.5 6t-9.5 19q0 15 11 20.5
t28 7.5q18 1 42 3t52.5 6.5t60.5 12t66 21.5q28 12 53.5 28t46 30.5t36 24.5t24.5 10q11 0 14.5 -17.5t6.5 -48.5q4 -42 8.5 -110t11 -150t15 -171.5t20.5 -176.5q6 -46 17 -74.5t26 -44.5t33.5 -21.5t40.5 -5.5q45 0 82.5 7.5t56.5 7.5t25 -7t6 -16t-6 -17.5t-25 -13.5
q-28 -6 -77 -11.5t-116 -14.5q-54 -8 -92.5 -17.5t-60.5 -9.5t-33.5 10t-17.5 39t-12 63.5t-11.5 69.5l-11 70t-10.5 66q-8 -54 -20 -112t-31.5 -113.5t-47 -105t-66.5 -86.5t-90.5 -59t-117.5 -22q-108 0 -184.5 57.5t-116.5 163.5q-23 58 -37 123t-23 127t-14.5 115.5
t-11.5 89.5q-6 37 -15.5 61.5t-21.5 38.5t-26.5 19.5t-30.5 5.5t-34.5 -4.5t-37 -10t-35.5 -10t-31 -4.5q-9 0 -18.5 5.5t-9.5 21.5q0 18 16 24.5t41 14.5q31 9 73.5 27t90.5 50q40 27 66.5 54.5t44 50t29 37t20.5 14.5z" />
    <glyph glyph-name="v" unicode="v" horiz-adv-x="1229" 
d="M569 1182q0 -11 -8.5 -18t-23.5 -19q-19 -14 -33.5 -31.5t-14.5 -46.5q0 -26 10.5 -72t28.5 -103t41 -121.5t47 -129t48 -125t44 -108.5t34 -81t18 -42q14 -33 28 -33q8 0 13 7t8 15t13.5 43t24.5 85t30 109t29 115t21.5 103t8.5 74q0 16 -3.5 26.5t-10 17t-14.5 10
t-17 5.5q-12 3 -31.5 4.5t-37.5 4.5t-31 8.5t-13 17.5q0 14 14 17.5t29 3.5q16 0 56 -4.5t108 -4.5q20 0 47 3.5t54.5 8t52 8t39.5 3.5t27 -3t12 -14q0 -8 -9 -13.5t-23 -10t-31.5 -7.5t-35.5 -7q-22 -5 -37 -13.5t-25 -19.5t-17 -24t-13 -27q-14 -36 -26.5 -73.5
t-27.5 -85.5t-34 -109.5t-45 -145.5q-6 -18 -18 -56.5t-28 -86.5t-33.5 -99t-34.5 -93.5t-31 -69.5t-23 -27q-10 0 -31.5 34t-51.5 90.5t-65.5 130.5t-73 155t-75 163t-70 154.5t-59 129.5t-41.5 89q-12 26 -25 42t-26.5 25t-27.5 12t-27 3q-15 0 -32 -5t-32.5 -11.5
t-30 -11.5t-24.5 -5q-8 0 -15.5 5t-7.5 16q0 13 15 20q15 8 47 19t72.5 25t84.5 30.5t84 34.5q49 22 85.5 42t64.5 35t48 24t36 9q12 0 17 -6t5 -14z" />
    <glyph glyph-name="w" unicode="w" horiz-adv-x="1526" 
d="M553 991q0 -8 -8.5 -15.5t-20 -14.5t-24 -14.5t-21.5 -14.5q-17 -16 -22.5 -35t-5.5 -39q0 -23 10 -72t26 -108.5t34.5 -122.5t35.5 -115t30 -85t17 -33q5 0 19 31t34 80t43.5 110.5t47 122.5t45.5 115t38 89q7 14 14 22.5t15 8.5q9 0 16 -8.5t15 -22.5
q17 -32 40.5 -77.5t49.5 -95.5t52 -99.5t48 -89t37.5 -64t20.5 -24.5q4 0 14.5 30.5t22.5 77.5t25.5 104t24.5 109t18 92.5t7 55.5q0 18 -6.5 26.5t-23.5 8.5q-14 0 -33 -3t-39 -3q-12 0 -17.5 5t-5.5 11q0 8 4.5 12t10.5 6q17 5 60.5 6.5t111.5 14.5q71 12 116 27.5
t70 15.5q23 0 23 -17q0 -14 -17 -20q-15 -6 -38.5 -12.5t-51.5 -16.5q-21 -7 -35.5 -16t-25 -21.5t-18.5 -30.5t-15 -42q-7 -22 -18 -64t-25 -96t-31 -115.5t-34.5 -123t-35.5 -118t-35.5 -99.5t-33 -69t-27.5 -26q-13 0 -33 20.5t-43.5 53.5t-50 75.5t-51.5 86.5
q-60 104 -127 237q-2 -7 -12.5 -35.5t-25 -68t-31.5 -85t-32.5 -86.5t-28 -73t-17.5 -45q-16 -42 -34.5 -86.5t-36.5 -82t-33 -61.5t-25 -24t-27 29t-38 77t-44.5 110.5t-47.5 130t-47 134t-42 123.5t-33.5 99t-21.5 59q-13 31 -32 42t-42 11q-25 0 -47.5 -6t-40.5 -6
q-9 0 -18 5t-9 17q0 17 13 24t34 13q18 4 46.5 11t62.5 16.5t70.5 21.5t68.5 27q51 23 89 44t65 37.5t45.5 26t30.5 9.5q8 0 13 -4.5t5 -14.5z" />
    <glyph glyph-name="x" unicode="x" horiz-adv-x="1124" 
d="M14 1141q14 0 31.5 -1t40.5 -1q38 0 96.5 2.5t141.5 19.5q74 15 130 32.5t96.5 33.5t68 26.5t45.5 10.5q12 0 16 -4.5t4 -10.5q0 -11 -12.5 -16t-26.5 -8q-19 -6 -38.5 -13.5t-35.5 -20.5t-26 -33t-10 -50q0 -45 12 -90.5t24 -79.5q6 -18 19.5 -52.5t28.5 -69t27.5 -60
t17.5 -25.5q2 0 12 11.5t23.5 29t29.5 38t30 39t24 32t12 16.5q6 11 14 25.5t8 29.5q0 14 -8 26.5t-31 20.5q-20 7 -38.5 9.5t-32.5 5.5q-27 6 -27 26q0 11 6.5 16t15.5 5q14 0 35.5 -3.5t48.5 -7.5t58 -8.5t63 -5.5q25 -2 45.5 -2h38.5q48 0 77.5 3t53.5 3q14 0 23.5 -4.5
t9.5 -15.5q0 -26 -51 -29q-35 -2 -62 -5t-49 -9q-31 -9 -67 -32t-76 -73q-47 -58 -80.5 -102.5t-48.5 -69.5q-8 -14 -12 -27.5t-4 -29.5q0 -11 2.5 -24t5.5 -27q5 -19 14.5 -46.5t21 -58.5t24 -62.5t23.5 -58t19 -46.5t12 -27q13 -26 30 -42.5t37.5 -27t43.5 -15.5t47 -9
q54 -8 75 -13.5t21 -19.5q0 -16 -22.5 -21.5t-63.5 -5.5q-18 0 -41 1t-51 1q-29 0 -62.5 -2t-70.5 -8q-38 -6 -76.5 -19.5t-73 -27t-62 -23.5t-44.5 -10q-20 0 -27.5 10t-7.5 19q0 17 11 25.5t26 13.5q17 5 40.5 10.5t45 13t36.5 17t15 22.5q0 16 -11 45t-25 58.5t-27.5 54
t-18.5 31.5q-9 18 -28 18q-6 0 -13.5 -3t-15.5 -11q-7 -7 -21 -25t-29.5 -38t-29 -37.5t-18.5 -24.5q-2 -3 -6 -8.5t-8 -12t-6.5 -12t-2.5 -8.5q0 -5 6 -7t14 -3.5t16 -2t13 -1.5q13 -2 21 -5t8 -12q0 -8 -8 -12t-19 -4q-24 0 -47 2t-55 2q-25 0 -56.5 -4t-62.5 -8.5
t-56.5 -8.5t-37.5 -4q-11 0 -17 5.5t-6 13.5q0 19 27 22q15 1 36 5t44.5 10.5t45.5 14.5t38 19q25 17 50.5 39.5t49 47.5t44.5 51t36 49t24 42.5t9 31.5q0 11 -1.5 18t-6.5 18q-9 21 -25 54.5t-35.5 73.5t-41 83l-41 82t-36.5 71.5t-28 51.5q-9 15 -21.5 32t-28.5 34
t-34.5 32.5t-38.5 26.5q-34 19 -72 24t-75 5q-35 0 -35 22q0 8 5 14.5t19 6.5z" />
    <glyph glyph-name="y" unicode="y" horiz-adv-x="1350" 
d="M592 1098q8 0 14 -4t6 -15q0 -14 -14 -24q-12 -10 -38 -25t-68 -47q-26 -19 -40.5 -42t-21.5 -50t-8.5 -59.5t-1.5 -69.5q1 -75 10 -147t23 -134.5t31 -113t34 -84.5q35 -72 87 -115t126 -43q52 0 90.5 25t65.5 65.5t44 92t27 104.5t13.5 103t3.5 87q0 99 -16 151t-48 72
q-13 9 -30 15t-34 10.5t-32 8t-24 5.5q-22 5 -30.5 13t-8.5 22t9.5 22.5t24.5 8.5q29 0 78 -5t115 -5q36 0 79.5 4.5t84.5 11t75 14t52 13.5q14 5 23 6.5t14 1.5q12 0 20 -6t8 -17t-4.5 -17.5t-13.5 -12.5q-23 -16 -45 -29.5t-33 -38.5q-9 -21 -14 -51t-8.5 -73.5t-7 -103.5
t-9.5 -143q-7 -91 -19 -195t-31.5 -216.5t-48.5 -232.5t-69 -243q-41 -124 -95 -222.5t-121 -167.5t-145 -105.5t-165 -36.5q-62 0 -113 19t-87.5 53.5t-56.5 82.5t-20 107q0 63 18.5 115.5t51 91t77 59.5t97.5 21q43 0 75.5 -14t54.5 -37t33 -52.5t11 -60.5
q0 -27 -8.5 -50.5t-24.5 -41t-39.5 -27.5t-52.5 -10q-34 0 -55.5 11t-35.5 27t-23 35.5t-17 35.5t-17 27t-24 11q-16 0 -29 -12t-22.5 -31.5t-14.5 -44t-5 -49.5q0 -48 17 -88t47.5 -68t72.5 -43.5t92 -15.5q84 0 147.5 38t110.5 96t79.5 127.5t52.5 132.5t29.5 110.5
l12.5 62.5q28 177 36.5 306t8.5 204q0 25 -0.5 43.5t-1.5 31.5q-1 15 -2 26q-7 -21 -17 -44q-8 -20 -19 -44.5t-25 -48.5q-18 -31 -45.5 -60.5t-64 -53t-81 -38t-96.5 -14.5q-89 0 -154 37t-112 99t-78.5 142.5t-53 167.5t-37 174t-30.5 162q-6 31 -18 41t-29 10
q-19 0 -39 -4t-31 -4q-9 0 -14.5 5t-5.5 13q0 17 20 23q45 12 80.5 23t65 22t55.5 22.5t53 24.5q62 30 108 58t80 49t57.5 34t41.5 13z" />
    <glyph glyph-name="z" unicode="z" horiz-adv-x="944" 
d="M113 1151q21 0 54 -7t77 -17t98 -19.5t117 -13.5q62 -5 107.5 -7t80.5 -2t65 1t64 1q26 0 35.5 -9t9.5 -23q0 -11 -4.5 -23l-7.5 -20q-2 -4 -19.5 -41t-45 -95t-62 -131.5t-71 -150.5t-71.5 -151.5t-63 -135t-47 -101t-22 -48.5q-2 -5 -3.5 -10.5t-1.5 -8.5q0 -14 14 -16
t29 -2q30 0 75 3.5t91.5 9.5t88.5 13.5t67 16.5q34 12 56.5 32.5t36.5 44.5t21.5 50t12.5 51q3 13 6 30t7 32t9.5 25.5t12.5 10.5q10 0 12 -23t2 -50q0 -14 -0.5 -43.5t-1 -62.5t-2 -64t-2.5 -47q-3 -42 -13 -63t-38 -21q-54 0 -121.5 3t-138.5 3q-39 0 -81.5 -0.5
t-90.5 -3.5q-80 -5 -138.5 -12.5t-102 -15t-74.5 -12.5t-56 -5q-22 0 -30.5 6.5t-8.5 17.5q0 17 16 43q111 178 198 324t153 262.5t112 205t74 150.5q-25 4 -54.5 7.5t-61 6t-63 4t-59.5 1.5q-26 0 -48 -1.5t-38 -5.5q-34 -6 -59.5 -26.5t-45 -53.5t-35 -78.5t-28.5 -101.5
l-10 -48t-10.5 -44t-12.5 -32.5t-16 -12.5q-6 0 -11 7.5t-5 27.5q0 7 1.5 32.5t4 57.5t4.5 65t4 54l11 203q2 34 13 45.5t34 11.5z" />
    <glyph glyph-name="braceleft" unicode="{" horiz-adv-x="944" 
d="M676 1956q57 0 100.5 -14t73 -33t44.5 -38.5t15 -31.5q0 -14 -14 -14q-15 0 -31.5 12t-39.5 26t-54.5 26t-75.5 12q-77 0 -112 -51.5t-35 -145.5q0 -65 15 -137.5t33 -148.5t33 -153t15 -149q0 -79 -25 -145q-22 -59 -60 -100.5t-82 -69.5t-88.5 -44.5t-80.5 -26.5
t-59 -14.5t-23 -8.5q0 -6 20 -15.5t51 -24.5t68 -37t72 -52q54 -48 87 -108t51 -127.5t24 -140.5t6 -145q0 -40 -1 -79.5t-1 -77.5q0 -80 5.5 -152.5t21.5 -127.5t45.5 -87.5t77.5 -32.5q38 0 61.5 16t37.5 40.5t20 53t9 53t5.5 40.5t9.5 16q14 0 19.5 -24t5.5 -62
q0 -71 -16.5 -121.5t-47 -83t-73.5 -48t-95 -15.5q-86 0 -146 26t-98 76.5t-55.5 123t-17.5 165.5q0 60 3.5 132.5t8 143t8.5 132.5t4 102q0 45 -6 90t-21.5 87.5t-43.5 81t-72 71.5t-85.5 52t-74 31.5t-52.5 22t-20 23.5q0 9 11.5 16.5t28 13t36 9.5t35.5 8
q61 15 111.5 41.5t86 67t55 96.5t19.5 129q0 48 -6.5 100.5t-14 108.5t-14 114t-6.5 117q0 72 16.5 145.5t53.5 132t97 95.5t147 37z" />
    <glyph glyph-name="bar" unicode="|" horiz-adv-x="754" 
d="M346 1786q8 0 14.5 -4t11 -14.5t7 -28.5t2.5 -47q0 -17 0.5 -63.5t2 -114.5t3.5 -153t4.5 -177.5t5 -189t6.5 -187.5q2 -49 5 -123t6 -159.5t6 -175.5t6 -171t5.5 -147t4.5 -103q1 -26 3 -56t3.5 -60t2.5 -58t1 -51q0 -51 -7 -74.5t-21 -23.5q-7 0 -13 5t-11 20.5t-9 45
t-6 78.5l-45 1047q-1 28 -2.5 79t-3.5 115.5t-4.5 138t-4.5 147t-4 142.5t-3 123.5t-2 90.5t-1 44q0 56 8.5 80.5t28.5 24.5z" />
    <glyph glyph-name="braceright" unicode="}" horiz-adv-x="975" 
d="M43 1366q-12 0 -17.5 8t-5.5 21q0 30 20.5 74t61 85t99.5 70t137 29q94 0 160.5 -28.5t108 -80.5t60.5 -123.5t19 -158.5q0 -27 -1 -61t-2 -68.5t-2 -66.5t-1 -56q0 -42 5 -78t19 -62.5t40.5 -41.5t68.5 -15q31 0 61.5 4t49.5 4q14 0 22 -3.5t8 -12.5q0 -10 -11 -18.5
t-27.5 -19t-36 -24t-36 -34t-27.5 -49.5t-11 -70q0 -60 20 -132t44.5 -152t44.5 -168t20 -179q0 -106 -39 -194.5t-106 -152t-157 -99t-192 -35.5q-26 0 -36.5 8t-10.5 20q0 16 17 22t39 9q18 2 47.5 8t62 15.5t63.5 24t54 34.5q24 21 37.5 45.5t20.5 52.5t9 58.5t2 64.5
q0 81 -18 169.5t-40 174t-40 164t-18 141.5q0 64 24 109t53.5 74.5t53.5 45.5t24 21q0 3 -14 5t-37 6t-53 11.5t-61 22.5t-61 38t-54 59q-37 54 -53.5 122.5t-25 140t-15 140.5t-22 122.5t-45.5 86.5t-87 33q-34 0 -59 -12t-44.5 -29.5t-34.5 -38.5l-27.5 -38.5t-23.5 -29.5
t-24 -12z" />
    <glyph glyph-name="asciitilde" unicode="~" horiz-adv-x="1503" 
d="M479 655q53 0 100 -10.5t91 -26t87 -34t89 -34t96.5 -26t110.5 -10.5q44 0 83 16.5t72 41.5t60 53.5t48.5 53.5t37.5 41.5t26 16.5q21 0 21 -28q0 -15 -9.5 -47.5t-30 -73.5t-53 -85t-77.5 -80t-103.5 -59.5t-132.5 -23.5q-58 0 -113.5 14t-109 35t-104.5 46t-100.5 46
t-96.5 35t-92 14q-36 0 -67 -12.5t-58 -31t-49 -40.5t-39.5 -40.5t-31 -31t-21.5 -12.5q-3 0 -7 2.5t-4 10.5q0 15 18.5 47t65.5 88q25 30 56 56.5t67 46t78.5 31t91.5 11.5z" />
    <glyph glyph-name="nonbreakingspace" unicode="&#xa0;" horiz-adv-x="553" 
 />
    <glyph glyph-name="exclamdown" unicode="&#xa1;" horiz-adv-x="506" 
d="M238 1419q15 0 26 -13.5t19 -43t15.5 -74.5t16.5 -108q6 -42 15 -117.5t18.5 -171.5t19 -205t17 -218t12 -211.5t4.5 -184.5q0 -64 -6.5 -120t-23.5 -98t-46.5 -66t-76.5 -24q-29 0 -53.5 13t-42 40.5t-27.5 70.5t-10 104q0 94 13.5 224t30 283t30 322t14.5 340
q0 72 1 121t5 79.5t10.5 44t18.5 13.5zM236 1946q28 0 52.5 -9t42.5 -26t28 -40.5t10 -53.5q0 -66 -38 -105t-100 -39q-21 0 -43.5 7t-41.5 22.5t-31.5 42t-12.5 65.5q0 36 12 61.5t31 42t43 24.5t48 8z" />
    <glyph glyph-name="cent" unicode="&#xa2;" horiz-adv-x="1638" 
d="M653 1348q13 0 18.5 -14t10.5 -31q2 -9 7 -29t11.5 -48.5t14.5 -64t16 -74.5q37 13 75 20t79 7q106 0 180.5 -34t121.5 -86.5t68 -114.5t21 -119q0 -97 -42.5 -145t-105.5 -48q-30 0 -53 10.5t-38.5 27.5t-23 38.5t-7.5 44.5q0 42 13.5 72t29.5 55t29.5 48t13.5 50
q0 33 -13.5 62t-39.5 50t-64 33.5t-86 12.5q-42 0 -77.5 -11.5t-66.5 -31.5l232 -958q67 7 114.5 36.5t78.5 64.5t47.5 68t23.5 48q6 14 13 28.5t20 14.5q8 0 13 -7t5 -24q0 -14 -7 -40t-21.5 -58.5t-37 -68.5t-53.5 -70t-72 -63.5t-91 -47.5q16 -56 35 -113.5t35 -108
t27 -87.5t11 -52q0 -8 -3.5 -18t-18.5 -10q-13 0 -24 11.5t-21 31t-19.5 46t-19.5 56.5q-19 56 -35 116t-29 109q-20 -3 -41.5 -5.5t-44.5 -2.5q-126 0 -224.5 42t-166 115.5t-102.5 172t-35 211.5q0 103 26 197.5t72.5 173t110.5 138.5t141 95q-22 88 -34.5 155t-12.5 95
q0 29 16 29zM561 569q0 -104 22 -194t66 -157t110 -107t154 -43l-204 929q-39 -36 -67 -84.5t-46 -104t-26.5 -117t-8.5 -122.5z" />
    <glyph glyph-name="sterling" unicode="&#xa3;" horiz-adv-x="1638" 
d="M1030 854q13 0 19 -5t6 -13q0 -11 -10.5 -17.5t-22.5 -11.5q-12 -4 -32 -9.5t-45 -12.5t-52.5 -14.5t-54.5 -14.5l-23 -6q25 -55 48 -109.5t41 -111t29 -115.5t11 -123q0 -78 -14.5 -143t-40.5 -119q41 -20 81.5 -39t81 -35t81.5 -25.5t84 -9.5q29 0 56.5 8.5t49 25.5
t34.5 43.5t13 61.5q0 42 -14 70.5t-30.5 47.5t-30 31t-13.5 21q0 15 14 15q15 0 37 -14t42 -39t34 -60.5t14 -77.5q0 -46 -14 -91t-44 -81t-77 -58t-114 -22q-52 0 -98 12.5t-86.5 33.5t-77 47.5t-68.5 54.5q-35 -48 -77.5 -84.5t-88 -60.5t-92 -36t-88.5 -12
q-36 0 -68.5 10.5t-57 30.5t-39 50t-14.5 69q0 31 13.5 66t44.5 64.5t81.5 49t123.5 19.5q40 0 78 -7t75 -18v10q0 74 -19.5 145t-50 141.5t-66.5 142.5t-69 147q-26 -8 -57.5 -17t-62.5 -16.5t-57.5 -12.5t-41.5 -5q-14 0 -22 7.5t-8 18.5q0 14 8 22t22 11l195 49
q-31 79 -51.5 161t-20.5 175q0 144 43 250.5t111 176.5t153.5 104t169.5 34q76 0 140.5 -24t111 -68.5t73 -108.5t26.5 -145q0 -67 -18 -117t-47 -83t-65 -49.5t-73 -16.5q-29 0 -57 9.5t-49.5 29t-34.5 49t-13 68.5q0 38 11.5 67.5t29 54.5t37.5 46.5t37.5 43t29 44.5
t11.5 51q0 18 -8 39t-26 38t-46.5 28.5t-69.5 11.5q-59 0 -107 -19t-82 -55.5t-52.5 -90t-18.5 -122.5q0 -75 12 -143t32 -131.5t45.5 -123t52.5 -116.5q39 9 77 18.5t70.5 17t56 12.5t33.5 5zM500 -197q40 0 77 13t68 39.5t53 67.5t31 97q-40 20 -85 33t-97 13
q-39 0 -70 -11.5t-52.5 -31t-33.5 -45.5t-12 -54q0 -56 33.5 -88.5t87.5 -32.5z" />
    <glyph glyph-name="currency" unicode="&#xa4;" horiz-adv-x="1501" 
d="M1034 1489q11 0 16 -6.5t5 -16.5q0 -19 -13.5 -50t-29.5 -63l-29.5 -59t-13.5 -39t15.5 -27t39 -35t51 -47.5t51 -65t39 -86.5t15.5 -113q0 -59 -12 -108t-30 -88.5t-39 -70t-39 -52t-30 -34.5t-12 -18t19 -23t46 -41t55.5 -47t47.5 -39q31 -25 64.5 -51.5t61.5 -50.5
t46 -43.5t18 -30.5q0 -6 -3.5 -12t-14.5 -6q-15 0 -39.5 12t-50.5 28.5t-50.5 33.5t-39.5 28l-36 27t-55.5 43t-68.5 55t-74 62q-24 -15 -54 -32t-73 -31.5t-102 -24t-140 -9.5q-24 0 -43.5 1t-33.5 1q-26 0 -37 -8q-11 -9 -24.5 -34t-29 -58t-33.5 -68.5t-36.5 -65.5
t-39 -49.5t-40.5 -19.5q-14 0 -24.5 10t-10.5 33q0 25 7.5 53t18.5 56t24 55.5t24 51.5t18.5 43t8.5 30q0 8 -11.5 21.5t-30 34.5t-40 49.5t-39.5 66.5t-30.5 86t-12.5 107q0 73 16 129.5t35.5 98.5t36 70.5t16.5 45.5t-22 42t-48.5 53t-48.5 54.5t-22 46.5q0 10 5 16.5
t17 6.5q19 0 47.5 -21.5t58.5 -47t57.5 -47t43.5 -21.5q15 0 42 14.5t70 32.5t102.5 32.5t138.5 14.5q30 0 61 -2t49 -2q20 0 38.5 16t36.5 40.5t36 53t35.5 53t35.5 40.5t37 16zM662 1194q-98 0 -173.5 -34t-126.5 -93.5t-77.5 -139t-26.5 -169.5q0 -86 29.5 -149
t79.5 -103.5t116.5 -60t141.5 -19.5q84 0 167.5 24t150.5 77.5t109 138t42 204.5q0 75 -27.5 135t-81.5 102t-135 64.5t-188 22.5z" />
    <glyph glyph-name="yen" unicode="&#xa5;" horiz-adv-x="1638" 
d="M809 1855q25 0 25 -22q0 -11 -12.5 -24.5t-30.5 -29t-38.5 -32.5t-35.5 -35q-14 -15 -19.5 -32t-5.5 -35q0 -27 17 -76t44 -107.5t59 -121t62 -116.5t53.5 -93t33.5 -52q14 -20 24 -20q11 0 29.5 27.5t40.5 70.5t44.5 96t41 104t30 93.5t11.5 65.5q0 21 -14.5 34
t-51.5 13q-20 0 -40 -2t-34 -2q-5 0 -11.5 0.5t-13.5 3.5t-11.5 8t-4.5 14q0 16 13 23t33 10q5 1 30 3.5t60.5 8t77.5 14.5t81 21q48 15 89.5 33.5t74.5 35.5t57 28.5t37 11.5q17 0 17 -15q0 -12 -14 -22t-23 -15q-31 -15 -58 -29.5t-52 -30.5t-48 -34.5t-45 -42.5
q-35 -36 -71.5 -98.5t-69.5 -133.5t-60.5 -140.5t-42.5 -120.5q-14 -48 -23.5 -95.5t-15 -86.5t-8 -65.5t-2.5 -33.5q0 -14 2 -29t13 -18q17 -5 57.5 -5.5t91.5 -0.5h207q54 0 88.5 -6t34.5 -23q0 -10 -13.5 -15.5t-31.5 -8t-36.5 -3t-29.5 -0.5q-27 0 -65 1.5t-78.5 3
t-79.5 3t-70 1.5q-35 0 -60 -2t-30 -9q-4 -4 -7 -17.5t-5 -31t-3 -35t-1 -28.5q0 -20 5.5 -25.5t19.5 -5.5q15 0 40.5 2t55 4t61 4t58.5 2q38 0 54.5 -8.5t16.5 -23.5q0 -6 -2.5 -11.5t-10.5 -11t-22 -9.5t-38 -5q-43 -2 -81.5 -3.5t-69.5 -4.5t-51.5 -8.5t-27.5 -14.5
q-5 -6 -8.5 -22.5t-6 -39.5t-4 -51.5t-1.5 -58.5q0 -32 1.5 -76.5t4.5 -88t8.5 -80t13.5 -52.5q7 -13 18 -26t30.5 -25t48.5 -22.5t73 -18.5q32 -6 48 -12.5t16 -20.5q0 -22 -41 -22q-66 -2 -116 -4t-91.5 -4.5t-77 -6t-72.5 -8.5q-70 -11 -134 -30.5t-117 -38t-93 -32.5
t-61 -14q-12 0 -20.5 6.5t-8.5 18.5q0 14 10 22.5t31 16.5q12 4 38.5 12t59 22t66 35t57.5 50q17 21 35 56t27 85q9 53 13.5 117t4.5 123q0 37 -1.5 68t-4.5 52q-3 25 -11.5 32t-31.5 7q-22 0 -53 -2t-63 -5t-60.5 -5t-46.5 -2q-25 0 -39 9t-14 28q0 18 12.5 28t34.5 13
q12 2 35.5 4t52 3.5t58.5 3.5t56.5 5t45 6t24.5 8q8 7 11.5 26t3.5 44q0 28 -2 46.5t-9 29.5t-20.5 15.5t-36.5 4.5q-26 0 -57.5 -1t-64 -2t-63 -2t-55.5 -1q-28 0 -43.5 6.5t-15.5 22.5q0 10 6.5 15.5t16 8t21.5 3t24 0.5q18 0 42 -0.5t50.5 -1l53 -1t48.5 -0.5q40 0 65 5
t25 34q0 14 -5 33t-19 57q-13 34 -36.5 91t-54.5 124.5t-69 141t-79 142t-83.5 126.5t-83.5 94q-48 42 -97 65t-89.5 37t-66 24t-25.5 28q0 9 4.5 15.5t19.5 6.5q21 0 48 -1.5t64 -3t85.5 -2.5t113.5 -1q92 0 161.5 14.5t118.5 32.5t80 32.5t46 14.5z" />
    <glyph glyph-name="brokenbar" unicode="&#xa6;" horiz-adv-x="700" 
d="M346 1837q16 0 23.5 -15t9.5 -50q2 -36 2 -98v-148q0 -27 0.5 -67.5t1 -86.5t1.5 -94.5t1.5 -92t1 -78.5t0.5 -54q0 -29 -3.5 -47.5t-9 -29t-12.5 -14.5t-14 -4q-17 0 -26 20.5t-9 76.5q0 43 0.5 107.5t0.5 136t0.5 142t0.5 126.5v190q0 34 5.5 57t25.5 23zM348 729
q17 0 24 -17.5t9 -41.5q1 -18 2.5 -49t3 -68.5t2.5 -79.5t2 -81t1.5 -72.5t0.5 -55.5q0 -50 -0.5 -112t-0.5 -128t-1 -131t-1 -122t-0.5 -101.5t-0.5 -68.5q0 -73 -10.5 -108.5t-36.5 -35.5q-13 0 -20 11t-10.5 26.5t-4 33.5t-0.5 32q0 9 1.5 55t3 112.5t4 145.5t4 153.5
t3 137.5t1.5 98q0 69 -1 136t-1.5 122.5t-1.5 96t-1 55.5q0 31 7.5 44t21.5 13z" />
    <glyph glyph-name="section" unicode="&#xa7;" horiz-adv-x="1120" 
d="M637 1706q91 0 161.5 -29.5t117.5 -77.5t71.5 -107.5t24.5 -119.5q0 -29 -7 -59.5t-24 -55t-44.5 -40t-68.5 -15.5q-32 0 -55 11t-39 28.5t-23.5 39.5t-7.5 44q0 33 8 59.5t17 50.5t17 46.5t8 48.5q0 23 -11 47t-32.5 43.5t-53 32t-71.5 12.5q-47 0 -89.5 -14t-75 -43
t-52 -73.5t-19.5 -104.5q0 -76 27 -137.5t71.5 -114t101 -98.5t115 -90t115 -89t101 -96.5t71.5 -111.5t27 -134q0 -68 -20 -124.5t-50.5 -101.5t-67 -78.5t-69.5 -57.5q69 -74 113.5 -168t44.5 -219q0 -111 -33.5 -192.5t-89.5 -135.5t-130.5 -80.5t-156.5 -26.5
q-56 0 -96.5 11.5t-69 30t-46 41t-27.5 44t-13.5 40t-3.5 28.5q0 21 6 44t21 43t40.5 33t63.5 13q37 0 62 -16.5t43.5 -41.5t34 -54.5t34.5 -54.5t45 -41.5t66 -16.5q36 0 66.5 17t53 46.5t35.5 70t13 87.5q0 91 -33.5 160.5t-89 124.5t-126 100.5t-144 89t-144 88t-126 99
t-89 122t-33.5 156.5q0 73 21.5 129t53 97t68 69t66.5 45q-50 55 -81 127t-31 170q0 101 36 181t96.5 135.5t139.5 84.5t166 29zM481 844q-34 20 -65.5 42t-59.5 48q-15 -15 -30 -34t-27 -43t-19.5 -53t-7.5 -65q0 -52 23 -96t61.5 -84t89 -77t106.5 -75.5t113 -80.5
t109 -90q23 18 45 40t39 49.5t27 61t10 72.5q0 46 -20.5 86t-54.5 75.5t-77.5 66.5t-89.5 58.5t-91 51.5t-81 47z" />
    <glyph glyph-name="dieresis" unicode="&#xa8;" horiz-adv-x="805" 
d="M324 1546q48 0 74 -31.5t26 -74.5q0 -35 -11 -59.5t-28.5 -40.5t-39 -23.5t-42.5 -7.5q-19 0 -37.5 7t-32.5 20.5t-23 34.5t-9 48q0 28 10 51t27.5 40t39.5 26.5t46 9.5zM582 1524q16 0 32 -5.5t29 -17t21 -29.5t8 -42q0 -25 -7.5 -46t-21 -36.5t-31.5 -24t-39 -8.5
q-18 0 -34.5 5.5t-30 17.5t-21.5 31.5t-8 47.5q0 25 8.5 44.5t22.5 33.5t33 21.5t39 7.5z" />
    <glyph glyph-name="copyright" unicode="&#xa9;" horiz-adv-x="2097" 
d="M1036 1554q159 0 304.5 -34.5t267.5 -106.5q86 -51 156.5 -121t121 -157t78 -191.5t27.5 -224.5q0 -170 -35.5 -312t-100 -256t-156 -200t-203.5 -143t-241.5 -86t-271.5 -29q-199 0 -361 63.5t-277 178t-178 274t-63 350.5q0 187 42.5 334t114.5 257.5t166.5 187.5
t198 125t209.5 69.5t201 21.5zM1030 1501q-110 0 -215 -25t-198.5 -75.5t-171.5 -127.5t-135 -181t-88.5 -235t-31.5 -290q0 -181 64 -323t173 -240t253 -149.5t305 -51.5q97 0 201 18.5t203.5 61t189 112.5t157 172.5t107 240.5t39.5 317q0 190 -67 335.5t-182.5 243
t-270.5 147.5t-332 50zM1188 1094q0 -65 6 -110.5t12.5 -77t12.5 -52t6 -35.5q0 -20 -11 -20q-8 0 -13.5 9.5t-11.5 27.5t-15 43t-25 57q-15 28 -33.5 52t-42.5 42t-54 28.5t-69 10.5q-41 0 -79 -18t-68 -56t-48 -97t-18 -140q0 -109 26 -184t69 -121.5t98 -67t112 -20.5
q50 0 88.5 21t65.5 54.5t42 76.5t19 87q4 37 8 55.5t15 18.5q9 0 18 -13t9 -53q0 -71 -21.5 -137t-63.5 -116.5t-105 -80.5t-146 -30q-85 0 -162.5 29t-136.5 83.5t-94 133.5t-35 180q0 122 37.5 207.5t98 139.5t136.5 78.5t154 24.5q37 0 65 -3t49 -3q26 0 39 8
q15 10 23.5 35t14 50.5t10 45t12.5 19.5q5 0 7.5 -6t2.5 -23q0 -7 -0.5 -23.5t-1.5 -38.5t-1.5 -46t-0.5 -45z" />
    <glyph glyph-name="ordfeminine" unicode="&#xaa;" horiz-adv-x="1143" 
d="M408 1671q74 0 127.5 -22t90 -59t58.5 -86.5t34.5 -105t17.5 -114t7 -113.5q4 -99 9 -176.5t20 -122.5q10 -29 23 -47t28 -28.5t31 -14.5t31 -4q49 0 71.5 39.5t22.5 104.5q0 43 -7 68.5t-9 43.5q0 29 20 29q23 0 42 -36.5t19 -115.5q0 -30 -7.5 -73t-29.5 -83t-62 -68
t-105 -28q-53 0 -91.5 15.5t-65.5 43.5t-44.5 65t-26.5 81q-6 -34 -24.5 -74.5t-51.5 -76t-81 -59t-113 -23.5q-42 0 -81.5 14.5t-69.5 44.5t-48 75t-18 105q0 57 14 102.5t38 80.5t56 60.5t68 43.5q33 16 66 25t62.5 13.5t52.5 5.5t36 1q22 0 34 4.5t17 26.5q3 15 4.5 37
t1.5 47q0 31 -2.5 66.5t-10.5 71.5t-21 69t-35 58.5t-52.5 40.5t-72.5 15q-57 0 -87 -27t-30 -75q0 -30 10.5 -56t23.5 -51t23.5 -50.5t10.5 -53.5q0 -24 -8 -44.5t-22.5 -35.5t-34.5 -24t-44 -9q-25 0 -47 7.5t-38.5 25t-26 45t-9.5 66.5q0 66 22 123.5t62.5 100t96.5 67
t125 24.5zM289 932q0 -42 10.5 -71t29.5 -47.5t44.5 -27t54.5 -8.5q51 0 83 26t50 65t24.5 85t6.5 86q0 33 -2.5 57.5t-10.5 40t-23 23.5t-40 8q-49 0 -90.5 -15t-72 -45t-47.5 -74.5t-17 -102.5z" />
    <glyph glyph-name="guillemotleft" unicode="&#xab;" horiz-adv-x="1247" 
d="M772 1098q8 0 10 -7.5t2 -15.5q0 -12 -5.5 -40t-19 -69.5t-35.5 -93.5t-54 -110q-45 -81 -84.5 -140.5t-69 -101.5t-46.5 -68t-17 -40q0 -11 19 -41t49 -75t67.5 -103t73.5 -125q17 -32 42 -79t52 -100t53.5 -107.5t48 -103t34.5 -86.5t13 -57q0 -9 -4.5 -16.5
t-15.5 -7.5q-20 0 -56.5 44t-86 114t-111.5 155.5t-133 169.5q-84 97 -156.5 167.5t-125.5 119.5t-83.5 78.5t-30.5 46.5t33.5 43t86 62t116 81.5t123.5 101.5q86 81 139 154.5t86 129t51.5 88t34.5 32.5zM1083 1298q10 0 13.5 -15.5t3.5 -35.5q0 -64 -11.5 -139.5
t-29.5 -152t-38 -149t-38 -131.5t-29.5 -99t-11.5 -52q0 -14 14.5 -40t37 -67t48 -98.5t48 -133t37 -171t14.5 -213.5q0 -52 -5.5 -83t-15.5 -31q-9 0 -24 38t-40 101t-60.5 145.5t-86.5 171.5q-40 71 -82 120t-77 83t-57.5 56t-22.5 38q0 15 27.5 43.5t68 77.5t87.5 121
t85 176t61 185.5t37 138t24 86.5t23 30z" />
    <glyph glyph-name="logicalnot" unicode="&#xac;" horiz-adv-x="1262" 
d="M170 903q19 1 62.5 1.5t103 1t130 1t144.5 1t147 0.5t136 0.5t112 0.5h76q46 0 62 -26.5t16 -73.5q0 -27 -1.5 -62t-4 -71t-6.5 -69.5t-8 -57.5q-5 -26 -16 -44t-31 -18q-19 0 -29 17.5t-10 48.5q0 25 2 64.5t2 76.5q0 50 -5.5 78.5t-22.5 42.5t-48 17.5t-82 3.5
q-34 0 -76 -1.5t-92 -3.5q-47 -2 -102 -3.5t-111.5 -3.5t-111 -4t-99.5 -3.5t-77.5 -2.5t-45.5 -1q-24 0 -40 4t-25.5 10.5t-13 14.5t-3.5 16q0 17 13.5 30t54.5 15z" />
    <glyph glyph-name="uni00AD" unicode="&#xad;" horiz-adv-x="893" 
d="M449 397q-32 0 -77 2.5t-91.5 7.5t-87 12t-62.5 15q-29 10 -29 35q0 14 8.5 21.5t22.5 7.5q26 0 56 -4t67 -8.5t81.5 -8.5t100.5 -4q113 0 188.5 8t118.5 8q46 0 46 -28q0 -30 -41 -43t-119.5 -17t-181.5 -4z" />
    <glyph glyph-name="registered" unicode="&#xae;" horiz-adv-x="2148" 
d="M1079 1438q120 0 238.5 -23.5t226 -71.5t199 -122t158.5 -174.5t105 -229t38 -285.5q0 -249 -74.5 -433.5t-205.5 -306.5t-308.5 -182.5t-384.5 -60.5q-112 0 -227.5 22t-223 69.5t-202 121t-165 176t-111 235.5t-40.5 300q0 108 16 202t45 175t70 148.5t91 123.5
q79 88 175 148.5t196.5 98t199.5 53.5t184 16zM1079 1362q-94 0 -196 -19t-199.5 -61.5t-185 -109t-153.5 -162t-105 -221t-39 -285.5q0 -154 33.5 -281t93.5 -227.5t142.5 -174.5t181 -123t208.5 -73t225 -24q228 0 398 69t283.5 190.5t170 287.5t56.5 360q0 158 -36 282.5
t-99 219.5t-149.5 162t-188.5 109t-214 61.5t-227 19.5zM1102 1114q67 0 124 -16t98.5 -48.5t65 -81.5t23.5 -116q0 -74 -23.5 -131t-61 -99.5t-84.5 -71t-95 -44.5q11 -35 27.5 -76.5t37.5 -81.5t45.5 -76t53.5 -63t64.5 -43t78.5 -16q35 0 59.5 13t39.5 32.5t21.5 43
t6.5 44.5q0 33 -7 57t-15.5 41.5t-15.5 29.5t-7 21q0 14 12 14t28 -14.5t29.5 -38.5t23 -55t9.5 -64q0 -49 -13 -92t-40.5 -74.5t-69 -50t-98.5 -18.5q-73 0 -132.5 22.5t-107 59.5t-83 83.5t-61 94t-41.5 92.5t-23 78l-82 -8q1 -44 4.5 -93.5t11 -96.5t19.5 -87t30 -65
q19 -27 41.5 -45.5t43.5 -31t38.5 -19.5t28.5 -11q20 -8 26.5 -12t6.5 -12q0 -6 -6.5 -10.5t-20.5 -4.5q-28 0 -60 8t-70 17t-84 17t-101 8q-36 0 -77 -3.5t-78.5 -8t-68 -8t-47.5 -3.5q-29 0 -39 7t-10 18q0 9 8.5 15t30.5 9q28 4 53 9.5t46.5 15.5t39.5 25t33 38
t22.5 68.5t11 99t4 107t1.5 92.5q0 20 1 49.5t1 64.5q0 51 -0.5 106t-3.5 104.5t-9 88t-18 56.5q-13 21 -40.5 31t-55.5 17t-49 13.5t-21 18.5q0 14 23 14q20 0 38 -1.5t38 -3t45 -2.5t59 -1q43 0 88 8.5t91 19t93 19t95 8.5zM887 510q18 2 38.5 4t45.5 8q70 15 114.5 46.5
t70.5 74t36 93.5t10 106q0 49 -13.5 89.5t-38.5 69t-59.5 44.5t-76.5 16q-31 0 -52 -4.5t-35.5 -11.5t-22 -15.5t-11.5 -15.5q-8 -16 -11 -62t-3 -106q0 -43 1 -89.5t2.5 -90t2.5 -80.5t2 -62v-14z" />
    <glyph glyph-name="macron" unicode="&#xaf;" horiz-adv-x="784" 
d="M590 1696q28 0 45.5 -3t28 -8.5t14.5 -12.5t4 -15q0 -23 -24.5 -34t-84.5 -11q-26 0 -65 0.5t-85 1t-95.5 1.5t-96.5 3q-57 2 -93 6.5t-36 24.5q0 10 9.5 16t26 10t40 6.5t51.5 4.5q17 1 46 2t63.5 2t72 2.5t72 2t63 1t44.5 0.5z" />
    <glyph glyph-name="degree" unicode="&#xb0;" horiz-adv-x="709" 
d="M362 1974q44 0 87.5 -15.5t78.5 -45.5t56.5 -74.5t21.5 -103.5q0 -63 -20 -112.5t-54.5 -84t-82.5 -52.5t-103 -18q-40 0 -83 13t-79 43t-59 77.5t-23 116.5q0 56 20 103t55 81t82.5 53t102.5 19zM348 1862q-31 0 -59.5 -10t-50.5 -30t-35 -50t-13 -70q0 -39 12 -69.5
t33.5 -51.5t51.5 -32t65 -11q37 0 67 11.5t51 32.5t32.5 50t11.5 64q0 47 -16.5 78.5t-41 51t-54 28t-54.5 8.5z" />
    <glyph glyph-name="plusminus" unicode="&#xb1;" horiz-adv-x="1188" 
d="M623 1038q20 0 31.5 -14t11.5 -45q0 -24 -1.5 -54t-3 -58.5t-3 -51t-1.5 -31.5q0 -17 6 -22.5t17 -7.5q28 -3 72.5 -6t91.5 -5.5t90 -4.5t67 -3q51 -3 67.5 -12.5t16.5 -20.5t-12.5 -19.5t-52.5 -8.5q-21 0 -60 2t-84.5 5t-91 5t-77.5 2t-46 -7t-16 -30q-1 -9 -1.5 -29.5
t-0.5 -43v-42.5v-28q0 -12 -0.5 -26t-3.5 -26t-8.5 -20t-14.5 -8q-11 0 -16.5 12t-7.5 41q-1 18 -1.5 42t-0.5 48.5t-0.5 46.5t-1.5 35q-1 12 -5 19t-9.5 10t-12 3.5t-10.5 0.5q-8 0 -30.5 -1.5t-54 -3.5t-68 -5t-72.5 -5t-68 -3.5t-53 -1.5q-20 0 -37.5 9t-17.5 34
q0 18 13 29.5t50 11.5h32.5t54.5 0.5t65 0.5t64.5 1t53.5 2.5t31 3.5q21 5 34 19.5t19.5 34.5t8.5 43t2 46q0 20 -1.5 36t-1.5 26q0 13 1.5 26t7 24t15 18t24.5 7zM195 387q16 0 61 -1t105.5 -2.5t128.5 -3.5t130.5 -4t111 -4t69.5 -3q25 -2 51 -4t47.5 -6t35 -11t13.5 -18
q0 -6 -3.5 -11.5t-13.5 -10t-28.5 -7t-48.5 -2.5q-22 0 -60 1t-83.5 2t-95.5 2t-97 1q-51 0 -100 -2t-90.5 -5t-72 -5t-44.5 -2q-54 0 -81.5 9.5t-27.5 37.5q0 10 4 19t14.5 15.5t28.5 10.5t46 4z" />
    <glyph glyph-name="twosuperior" unicode="&#xb2;" horiz-adv-x="748" 
d="M426 1815q64 0 112.5 -20.5t80 -55.5t47.5 -81.5t16 -98.5q0 -65 -21.5 -121.5t-57.5 -103.5t-82.5 -84t-96.5 -64q-32 -18 -63.5 -32t-56.5 -25.5t-40.5 -20.5t-15.5 -16t10 -20.5t27.5 -29.5t40.5 -33t49 -30.5t53.5 -22t54.5 -8.5q48 0 83.5 18t61 39.5t42.5 39.5
t28 18q9 0 9 -8q0 -12 -14 -31.5t-35 -43.5t-46 -50.5t-47 -52.5q-15 -18 -35 -44.5t-39 -51.5t-34.5 -42.5t-22.5 -17.5q-6 0 -22 19t-40 48.5t-54.5 64t-65.5 65.5q-55 46 -94.5 73.5t-65.5 43.5t-38.5 23t-12.5 13t20 11t54.5 16t81 31.5t98.5 58.5q51 37 87.5 79.5
t59 86.5t33 87.5t10.5 82.5q0 35 -7.5 68t-24 58.5t-44 40.5t-67.5 15q-42 0 -72 -20t-50.5 -44.5t-33.5 -44.5t-22 -20q-10 0 -10 14q0 13 8 34.5t24 46.5t39 50.5t53 46t67.5 33.5t80.5 13z" />
    <glyph glyph-name="threesuperior" unicode="&#xb3;" horiz-adv-x="760" 
d="M506 1784q20 0 20 -19q0 -12 -13.5 -37t-33.5 -56.5t-43 -65t-43 -62t-33.5 -48.5t-13.5 -23t10 -4t28 -2.5t43 -5.5t56 -13q42 -12 84 -35.5t75.5 -62t55 -92.5t21.5 -128q0 -90 -31.5 -157.5t-84 -112t-120.5 -66.5t-141 -22q-63 0 -118 21.5t-95.5 61t-64 97
t-23.5 129.5q0 37 5.5 67.5t13 52.5t16 34t14.5 12t6 -10q0 -12 -3 -35t-3 -57q0 -52 13.5 -101t41.5 -86.5t71 -60.5t103 -23q49 0 87.5 18t64.5 50.5t39.5 77t13.5 98.5q0 79 -38.5 137.5t-100.5 85.5q-22 10 -46 17.5t-43.5 12.5t-32.5 9.5t-13 8.5q0 9 10.5 28.5
t32.5 55.5q12 18 24.5 40t23 42t17.5 35t7 20q0 4 -10 6t-24.5 3.5t-29.5 2t-25 0.5q-43 -2 -71 -9.5t-39 -21.5q-8 -10 -13 -26t-9 -31.5t-8 -27t-9 -11.5q-9 0 -10.5 40t-7.5 118q-4 34 -7.5 60.5t-3.5 41.5q0 16 6.5 20.5t20.5 4.5q28 0 79.5 -6.5t114.5 -6.5
q36 0 64.5 2.5t51 6t39.5 6t32 2.5z" />
    <glyph glyph-name="acute" unicode="&#xb4;" horiz-adv-x="481" 
d="M340 1952q20 0 29.5 -12t9.5 -33q0 -18 -11.5 -45.5t-29.5 -59.5t-40.5 -67t-45.5 -66q-42 -57 -79 -94t-54 -37q-10 0 -12.5 5.5t-2.5 15.5q0 14 10 48.5t27.5 78t40.5 90.5t49 86t54 64.5t55 25.5z" />
    <glyph glyph-name="mu" unicode="&#xb5;" horiz-adv-x="1300" 
d="M266 1059q6 0 8 -5t2 -12q0 -21 -6 -72.5t-6 -142.5q0 -48 3 -110.5t16 -134.5q10 -61 30.5 -127.5t54.5 -122.5t82.5 -92.5t114.5 -36.5q62 0 103 26.5t65.5 69.5t34.5 98.5t10 114.5q0 20 -1 40t-3 40q-6 64 -18.5 120t-24.5 99.5t-21.5 73.5t-9.5 43q0 4 9 7.5t24 7.5
t35 9.5t41 12.5q51 17 71 28t29 11t15 -28.5t12 -88.5t13.5 -152.5t19.5 -220.5q15 -166 56.5 -243.5t111.5 -77.5q27 0 45.5 10t30 26.5t17 36.5t5.5 41q0 49 -15.5 85.5t-34.5 62t-34.5 42t-15.5 25.5q0 15 14 15q18 0 43.5 -17.5t49 -48.5t40 -74.5t16.5 -95.5
q0 -53 -11.5 -98.5t-36 -78.5t-63.5 -52t-93 -19q-57 0 -99.5 21t-73.5 52.5t-51.5 68t-33.5 68t-19.5 52.5t-9.5 21t-8 -15t-15.5 -37.5t-27 -49t-42 -49t-61.5 -37.5t-84 -15q-71 0 -122 26.5t-85 61.5t-52 68.5t-23 48.5q1 -34 3.5 -88.5t7 -115.5t9.5 -121t10 -105
q12 -104 23.5 -193.5t20.5 -159t14.5 -116t5.5 -64.5q0 -15 -8 -20q-6 -3 -13 -4t-19 -1t-30.5 -1t-46.5 -4q-10 -1 -24 -3.5t-28 -5.5t-26.5 -5.5t-19.5 -2.5q-14 0 -21 8q-5 8 -9 48.5t-7.5 107.5t-6.5 156.5t-6.5 196t-7 225.5t-8.5 245q-8 206 -12 358.5t-4 241.5
q0 51 0.5 79.5t5.5 31.5q4 2 7.5 3t11.5 2t22.5 2.5t40.5 6.5q28 6 45.5 9.5t27 5.5t14 3t7.5 1z" />
    <glyph glyph-name="mu" unicode="&#x3bc;" horiz-adv-x="1300" 
d="M266 1059q6 0 8 -5t2 -12q0 -21 -6 -72.5t-6 -142.5q0 -48 3 -110.5t16 -134.5q10 -61 30.5 -127.5t54.5 -122.5t82.5 -92.5t114.5 -36.5q62 0 103 26.5t65.5 69.5t34.5 98.5t10 114.5q0 20 -1 40t-3 40q-6 64 -18.5 120t-24.5 99.5t-21.5 73.5t-9.5 43q0 4 9 7.5t24 7.5
t35 9.5t41 12.5q51 17 71 28t29 11t15 -28.5t12 -88.5t13.5 -152.5t19.5 -220.5q15 -166 56.5 -243.5t111.5 -77.5q27 0 45.5 10t30 26.5t17 36.5t5.5 41q0 49 -15.5 85.5t-34.5 62t-34.5 42t-15.5 25.5q0 15 14 15q18 0 43.5 -17.5t49 -48.5t40 -74.5t16.5 -95.5
q0 -53 -11.5 -98.5t-36 -78.5t-63.5 -52t-93 -19q-57 0 -99.5 21t-73.5 52.5t-51.5 68t-33.5 68t-19.5 52.5t-9.5 21t-8 -15t-15.5 -37.5t-27 -49t-42 -49t-61.5 -37.5t-84 -15q-71 0 -122 26.5t-85 61.5t-52 68.5t-23 48.5q1 -34 3.5 -88.5t7 -115.5t9.5 -121t10 -105
q12 -104 23.5 -193.5t20.5 -159t14.5 -116t5.5 -64.5q0 -15 -8 -20q-6 -3 -13 -4t-19 -1t-30.5 -1t-46.5 -4q-10 -1 -24 -3.5t-28 -5.5t-26.5 -5.5t-19.5 -2.5q-14 0 -21 8q-5 8 -9 48.5t-7.5 107.5t-6.5 156.5t-6.5 196t-7 225.5t-8.5 245q-8 206 -12 358.5t-4 241.5
q0 51 0.5 79.5t5.5 31.5q4 2 7.5 3t11.5 2t22.5 2.5t40.5 6.5q28 6 45.5 9.5t27 5.5t14 3t7.5 1z" />
    <glyph glyph-name="paragraph" unicode="&#xb6;" horiz-adv-x="1448" 
d="M1360 1722q12 0 17 -6.5t5 -17.5q0 -13 -13 -24.5t-34 -24.5t-47 -29t-52.5 -38.5t-50.5 -52.5t-40 -71q-11 -27 -19.5 -69t-15 -93.5t-11.5 -109t-8 -114.5t-4.5 -109.5t-1.5 -94.5q0 -87 2.5 -191t7 -212.5t12 -215t18 -198.5t23.5 -163t30 -109q17 -39 45 -61
t59.5 -33.5t61.5 -16t51 -8.5q31 -6 42 -12t11 -17q0 -20 -41 -20q-46 0 -95 7t-112 7q-35 0 -66.5 -4t-60.5 -9t-54.5 -9t-47.5 -4q-14 0 -23 8.5t-12 36.5q-2 17 -3 48.5t-2.5 74.5t-2 95.5t-0.5 110.5q0 88 1 185.5t2.5 191t3 177t3.5 145.5q1 40 2.5 93.5t3.5 115
t3.5 127t3 129t2.5 122t1 105.5q0 49 -2 77t-10 41.5t-24.5 17t-45.5 3.5q-28 0 -60.5 -2t-61.5 -5.5t-51.5 -8.5t-30.5 -10q-7 -5 -13.5 -65t-12 -162t-8.5 -239t-3 -294q0 -57 2.5 -133.5t7 -164.5t10.5 -184t11.5 -192t11.5 -188t10.5 -172.5t7 -144.5t2.5 -105
q0 -17 -4 -25t-22 -14q-29 -9 -87.5 -21t-136.5 -37q-44 -14 -86 -29t-79 -28.5t-66.5 -22t-48.5 -8.5q-25 0 -32 8t-7 19q0 20 21.5 31t52.5 20q74 22 122.5 46t78.5 48.5t46 49.5t25 51q12 32 16.5 105.5t4.5 170.5q0 70 -2 146.5t-5.5 153t-8.5 149.5t-10 134.5
t-10 108.5t-10 72q-8 43 -33 66t-67 39q-70 26 -132.5 59.5t-110 82t-75.5 116.5t-28 163q0 70 19 134t58.5 117.5t100.5 94t146 64.5q52 15 109.5 23.5t117 14t120.5 10t120 11.5q109 13 190 30.5t139 36t97 36t66 32t44.5 23t32.5 8.5z" />
    <glyph glyph-name="periodcentered" unicode="&#xb7;" horiz-adv-x="489" 
d="M248 934q38 0 64.5 -13.5t43 -35t24 -48t7.5 -52.5q0 -46 -11 -80t-30 -56t-45 -32.5t-55 -10.5q-31 0 -57 11t-45.5 32t-30.5 50.5t-11 66.5q0 39 11 70t30.5 52.5t46 33.5t58.5 12z" />
    <glyph glyph-name="cedilla" unicode="&#xb8;" horiz-adv-x="680" 
d="M346 197q16 0 16 -27q0 -10 -4 -32t-8.5 -46.5t-8 -47t-3.5 -34.5q0 -3 9 -5.5t24 -7t35 -11.5t43 -19q58 -29 92 -80.5t34 -130.5q0 -39 -14 -82t-43.5 -78.5t-76.5 -59t-113 -23.5q-61 0 -103.5 22.5t-69.5 54t-39 66.5t-12 59q0 8 2.5 18.5t10.5 10.5q9 0 20.5 -20.5
t30 -45t47.5 -45t74 -20.5q55 0 86 33t31 84q0 38 -11.5 64t-29.5 42.5t-38 26t-38 15.5t-29.5 10t-11.5 10t6.5 28t15 50.5t18 60t15.5 55.5q14 53 21 79t22 26z" />
    <glyph glyph-name="onesuperior" unicode="&#xb9;" horiz-adv-x="690" 
d="M508 1796q8 0 10 -6.5t2 -15.5q0 -10 -5 -39t-10.5 -75t-10.5 -108t-5 -139q0 -53 0.5 -110t4.5 -113q2 -44 6 -83t13.5 -72t27 -59t47.5 -44q10 -6 21 -10.5t20 -8.5t14.5 -8t5.5 -10q0 -8 -6.5 -11t-17.5 -3q-20 0 -47.5 6t-62 15.5t-74.5 20t-83 19.5
q-62 13 -119 20.5t-101 13.5t-70.5 13t-26.5 19t18 12q17 0 49.5 -5t69.5 -5q22 0 45.5 4.5t38.5 15.5q32 21 49.5 67t25.5 104t9.5 120t1.5 115q0 38 -7 55.5t-26 17.5q-20 0 -49 -11.5t-58.5 -25t-54 -25t-34.5 -11.5q-5 0 -9 2t-4 8q0 12 20.5 24t54.5 31.5t79 49
t94 75.5q39 36 64 67t42 54t28 36t20 13z" />
    <glyph glyph-name="ordmasculine" unicode="&#xba;" horiz-adv-x="1032" 
d="M496 1561q108 0 195.5 -35.5t149 -96.5t95 -144t33.5 -177q0 -101 -26.5 -187t-81 -148t-138 -97t-197.5 -35q-48 0 -101 11t-104.5 34.5t-97.5 60.5t-81 88.5t-55.5 118.5t-20.5 152q0 114 34.5 199t93 142t136.5 85.5t166 28.5zM387 1466q-47 0 -86 -18t-67.5 -51
t-44 -79.5t-15.5 -103.5q0 -104 31 -197t87.5 -163t135.5 -111t174 -41q65 0 107.5 21.5t67 56.5t34.5 81t10 95q0 102 -29 194.5t-84.5 162.5t-136 111.5t-184.5 41.5z" />
    <glyph glyph-name="guillemotright" unicode="&#xbb;" horiz-adv-x="1595" 
d="M123 1137q9 0 18 -20t25 -48q30 -55 69 -102.5t84 -88t93.5 -74t97.5 -59.5q95 -51 183 -80t155 -46t107 -27.5t40 -24.5q0 -20 -41 -49t-112 -82.5t-165.5 -138.5t-201.5 -217q-67 -83 -113.5 -158.5t-77.5 -132.5t-49 -91t-28 -34q-8 0 -11 12.5t-3 30.5q0 28 11.5 74
t32.5 101t51 115.5t68 119.5q42 66 88 124t83.5 103t62 75t24.5 40q0 9 -23.5 23.5t-64 40.5t-95 65t-116.5 98q-56 52 -95 112t-63 116.5t-35 104.5t-11 77q0 15 2 28t10 13zM645 1339q5 0 14 -16t17 -29q44 -74 81 -127.5t74 -98t78 -84.5t92 -85q100 -88 189.5 -145.5
t156.5 -94.5t106.5 -60t39.5 -42q0 -17 -27 -40t-72.5 -55t-104.5 -74.5t-123.5 -98t-129.5 -126.5t-121 -159q-46 -73 -78 -142.5t-54 -131.5t-36 -114t-23.5 -89.5t-16.5 -58.5t-15 -21q-11 0 -20.5 38.5t-9.5 104.5q0 76 17 179t66 221q39 92 85.5 168.5t94.5 138.5
t93 110t80.5 82t56.5 55.5t21 30.5t-39.5 38t-101 81.5t-135.5 129.5t-144 182q-32 48 -54.5 96.5t-36.5 91t-20 76t-6 51.5t6 18z" />
    <glyph glyph-name="onequarter" unicode="&#xbc;" horiz-adv-x="1796" 
d="M1503 1903q17 0 17 -21q0 -13 -14.5 -42.5t-38 -69.5t-53 -86t-60 -91t-59 -85.5t-48.5 -69.5q-35 -50 -85 -120t-109 -152t-124 -171t-129.5 -178t-126 -173t-113.5 -154.5t-91 -124.5t-59 -82q-39 -56 -76.5 -106.5t-65.5 -92.5q-32 -46 -55 -74t-43 -28q-9 0 -15.5 5
t-6.5 19q0 25 30.5 77t81.5 124q57 80 123.5 172.5t138.5 198.5q56 81 125 177.5t144 200t152.5 210t151.5 207.5t141 193t120 167q27 37 49 68.5t40 54t32.5 35t25.5 12.5zM1331 1195q9 0 13 -19.5t7 -56.5q3 -28 7.5 -76.5t10.5 -108.5t13 -125.5t14.5 -127t15.5 -113.5
t15 -84q58 18 92 49q32 27 47.5 59.5t23 60t10.5 46.5t11 19q7 0 9 -15t2 -41v-67q0 -33 3 -64t6 -57.5t6 -46.5t3 -31q0 -10 -4 -18q-9 -14 -42 -19.5t-93 -5.5h-47q27 -165 96 -225q18 -16 39.5 -26.5t44.5 -16.5t45.5 -8.5t40.5 -2.5q15 0 25 -2.5t10 -13.5
q0 -14 -21.5 -17t-52.5 -3q-18 0 -43 1t-54 2.5t-60 3t-62 1.5q-47 0 -89 -7t-81 -15.5t-76 -15.5t-74 -7q-11 0 -18.5 4.5t-7.5 13.5q0 13 8.5 17.5t19.5 7.5q42 9 68 19.5t40.5 27.5t20 44t5.5 68q0 31 -1.5 67t-5.5 71q-21 -2 -43 -5q-20 -2 -43.5 -4t-48.5 -4
q-19 -2 -49 -3.5t-63 -3t-64.5 -2.5t-54.5 -1q-35 0 -35 17q0 11 12.5 37t32 59.5t42 71.5t42.5 73q58 102 105 189.5t82.5 157t59.5 119t36 75.5q7 14 13.5 28t12.5 25t11.5 18t11.5 7zM1251 556q-6 52 -12.5 102.5t-12.5 90.5t-12 64.5t-10 24.5q-6 0 -22.5 -28t-39 -69
t-47.5 -88t-47 -85q-6 -12 -17 -32.5t-22.5 -42.5t-19.5 -41.5t-8 -28.5q0 -5 2 -8t10 -3q16 0 40 2t52 5t57 7t53.5 7.5t42.5 6.5t25 5zM508 1796q8 0 10 -6.5t2 -15.5q0 -10 -5 -39t-10.5 -75t-10.5 -108t-5 -139q0 -53 0.5 -110t4.5 -113q2 -44 6 -83t13.5 -72t27 -59
t47.5 -44q10 -6 21 -10.5t20 -8.5t14.5 -8t5.5 -10q0 -8 -6.5 -11t-17.5 -3q-20 0 -47.5 6t-62 15.5t-74.5 20t-83 19.5q-62 13 -119 20.5t-101 13.5t-70.5 13t-26.5 19t18 12q17 0 49.5 -5t69.5 -5q22 0 45.5 4.5t38.5 15.5q32 21 49.5 67t25.5 104t9.5 120t1.5 115
q0 38 -7 55.5t-26 17.5q-20 0 -49 -11.5t-58.5 -25t-54 -25t-34.5 -11.5q-5 0 -9 2t-4 8q0 12 20.5 24t54.5 31.5t79 49t94 75.5q39 36 64 67t42 54t28 36t20 13z" />
    <glyph glyph-name="onehalf" unicode="&#xbd;" horiz-adv-x="1561" 
d="M1503 1903q17 0 17 -21q0 -13 -14.5 -42.5t-38 -69.5t-53 -86t-60 -91t-59 -85.5t-48.5 -69.5q-35 -50 -85 -120t-109 -152t-124 -171t-129.5 -178t-126 -173t-113.5 -154.5t-91 -124.5t-59 -82q-39 -56 -76.5 -106.5t-65.5 -92.5q-32 -46 -55 -74t-43 -28q-9 0 -15.5 5
t-6.5 19q0 25 30.5 77t81.5 124q57 80 123.5 172.5t138.5 198.5q56 81 125 177.5t144 200t152.5 210t151.5 207.5t141 193t120 167q27 37 49 68.5t40 54t32.5 35t25.5 12.5zM1221 1044q64 0 112.5 -20.5t80 -55.5t47.5 -81.5t16 -98.5q0 -65 -21.5 -121.5t-57.5 -103.5
t-82.5 -84t-96.5 -64q-32 -18 -63.5 -32t-56.5 -25.5t-40.5 -20.5t-15.5 -16t10 -20.5t27.5 -29.5t40.5 -33t49 -30.5t53.5 -22t54.5 -8.5q48 0 83.5 18t61 39.5t42.5 39.5t28 18q9 0 9 -8q0 -12 -14 -31.5t-35 -43.5t-46 -50.5t-47 -52.5q-15 -18 -35 -44.5t-39 -51.5
t-34.5 -42.5t-22.5 -17.5q-6 0 -22 19t-40 48.5t-54.5 64t-65.5 65.5q-55 46 -94.5 73.5t-65.5 43.5t-38.5 23t-12.5 13t20 11t54.5 16t81 31.5t98.5 58.5q51 37 87.5 79.5t59 86.5t33 87.5t10.5 82.5q0 35 -7.5 68t-24 58.5t-44 40.5t-67.5 15q-42 0 -72 -20t-50.5 -44.5
t-33.5 -44.5t-22 -20q-10 0 -10 14q0 13 8 34.5t24 46.5t39 50.5t53 46t67.5 33.5t80.5 13zM508 1796q8 0 10 -6.5t2 -15.5q0 -10 -5 -39t-10.5 -75t-10.5 -108t-5 -139q0 -53 0.5 -110t4.5 -113q2 -44 6 -83t13.5 -72t27 -59t47.5 -44q10 -6 21 -10.5t20 -8.5t14.5 -8
t5.5 -10q0 -8 -6.5 -11t-17.5 -3q-20 0 -47.5 6t-62 15.5t-74.5 20t-83 19.5q-62 13 -119 20.5t-101 13.5t-70.5 13t-26.5 19t18 12q17 0 49.5 -5t69.5 -5q22 0 45.5 4.5t38.5 15.5q32 21 49.5 67t25.5 104t9.5 120t1.5 115q0 38 -7 55.5t-26 17.5q-20 0 -49 -11.5
t-58.5 -25t-54 -25t-34.5 -11.5q-5 0 -9 2t-4 8q0 12 20.5 24t54.5 31.5t79 49t94 75.5q39 36 64 67t42 54t28 36t20 13z" />
    <glyph glyph-name="threequarters" unicode="&#xbe;" horiz-adv-x="1890" 
d="M1618 1903q17 0 17 -21q0 -13 -14.5 -42.5t-38 -69.5t-53 -86t-60 -91t-59 -85.5t-48.5 -69.5q-35 -50 -85 -120t-109 -152t-124 -171t-129.5 -178t-126 -173t-113.5 -154.5t-91 -124.5t-59 -82q-39 -56 -76.5 -106.5t-65.5 -92.5q-32 -46 -55 -74t-43 -28q-9 0 -15.5 5
t-6.5 19q0 25 30.5 77t81.5 124q57 80 123.5 172.5t138.5 198.5q56 81 125 177.5t144 200t152.5 210t151.5 207.5t141 193t120 167q27 37 49 68.5t40 54t32.5 35t25.5 12.5zM1426 1195q9 0 13 -19.5t7 -56.5q3 -28 7.5 -76.5t10.5 -108.5t13 -125.5t14.5 -127t15.5 -113.5
t15 -84q58 18 92 49q32 27 47.5 59.5t23 60t10.5 46.5t11 19q7 0 9 -15t2 -41v-67q0 -33 3 -64t6 -57.5t6 -46.5t3 -31q0 -10 -4 -18q-9 -14 -42 -19.5t-93 -5.5h-47q27 -165 96 -225q18 -16 39.5 -26.5t44.5 -16.5t45.5 -8.5t40.5 -2.5q15 0 25 -2.5t10 -13.5
q0 -14 -21.5 -17t-52.5 -3q-18 0 -43 1t-54 2.5t-60 3t-62 1.5q-47 0 -89 -7t-81 -15.5t-76 -15.5t-74 -7q-11 0 -18.5 4.5t-7.5 13.5q0 13 8.5 17.5t19.5 7.5q42 9 68 19.5t40.5 27.5t20 44t5.5 68q0 31 -1.5 67t-5.5 71q-21 -2 -43 -5q-20 -2 -43.5 -4t-48.5 -4
q-19 -2 -49 -3.5t-63 -3t-64.5 -2.5t-54.5 -1q-35 0 -35 17q0 11 12.5 37t32 59.5t42 71.5t42.5 73q58 102 105 189.5t82.5 157t59.5 119t36 75.5q7 14 13.5 28t12.5 25t11.5 18t11.5 7zM1346 556q-6 52 -12.5 102.5t-12.5 90.5t-12 64.5t-10 24.5q-6 0 -22.5 -28t-39 -69
t-47.5 -88t-47 -85q-6 -12 -17 -32.5t-22.5 -42.5t-19.5 -41.5t-8 -28.5q0 -5 2 -8t10 -3q16 0 40 2t52 5t57 7t53.5 7.5t42.5 6.5t25 5zM506 1784q20 0 20 -19q0 -12 -13.5 -37t-33.5 -56.5t-43 -65t-43 -62t-33.5 -48.5t-13.5 -23t10 -4t28 -2.5t43 -5.5t56 -13
q42 -12 84 -35.5t75.5 -62t55 -92.5t21.5 -128q0 -90 -31.5 -157.5t-84 -112t-120.5 -66.5t-141 -22q-63 0 -118 21.5t-95.5 61t-64 97t-23.5 129.5q0 37 5.5 67.5t13 52.5t16 34t14.5 12t6 -10q0 -12 -3 -35t-3 -57q0 -52 13.5 -101t41.5 -86.5t71 -60.5t103 -23
q49 0 87.5 18t64.5 50.5t39.5 77t13.5 98.5q0 79 -38.5 137.5t-100.5 85.5q-22 10 -46 17.5t-43.5 12.5t-32.5 9.5t-13 8.5q0 9 10.5 28.5t32.5 55.5q12 18 24.5 40t23 42t17.5 35t7 20q0 4 -10 6t-24.5 3.5t-29.5 2t-25 0.5q-43 -2 -71 -9.5t-39 -21.5q-8 -10 -13 -26
t-9 -31.5t-8 -27t-9 -11.5q-9 0 -10.5 40t-7.5 118q-4 34 -7.5 60.5t-3.5 41.5q0 16 6.5 20.5t20.5 4.5q28 0 79.5 -6.5t114.5 -6.5q36 0 64.5 2.5t51 6t39.5 6t32 2.5z" />
    <glyph glyph-name="questiondown" unicode="&#xbf;" horiz-adv-x="1171" 
d="M637 1587q28 0 56 -10.5t50.5 -31t36 -51.5t13.5 -73q0 -45 -15.5 -77t-40 -52.5t-54 -29.5t-56.5 -9q-72 0 -117 40.5t-45 117.5q0 45 14.5 78t38.5 54.5t55 32.5t64 11zM522 1192q28 0 63.5 -18t63.5 -50q20 -24 32.5 -55.5t12.5 -69.5q0 -70 -23.5 -128t-58.5 -111.5
t-76.5 -108t-76.5 -117t-58.5 -138t-23.5 -171.5q0 -112 29 -188t74.5 -122t102.5 -65.5t113 -19.5q66 0 114 20t79 52t46 73.5t15 85.5q0 23 -7 49.5t-25.5 52.5t-51 51t-84.5 46q-72 29 -104.5 71t-32.5 105q0 41 14 75t39.5 58.5t61 38t78.5 13.5q69 0 123.5 -23
t93 -63.5t58.5 -96t20 -121.5q0 -56 -10.5 -118t-35 -122.5t-64 -116t-97.5 -97.5t-136 -67t-178 -25q-154 0 -261.5 34.5t-174.5 93t-97 136.5t-30 166q0 82 25 149.5t66 123.5t93 103t107 88.5t107 80t93 78.5t66 82.5t25 92.5q0 48 -20 77.5t-44.5 48t-44.5 30t-20 23.5
q0 5 4 9.5t16 4.5z" />
    <glyph glyph-name="Agrave" unicode="&#xc0;" 
d="M852 1679q7 0 16 -17t17.5 -39.5t16 -45t11.5 -33.5q22 -65 49 -147t57.5 -175t64 -193.5l67 -201t66.5 -198.5t63 -186.5t56.5 -163t47.5 -129.5q24 -65 47 -104t49 -62t57.5 -34t72.5 -20q30 -6 30 -22q0 -11 -11 -15t-25 -4q-22 0 -56 1t-78 1q-35 0 -75.5 -1.5
t-83.5 -4.5q-67 -5 -124 -16.5t-103 -23t-80.5 -20.5t-55.5 -9q-11 0 -17.5 5.5t-6.5 14.5q0 13 7 21t27 14q8 2 23 6t33 9t37.5 11.5t35.5 14.5q20 11 36 29t16 55q0 8 -1.5 22t-4.5 25q-18 70 -37 142t-38 137t-36 120t-31 90q-23 58 -53 88.5t-66 47.5q-10 4 -33 13
t-54.5 19.5l-67.5 22.5t-71 23.5t-65.5 21t-50.5 16.5q-24 -77 -47.5 -152.5t-43 -139t-34 -111.5t-20.5 -70q-8 -26 -11 -47t-3 -37q0 -29 8.5 -48.5t22.5 -33t32.5 -23t38.5 -18.5q17 -8 30 -17.5t13 -23.5q0 -9 -7.5 -15.5t-23.5 -6.5q-17 0 -43 8t-57.5 20t-66.5 25.5
t-70 24.5q-28 8 -58 14.5t-58 10.5t-50.5 6.5t-34.5 3.5q-25 2 -36 7t-11 19q0 10 6.5 16.5t22.5 6.5q6 0 21.5 -1t35.5 -1q48 0 80 6t54 19t36.5 32.5t26.5 46.5q12 26 29 69.5t36.5 95t39.5 107t37.5 105t30.5 88t19 57.5q8 26 22.5 71.5t32.5 101.5t36.5 116.5t34 116
t25 101t9.5 71.5q0 20 -11 33.5t-36 13.5q-22 0 -49.5 -3t-55.5 -6t-54.5 -6t-45.5 -3q-37 0 -37 26q0 24 35 27q24 1 54.5 5t64.5 11t68.5 17.5t66.5 25.5q51 23 87 47t61.5 43t42 31t26.5 12zM547 838q31 -11 79.5 -27.5t98.5 -32t92.5 -26.5t61.5 -11q12 0 21 8.5t9 26.5
q0 15 -9 54.5t-22.5 90t-29.5 106t-30 102.5t-23.5 78.5t-10.5 35.5q-4 12 -10.5 34.5t-14 44.5t-15 38t-11.5 16t-10.5 -11t-13.5 -26.5t-14 -33.5t-11 -33zM385 2121q19 0 40.5 -13t44 -35.5t45.5 -52t44 -62.5q24 -36 46 -70.5t38.5 -64.5t26.5 -54.5t10 -42.5
q0 -11 -5 -19t-16 -8q-12 0 -34.5 14.5t-51 38t-60.5 53.5t-62 62q-24 24 -48.5 49t-44 49.5t-31.5 47.5t-12 43q0 34 22 49.5t48 15.5z" />
    <glyph glyph-name="Aacute" unicode="&#xc1;" 
d="M852 1679q7 0 16 -17t17.5 -39.5t16 -45t11.5 -33.5q22 -65 49 -147t57.5 -175t64 -193.5l67 -201t66.5 -198.5t63 -186.5t56.5 -163t47.5 -129.5q24 -65 47 -104t49 -62t57.5 -34t72.5 -20q30 -6 30 -22q0 -11 -11 -15t-25 -4q-22 0 -56 1t-78 1q-35 0 -75.5 -1.5
t-83.5 -4.5q-67 -5 -124 -16.5t-103 -23t-80.5 -20.5t-55.5 -9q-11 0 -17.5 5.5t-6.5 14.5q0 13 7 21t27 14q8 2 23 6t33 9t37.5 11.5t35.5 14.5q20 11 36 29t16 55q0 8 -1.5 22t-4.5 25q-18 70 -37 142t-38 137t-36 120t-31 90q-23 58 -53 88.5t-66 47.5q-10 4 -33 13
t-54.5 19.5l-67.5 22.5t-71 23.5t-65.5 21t-50.5 16.5q-24 -77 -47.5 -152.5t-43 -139t-34 -111.5t-20.5 -70q-8 -26 -11 -47t-3 -37q0 -29 8.5 -48.5t22.5 -33t32.5 -23t38.5 -18.5q17 -8 30 -17.5t13 -23.5q0 -9 -7.5 -15.5t-23.5 -6.5q-17 0 -43 8t-57.5 20t-66.5 25.5
t-70 24.5q-28 8 -58 14.5t-58 10.5t-50.5 6.5t-34.5 3.5q-25 2 -36 7t-11 19q0 10 6.5 16.5t22.5 6.5q6 0 21.5 -1t35.5 -1q48 0 80 6t54 19t36.5 32.5t26.5 46.5q12 26 29 69.5t36.5 95t39.5 107t37.5 105t30.5 88t19 57.5q8 26 22.5 71.5t32.5 101.5t36.5 116.5t34 116
t25 101t9.5 71.5q0 20 -11 33.5t-36 13.5q-22 0 -49.5 -3t-55.5 -6t-54.5 -6t-45.5 -3q-37 0 -37 26q0 24 35 27q24 1 54.5 5t64.5 11t68.5 17.5t66.5 25.5q51 23 87 47t61.5 43t42 31t26.5 12zM547 838q31 -11 79.5 -27.5t98.5 -32t92.5 -26.5t61.5 -11q12 0 21 8.5t9 26.5
q0 15 -9 54.5t-22.5 90t-29.5 106t-30 102.5t-23.5 78.5t-10.5 35.5q-4 12 -10.5 34.5t-14 44.5t-15 38t-11.5 16t-10.5 -11t-13.5 -26.5t-14 -33.5t-11 -33zM885 2173q20 0 29.5 -12t9.5 -33q0 -18 -11.5 -45.5t-29.5 -59.5t-40.5 -67t-45.5 -66q-42 -57 -79 -94t-54 -37
q-10 0 -12.5 5.5t-2.5 15.5q0 14 10 48.5t27.5 78t40.5 90.5t49 86t54 64.5t55 25.5z" />
    <glyph glyph-name="Acircumflex" unicode="&#xc2;" 
d="M852 1679q7 0 16 -17t17.5 -39.5t16 -45t11.5 -33.5q22 -65 49 -147t57.5 -175t64 -193.5l67 -201t66.5 -198.5t63 -186.5t56.5 -163t47.5 -129.5q24 -65 47 -104t49 -62t57.5 -34t72.5 -20q30 -6 30 -22q0 -11 -11 -15t-25 -4q-22 0 -56 1t-78 1q-35 0 -75.5 -1.5
t-83.5 -4.5q-67 -5 -124 -16.5t-103 -23t-80.5 -20.5t-55.5 -9q-11 0 -17.5 5.5t-6.5 14.5q0 13 7 21t27 14q8 2 23 6t33 9t37.5 11.5t35.5 14.5q20 11 36 29t16 55q0 8 -1.5 22t-4.5 25q-18 70 -37 142t-38 137t-36 120t-31 90q-23 58 -53 88.5t-66 47.5q-10 4 -33 13
t-54.5 19.5l-67.5 22.5t-71 23.5t-65.5 21t-50.5 16.5q-24 -77 -47.5 -152.5t-43 -139t-34 -111.5t-20.5 -70q-8 -26 -11 -47t-3 -37q0 -29 8.5 -48.5t22.5 -33t32.5 -23t38.5 -18.5q17 -8 30 -17.5t13 -23.5q0 -9 -7.5 -15.5t-23.5 -6.5q-17 0 -43 8t-57.5 20t-66.5 25.5
t-70 24.5q-28 8 -58 14.5t-58 10.5t-50.5 6.5t-34.5 3.5q-25 2 -36 7t-11 19q0 10 6.5 16.5t22.5 6.5q6 0 21.5 -1t35.5 -1q48 0 80 6t54 19t36.5 32.5t26.5 46.5q12 26 29 69.5t36.5 95t39.5 107t37.5 105t30.5 88t19 57.5q8 26 22.5 71.5t32.5 101.5t36.5 116.5t34 116
t25 101t9.5 71.5q0 20 -11 33.5t-36 13.5q-22 0 -49.5 -3t-55.5 -6t-54.5 -6t-45.5 -3q-37 0 -37 26q0 24 35 27q24 1 54.5 5t64.5 11t68.5 17.5t66.5 25.5q51 23 87 47t61.5 43t42 31t26.5 12zM547 838q31 -11 79.5 -27.5t98.5 -32t92.5 -26.5t61.5 -11q12 0 21 8.5t9 26.5
q0 15 -9 54.5t-22.5 90t-29.5 106t-30 102.5t-23.5 78.5t-10.5 35.5q-4 12 -10.5 34.5t-14 44.5t-15 38t-11.5 16t-10.5 -11t-13.5 -26.5t-14 -33.5t-11 -33zM772 2169q10 0 19.5 -13t28.5 -38q24 -33 43 -56.5t36.5 -43t35.5 -37.5t40 -39q48 -45 84.5 -71.5t61.5 -43.5
t38 -29t13 -28q0 -11 -9.5 -17t-21.5 -6q-19 0 -44 7t-52.5 19t-55.5 28t-53 34q-44 34 -76 63.5t-53.5 51.5t-34.5 34.5t-20 12.5q-6 0 -20 -14t-35.5 -38t-51.5 -55t-67 -65q-29 -26 -56.5 -49.5t-51 -41t-42 -28t-30.5 -10.5q-3 0 -6 1.5t-3 6.5q0 9 25 34t65.5 66.5
t90.5 99t100 130.5q18 28 34 52.5t28.5 43t22.5 29t17 10.5z" />
    <glyph glyph-name="Atilde" unicode="&#xc3;" 
d="M852 1679q7 0 16 -17t17.5 -39.5t16 -45t11.5 -33.5q22 -65 49 -147t57.5 -175t64 -193.5l67 -201t66.5 -198.5t63 -186.5t56.5 -163t47.5 -129.5q24 -65 47 -104t49 -62t57.5 -34t72.5 -20q30 -6 30 -22q0 -11 -11 -15t-25 -4q-22 0 -56 1t-78 1q-35 0 -75.5 -1.5
t-83.5 -4.5q-67 -5 -124 -16.5t-103 -23t-80.5 -20.5t-55.5 -9q-11 0 -17.5 5.5t-6.5 14.5q0 13 7 21t27 14q8 2 23 6t33 9t37.5 11.5t35.5 14.5q20 11 36 29t16 55q0 8 -1.5 22t-4.5 25q-18 70 -37 142t-38 137t-36 120t-31 90q-23 58 -53 88.5t-66 47.5q-10 4 -33 13
t-54.5 19.5l-67.5 22.5t-71 23.5t-65.5 21t-50.5 16.5q-24 -77 -47.5 -152.5t-43 -139t-34 -111.5t-20.5 -70q-8 -26 -11 -47t-3 -37q0 -29 8.5 -48.5t22.5 -33t32.5 -23t38.5 -18.5q17 -8 30 -17.5t13 -23.5q0 -9 -7.5 -15.5t-23.5 -6.5q-17 0 -43 8t-57.5 20t-66.5 25.5
t-70 24.5q-28 8 -58 14.5t-58 10.5t-50.5 6.5t-34.5 3.5q-25 2 -36 7t-11 19q0 10 6.5 16.5t22.5 6.5q6 0 21.5 -1t35.5 -1q48 0 80 6t54 19t36.5 32.5t26.5 46.5q12 26 29 69.5t36.5 95t39.5 107t37.5 105t30.5 88t19 57.5q8 26 22.5 71.5t32.5 101.5t36.5 116.5t34 116
t25 101t9.5 71.5q0 20 -11 33.5t-36 13.5q-22 0 -49.5 -3t-55.5 -6t-54.5 -6t-45.5 -3q-37 0 -37 26q0 24 35 27q24 1 54.5 5t64.5 11t68.5 17.5t66.5 25.5q51 23 87 47t61.5 43t42 31t26.5 12zM547 838q31 -11 79.5 -27.5t98.5 -32t92.5 -26.5t61.5 -11q12 0 21 8.5t9 26.5
q0 15 -9 54.5t-22.5 90t-29.5 106t-30 102.5t-23.5 78.5t-10.5 35.5q-4 12 -10.5 34.5t-14 44.5t-15 38t-11.5 16t-10.5 -11t-13.5 -26.5t-14 -33.5t-11 -33zM574 2083q31 0 61 -12.5t59.5 -30.5t59 -40t59 -40t60 -30.5t61.5 -12.5q26 0 45 10.5t32 23.5t22 23.5t16 10.5
q6 0 11 -8.5t5 -28.5q0 -35 -9.5 -70.5t-30.5 -64.5t-54.5 -47.5t-81.5 -18.5q-45 0 -83.5 17t-72.5 42.5t-63.5 55.5t-56.5 55.5t-51.5 42.5t-47.5 17q-19 0 -33.5 -11.5t-25 -28t-18 -36.5t-13.5 -36.5t-12 -28t-12 -11.5q-11 0 -11 31q0 22 9.5 60.5t31 75.5t57 64
t87.5 27z" />
    <glyph glyph-name="Adieresis" unicode="&#xc4;" 
d="M852 1679q7 0 16 -17t17.5 -39.5t16 -45t11.5 -33.5q22 -65 49 -147t57.5 -175t64 -193.5l67 -201t66.5 -198.5t63 -186.5t56.5 -163t47.5 -129.5q24 -65 47 -104t49 -62t57.5 -34t72.5 -20q30 -6 30 -22q0 -11 -11 -15t-25 -4q-22 0 -56 1t-78 1q-35 0 -75.5 -1.5
t-83.5 -4.5q-67 -5 -124 -16.5t-103 -23t-80.5 -20.5t-55.5 -9q-11 0 -17.5 5.5t-6.5 14.5q0 13 7 21t27 14q8 2 23 6t33 9t37.5 11.5t35.5 14.5q20 11 36 29t16 55q0 8 -1.5 22t-4.5 25q-18 70 -37 142t-38 137t-36 120t-31 90q-23 58 -53 88.5t-66 47.5q-10 4 -33 13
t-54.5 19.5l-67.5 22.5t-71 23.5t-65.5 21t-50.5 16.5q-24 -77 -47.5 -152.5t-43 -139t-34 -111.5t-20.5 -70q-8 -26 -11 -47t-3 -37q0 -29 8.5 -48.5t22.5 -33t32.5 -23t38.5 -18.5q17 -8 30 -17.5t13 -23.5q0 -9 -7.5 -15.5t-23.5 -6.5q-17 0 -43 8t-57.5 20t-66.5 25.5
t-70 24.5q-28 8 -58 14.5t-58 10.5t-50.5 6.5t-34.5 3.5q-25 2 -36 7t-11 19q0 10 6.5 16.5t22.5 6.5q6 0 21.5 -1t35.5 -1q48 0 80 6t54 19t36.5 32.5t26.5 46.5q12 26 29 69.5t36.5 95t39.5 107t37.5 105t30.5 88t19 57.5q8 26 22.5 71.5t32.5 101.5t36.5 116.5t34 116
t25 101t9.5 71.5q0 20 -11 33.5t-36 13.5q-22 0 -49.5 -3t-55.5 -6t-54.5 -6t-45.5 -3q-37 0 -37 26q0 24 35 27q24 1 54.5 5t64.5 11t68.5 17.5t66.5 25.5q51 23 87 47t61.5 43t42 31t26.5 12zM547 838q31 -11 79.5 -27.5t98.5 -32t92.5 -26.5t61.5 -11q12 0 21 8.5t9 26.5
q0 15 -9 54.5t-22.5 90t-29.5 106t-30 102.5t-23.5 78.5t-10.5 35.5q-4 12 -10.5 34.5t-14 44.5t-15 38t-11.5 16t-10.5 -11t-13.5 -26.5t-14 -33.5t-11 -33zM604 2085q27 0 50.5 -8t41.5 -24.5t28.5 -41t10.5 -57.5q0 -39 -11 -69t-29.5 -50.5t-44 -30.5t-54.5 -10
q-59 0 -96.5 37t-37.5 109q0 35 11 62t30.5 45.5t45.5 28t55 9.5zM954 2036q30 0 50.5 -10t33.5 -25.5t18.5 -34.5t5.5 -37q0 -55 -28.5 -92t-91.5 -37q-28 0 -47.5 9t-32 24.5t-18 37t-5.5 46.5t8 46.5t22.5 37.5t36 25.5t48.5 9.5z" />
    <glyph glyph-name="Aring" unicode="&#xc5;" 
d="M852 1679q7 0 16 -17t17.5 -39.5t16 -45t11.5 -33.5q22 -65 49 -147t57.5 -175t64 -193.5l67 -201t66.5 -198.5t63 -186.5t56.5 -163t47.5 -129.5q24 -65 47 -104t49 -62t57.5 -34t72.5 -20q30 -6 30 -22q0 -11 -11 -15t-25 -4q-22 0 -56 1t-78 1q-35 0 -75.5 -1.5
t-83.5 -4.5q-67 -5 -124 -16.5t-103 -23t-80.5 -20.5t-55.5 -9q-11 0 -17.5 5.5t-6.5 14.5q0 13 7 21t27 14q8 2 23 6t33 9t37.5 11.5t35.5 14.5q20 11 36 29t16 55q0 8 -1.5 22t-4.5 25q-18 70 -37 142t-38 137t-36 120t-31 90q-23 58 -53 88.5t-66 47.5q-10 4 -33 13
t-54.5 19.5l-67.5 22.5t-71 23.5t-65.5 21t-50.5 16.5q-24 -77 -47.5 -152.5t-43 -139t-34 -111.5t-20.5 -70q-8 -26 -11 -47t-3 -37q0 -29 8.5 -48.5t22.5 -33t32.5 -23t38.5 -18.5q17 -8 30 -17.5t13 -23.5q0 -9 -7.5 -15.5t-23.5 -6.5q-17 0 -43 8t-57.5 20t-66.5 25.5
t-70 24.5q-28 8 -58 14.5t-58 10.5t-50.5 6.5t-34.5 3.5q-25 2 -36 7t-11 19q0 10 6.5 16.5t22.5 6.5q6 0 21.5 -1t35.5 -1q48 0 80 6t54 19t36.5 32.5t26.5 46.5q12 26 29 69.5t36.5 95t39.5 107t37.5 105t30.5 88t19 57.5q8 26 22.5 71.5t32.5 101.5t36.5 116.5t34 116
t25 101t9.5 71.5q0 20 -11 33.5t-36 13.5q-22 0 -49.5 -3t-55.5 -6t-54.5 -6t-45.5 -3q-37 0 -37 26q0 24 35 27q24 1 54.5 5t64.5 11t68.5 17.5t66.5 25.5q51 23 87 47t61.5 43t42 31t26.5 12zM547 838q31 -11 79.5 -27.5t98.5 -32t92.5 -26.5t61.5 -11q12 0 21 8.5t9 26.5
q0 15 -9 54.5t-22.5 90t-29.5 106t-30 102.5t-23.5 78.5t-10.5 35.5q-4 12 -10.5 34.5t-14 44.5t-15 38t-11.5 16t-10.5 -11t-13.5 -26.5t-14 -33.5t-11 -33zM766 2255q57 0 101.5 -18.5t74.5 -51.5t45.5 -80t15.5 -104t-17.5 -107t-48 -86.5t-72.5 -57.5t-91 -21
q-112 0 -177 67t-65 191q0 64 20.5 114t54 84.5t75.5 52t84 17.5zM770 2216q-29 0 -56 -12t-48 -35.5t-33.5 -58.5t-12.5 -80q0 -46 14 -78.5t36 -53.5t49.5 -30.5t54.5 -9.5q41 0 70 16.5t48 42.5t27.5 58.5t8.5 64.5q0 37 -11 69t-31.5 56t-49.5 37.5t-66 13.5z" />
    <glyph glyph-name="AE" unicode="&#xc6;" horiz-adv-x="2402" 
d="M1995 1735q4 0 9 -1t9.5 -6t7 -15.5t2.5 -29.5q0 -34 -4 -81t-11 -98.5t-15.5 -102t-17.5 -90.5t-17 -65t-14 -25q-7 0 -8 9t-1 21q0 19 0.5 33.5t1.5 30t1.5 35t0.5 49.5q0 25 -2 51.5t-6.5 50t-12.5 43t-20 31.5q-9 9 -26 13.5t-39 4.5t-47 -3.5t-49.5 -8t-45.5 -9
t-36 -7.5q-14 -3 -35 -8.5t-44 -12.5t-45 -14t-38 -14q-28 -13 -38.5 -29t-10.5 -45q0 -15 2.5 -45.5t6.5 -69.5t9 -83t11 -87q1 -9 4 -30t7.5 -48.5t9.5 -59t10 -61.5t9 -56t7 -42q2 -9 8.5 -13.5t21.5 -4.5q19 0 52 3.5t68.5 11t68.5 20.5t53 32q18 16 31 39.5t22 49
t16 50.5t13 44.5t12.5 32t14.5 12.5t12 -9t4 -30q0 -28 -5 -70.5t-5 -101.5q0 -63 7 -117t15.5 -100t15.5 -85t7 -71q0 -25 -19 -25q-14 0 -23.5 21.5t-17.5 53t-17.5 67.5t-23.5 65t-37 41t-55 12q-23 0 -51 -2.5t-55.5 -7t-52 -10t-39.5 -10.5q-11 -5 -15 -11t-4 -20
q0 -18 3.5 -47.5t8.5 -63t10.5 -68t10.5 -63.5q2 -12 8 -44t14.5 -73.5t19.5 -87.5t23.5 -85.5t25.5 -67.5t26 -33q6 -3 14.5 -3.5t17.5 -0.5q27 0 64 7.5t79 20.5t86.5 31.5t85 40.5t74.5 46.5t56 50.5q34 40 54 92.5t31 103t14.5 91.5t4.5 59q1 41 9 53t20 12q24 0 27 -43
q1 -14 2.5 -39t3.5 -55.5t4.5 -63.5t5.5 -63q5 -55 14.5 -102.5t18.5 -83.5t15.5 -60t6.5 -32q0 -7 -16.5 -12t-43.5 -9t-60.5 -8t-67.5 -10q-102 -18 -192 -39t-171.5 -45t-155.5 -50.5t-145 -56.5q-28 -12 -67 -32.5t-83 -44.5t-89.5 -48.5t-86 -44.5t-72.5 -32.5
t-50 -12.5q-8 0 -14.5 4t-6.5 15q0 17 21.5 30t53.5 30.5t67.5 44t64.5 71.5q20 32 28.5 86t8.5 119q0 34 -2.5 82.5t-7 98t-9.5 94t-10 71.5q-5 29 -22 37t-43 8q-21 0 -45.5 -1t-49 -2.5t-46.5 -3.5t-37 -3q-52 -6 -87 -10.5t-58.5 -9.5t-37.5 -12t-24 -18
q-15 -16 -37 -54.5t-44.5 -84t-43 -90t-33.5 -72.5q-9 -18 -22 -45.5t-27 -60t-28.5 -67t-26 -67t-18.5 -60.5t-7 -46q0 -35 35 -47t106 -14q31 0 42.5 -7t11.5 -20q0 -12 -9.5 -20.5t-40.5 -8.5q-15 0 -46.5 3.5t-74.5 8t-93.5 8t-104.5 3.5q-48 0 -100.5 -4.5t-99.5 -10
t-84.5 -10t-55.5 -4.5q-43 0 -43 23q0 11 8 17.5t33 11.5q15 3 57.5 8.5t97.5 20.5t113.5 42t104.5 72q60 60 120.5 158.5t120.5 219.5t120 256t120 269q51 114 89 211t64 173.5t39 131t13 84.5q0 25 -11.5 37t-37.5 18q-21 5 -48.5 9t-57 7.5t-58 6.5t-51.5 6q-19 2 -30 5
t-17 6t-7.5 6.5t-1.5 7.5q0 9 14 13.5t52 4.5q31 0 84.5 2t120.5 7.5t143.5 15t153.5 24.5q136 26 247.5 59t194.5 62t135 48.5t70 19.5zM1212 1376q-5 0 -18 -32t-35.5 -92t-56.5 -146.5t-82 -196.5q-6 -12 -18 -40.5t-26.5 -64t-30.5 -74.5t-28.5 -72.5t-21 -57
t-8.5 -29.5q0 -8 5.5 -10t16.5 -2q52 0 85.5 1t68.5 3q45 2 85 4t69 8q21 5 33 13t18 21t7 30.5t1 40.5q0 34 -2 77.5t-4.5 87t-5.5 82t-4 62.5q-6 81 -12 151.5t-12 123t-12 82.5t-12 30z" />
    <glyph glyph-name="Ccedilla" unicode="&#xc7;" horiz-adv-x="1520" 
d="M1329 1731q14 0 17.5 -14t3.5 -36q0 -12 -2 -48t-2 -89q0 -93 7.5 -161.5t17.5 -119t21 -85.5t19 -60q6 -20 15.5 -48.5t9.5 -47.5q0 -16 -13 -16q-11 1 -26 14.5t-31.5 32.5t-32 40t-26.5 37q-45 60 -93 107t-106.5 80t-130 50t-162.5 17q-104 0 -195 -40.5
t-158.5 -123.5t-107 -208.5t-39.5 -294.5q0 -156 27.5 -277.5t73.5 -212t106.5 -153t127 -101.5t134.5 -56t129 -17q94 0 167 23t129 61.5t96 88.5t67 104.5t43 109t23 102.5q4 30 6.5 60.5t5 55.5t7 40.5t13.5 15.5q29 0 29 -102q0 -25 -3.5 -65.5t-14 -90.5t-30 -105.5
t-51.5 -110t-77.5 -105t-109 -91t-146 -66.5t-188.5 -32q-3 -15 -6.5 -35t-7.5 -39.5t-6.5 -36.5t-2.5 -26q0 -3 9 -5.5t24 -7t35 -11.5t43 -19q58 -29 92.5 -81t34.5 -130q0 -39 -14 -82t-44 -79t-77 -59.5t-113 -23.5q-61 0 -103.5 22.5t-69 54.5t-38.5 66.5t-12 59.5
q0 8 2 18.5t10 10.5q9 0 20.5 -20.5t30 -45t47.5 -45t74 -20.5q56 0 86.5 32.5t30.5 83.5q0 38 -11.5 64t-29.5 43t-38 26.5t-38 15.5t-29.5 9.5t-11.5 9.5t6.5 28t15 51t18 60t15.5 56l13 53h-9q-97 0 -195.5 20t-189 61.5t-169 106t-136.5 154t-91.5 205t-33.5 258.5
q0 171 36 300t97 223t140.5 155.5t167 98.5t177 52t169.5 15q60 0 109.5 -5t91 -10.5t76 -10.5t63.5 -5q51 0 85 21.5t50 82.5q10 42 14.5 81t9 69.5t11.5 49t22 18.5z" />
    <glyph glyph-name="Egrave" unicode="&#xc8;" horiz-adv-x="1141" 
d="M1004 1642q15 0 20.5 -7t5.5 -21q0 -18 -2.5 -41t-5.5 -57.5t-5.5 -83t-2.5 -117.5q0 -13 -4 -23t-15 -10q-16 0 -22 33q-5 21 -8.5 53.5t-10.5 79.5q-5 38 -16.5 59t-28 31t-35.5 12t-38 2q-39 0 -89.5 -3.5t-98.5 -8t-86.5 -9.5t-53.5 -9q-32 -8 -39.5 -26.5
t-7.5 -43.5q0 -22 1 -63.5t3 -95t5 -115t5.5 -123.5t5 -120t4.5 -104q22 -3 50.5 -5.5t56.5 -2.5q33 0 55.5 4.5t38 12.5t24.5 19.5t15 25.5q6 15 8.5 29t5.5 32q3 19 9 25t12 6q14 0 14 -25q0 -22 -2.5 -54t-5.5 -67t-5.5 -71t-2.5 -66q0 -27 0.5 -54t1.5 -50t1.5 -41
t0.5 -27q0 -14 -5.5 -26.5t-19.5 -12.5q-23 0 -26 41q-1 10 -1.5 28t-1.5 38t-3.5 40t-6.5 34q-5 17 -18 33.5t-41 25.5q-12 4 -29.5 7t-38 5t-42 3.5t-40.5 2.5q3 -50 7.5 -123.5t10 -155t11.5 -164.5t11 -152t8.5 -116.5t5.5 -58.5q4 -41 21 -60t54 -24q40 -6 97 -6
q76 0 134 8t101 28t73 53.5t50 84.5q11 27 18.5 53.5t13 47.5t10.5 34t11 13q8 0 11.5 -18.5t3.5 -43.5q0 -36 -3.5 -79.5t-9.5 -85.5t-13.5 -78t-14.5 -56q-13 -32 -35 -44.5t-59 -12.5q-32 0 -87 5.5t-126.5 13t-154 15.5t-169.5 13q-67 4 -127.5 6t-110.5 3t-87 1h-58
q-28 0 -36.5 7.5t-8.5 19.5q0 15 11 21t28 6q11 0 37.5 -2.5t64.5 -2.5q13 0 26.5 0.5t29.5 2.5q36 1 55.5 12.5t28.5 27t10.5 32.5t1.5 30q-2 97 -10.5 207.5t-18 215.5t-19 193t-14.5 140q-3 34 -8 81.5t-11.5 101.5t-14 110.5t-15 110t-15 99.5t-13.5 78q-8 39 -17.5 67
t-20.5 49t-23.5 36t-27.5 26q-11 9 -26 17.5t-28.5 16.5t-22.5 15.5t-9 16.5q0 16 27 16q14 0 39 -3.5t62.5 -7.5t89 -7.5t118.5 -3.5q52 0 117 5.5t133.5 13t135.5 17t122 17t92.5 13t47.5 5.5zM242 2136q19 0 40.5 -13t44 -35.5t45.5 -52t44 -62.5q24 -36 46 -70.5
t38.5 -64.5t26.5 -54.5t10 -42.5q0 -11 -5 -19t-16 -8q-12 0 -34.5 14.5t-51 38t-60.5 53.5t-62 62q-24 24 -48.5 49t-44 49.5t-31.5 47.5t-12 43q0 34 22 49.5t48 15.5z" />
    <glyph glyph-name="Eacute" unicode="&#xc9;" horiz-adv-x="1141" 
d="M1004 1642q15 0 20.5 -7t5.5 -21q0 -18 -2.5 -41t-5.5 -57.5t-5.5 -83t-2.5 -117.5q0 -13 -4 -23t-15 -10q-16 0 -22 33q-5 21 -8.5 53.5t-10.5 79.5q-5 38 -16.5 59t-28 31t-35.5 12t-38 2q-39 0 -89.5 -3.5t-98.5 -8t-86.5 -9.5t-53.5 -9q-32 -8 -39.5 -26.5
t-7.5 -43.5q0 -22 1 -63.5t3 -95t5 -115t5.5 -123.5t5 -120t4.5 -104q22 -3 50.5 -5.5t56.5 -2.5q33 0 55.5 4.5t38 12.5t24.5 19.5t15 25.5q6 15 8.5 29t5.5 32q3 19 9 25t12 6q14 0 14 -25q0 -22 -2.5 -54t-5.5 -67t-5.5 -71t-2.5 -66q0 -27 0.5 -54t1.5 -50t1.5 -41
t0.5 -27q0 -14 -5.5 -26.5t-19.5 -12.5q-23 0 -26 41q-1 10 -1.5 28t-1.5 38t-3.5 40t-6.5 34q-5 17 -18 33.5t-41 25.5q-12 4 -29.5 7t-38 5t-42 3.5t-40.5 2.5q3 -50 7.5 -123.5t10 -155t11.5 -164.5t11 -152t8.5 -116.5t5.5 -58.5q4 -41 21 -60t54 -24q40 -6 97 -6
q76 0 134 8t101 28t73 53.5t50 84.5q11 27 18.5 53.5t13 47.5t10.5 34t11 13q8 0 11.5 -18.5t3.5 -43.5q0 -36 -3.5 -79.5t-9.5 -85.5t-13.5 -78t-14.5 -56q-13 -32 -35 -44.5t-59 -12.5q-32 0 -87 5.5t-126.5 13t-154 15.5t-169.5 13q-67 4 -127.5 6t-110.5 3t-87 1h-58
q-28 0 -36.5 7.5t-8.5 19.5q0 15 11 21t28 6q11 0 37.5 -2.5t64.5 -2.5q13 0 26.5 0.5t29.5 2.5q36 1 55.5 12.5t28.5 27t10.5 32.5t1.5 30q-2 97 -10.5 207.5t-18 215.5t-19 193t-14.5 140q-3 34 -8 81.5t-11.5 101.5t-14 110.5t-15 110t-15 99.5t-13.5 78q-8 39 -17.5 67
t-20.5 49t-23.5 36t-27.5 26q-11 9 -26 17.5t-28.5 16.5t-22.5 15.5t-9 16.5q0 16 27 16q14 0 39 -3.5t62.5 -7.5t89 -7.5t118.5 -3.5q52 0 117 5.5t133.5 13t135.5 17t122 17t92.5 13t47.5 5.5zM772 2151q20 0 29.5 -12t9.5 -33q0 -18 -11.5 -45.5t-29.5 -59.5t-40.5 -67
t-45.5 -66q-42 -57 -79 -94t-54 -37q-10 0 -12.5 5.5t-2.5 15.5q0 14 10 48.5t27.5 78t40.5 90.5t49 86t54 64.5t55 25.5z" />
    <glyph glyph-name="Ecircumflex" unicode="&#xca;" horiz-adv-x="1141" 
d="M1004 1642q15 0 20.5 -7t5.5 -21q0 -18 -2.5 -41t-5.5 -57.5t-5.5 -83t-2.5 -117.5q0 -13 -4 -23t-15 -10q-16 0 -22 33q-5 21 -8.5 53.5t-10.5 79.5q-5 38 -16.5 59t-28 31t-35.5 12t-38 2q-39 0 -89.5 -3.5t-98.5 -8t-86.5 -9.5t-53.5 -9q-32 -8 -39.5 -26.5
t-7.5 -43.5q0 -22 1 -63.5t3 -95t5 -115t5.5 -123.5t5 -120t4.5 -104q22 -3 50.5 -5.5t56.5 -2.5q33 0 55.5 4.5t38 12.5t24.5 19.5t15 25.5q6 15 8.5 29t5.5 32q3 19 9 25t12 6q14 0 14 -25q0 -22 -2.5 -54t-5.5 -67t-5.5 -71t-2.5 -66q0 -27 0.5 -54t1.5 -50t1.5 -41
t0.5 -27q0 -14 -5.5 -26.5t-19.5 -12.5q-23 0 -26 41q-1 10 -1.5 28t-1.5 38t-3.5 40t-6.5 34q-5 17 -18 33.5t-41 25.5q-12 4 -29.5 7t-38 5t-42 3.5t-40.5 2.5q3 -50 7.5 -123.5t10 -155t11.5 -164.5t11 -152t8.5 -116.5t5.5 -58.5q4 -41 21 -60t54 -24q40 -6 97 -6
q76 0 134 8t101 28t73 53.5t50 84.5q11 27 18.5 53.5t13 47.5t10.5 34t11 13q8 0 11.5 -18.5t3.5 -43.5q0 -36 -3.5 -79.5t-9.5 -85.5t-13.5 -78t-14.5 -56q-13 -32 -35 -44.5t-59 -12.5q-32 0 -87 5.5t-126.5 13t-154 15.5t-169.5 13q-67 4 -127.5 6t-110.5 3t-87 1h-58
q-28 0 -36.5 7.5t-8.5 19.5q0 15 11 21t28 6q11 0 37.5 -2.5t64.5 -2.5q13 0 26.5 0.5t29.5 2.5q36 1 55.5 12.5t28.5 27t10.5 32.5t1.5 30q-2 97 -10.5 207.5t-18 215.5t-19 193t-14.5 140q-3 34 -8 81.5t-11.5 101.5t-14 110.5t-15 110t-15 99.5t-13.5 78q-8 39 -17.5 67
t-20.5 49t-23.5 36t-27.5 26q-11 9 -26 17.5t-28.5 16.5t-22.5 15.5t-9 16.5q0 16 27 16q14 0 39 -3.5t62.5 -7.5t89 -7.5t118.5 -3.5q52 0 117 5.5t133.5 13t135.5 17t122 17t92.5 13t47.5 5.5zM573 2210q10 0 19.5 -13t28.5 -38q24 -33 43 -56.5t36.5 -43t35.5 -37.5
t40 -39q48 -45 84.5 -71.5t61.5 -43.5t38 -29t13 -28q0 -11 -9.5 -17t-21.5 -6q-19 0 -44 7t-52.5 19t-55.5 28t-53 34q-44 34 -76 63.5t-53.5 51.5t-34.5 34.5t-20 12.5q-6 0 -20 -14t-35.5 -38t-51.5 -55t-67 -65q-29 -26 -56.5 -49.5t-51 -41t-42 -28t-30.5 -10.5
q-3 0 -6 1.5t-3 6.5q0 9 25 34t65.5 66.5t90.5 99t100 130.5q18 28 34 52.5t28.5 43t22.5 29t17 10.5z" />
    <glyph glyph-name="Edieresis" unicode="&#xcb;" horiz-adv-x="1141" 
d="M1004 1642q15 0 20.5 -7t5.5 -21q0 -18 -2.5 -41t-5.5 -57.5t-5.5 -83t-2.5 -117.5q0 -13 -4 -23t-15 -10q-16 0 -22 33q-5 21 -8.5 53.5t-10.5 79.5q-5 38 -16.5 59t-28 31t-35.5 12t-38 2q-39 0 -89.5 -3.5t-98.5 -8t-86.5 -9.5t-53.5 -9q-32 -8 -39.5 -26.5
t-7.5 -43.5q0 -22 1 -63.5t3 -95t5 -115t5.5 -123.5t5 -120t4.5 -104q22 -3 50.5 -5.5t56.5 -2.5q33 0 55.5 4.5t38 12.5t24.5 19.5t15 25.5q6 15 8.5 29t5.5 32q3 19 9 25t12 6q14 0 14 -25q0 -22 -2.5 -54t-5.5 -67t-5.5 -71t-2.5 -66q0 -27 0.5 -54t1.5 -50t1.5 -41
t0.5 -27q0 -14 -5.5 -26.5t-19.5 -12.5q-23 0 -26 41q-1 10 -1.5 28t-1.5 38t-3.5 40t-6.5 34q-5 17 -18 33.5t-41 25.5q-12 4 -29.5 7t-38 5t-42 3.5t-40.5 2.5q3 -50 7.5 -123.5t10 -155t11.5 -164.5t11 -152t8.5 -116.5t5.5 -58.5q4 -41 21 -60t54 -24q40 -6 97 -6
q76 0 134 8t101 28t73 53.5t50 84.5q11 27 18.5 53.5t13 47.5t10.5 34t11 13q8 0 11.5 -18.5t3.5 -43.5q0 -36 -3.5 -79.5t-9.5 -85.5t-13.5 -78t-14.5 -56q-13 -32 -35 -44.5t-59 -12.5q-32 0 -87 5.5t-126.5 13t-154 15.5t-169.5 13q-67 4 -127.5 6t-110.5 3t-87 1h-58
q-28 0 -36.5 7.5t-8.5 19.5q0 15 11 21t28 6q11 0 37.5 -2.5t64.5 -2.5q13 0 26.5 0.5t29.5 2.5q36 1 55.5 12.5t28.5 27t10.5 32.5t1.5 30q-2 97 -10.5 207.5t-18 215.5t-19 193t-14.5 140q-3 34 -8 81.5t-11.5 101.5t-14 110.5t-15 110t-15 99.5t-13.5 78q-8 39 -17.5 67
t-20.5 49t-23.5 36t-27.5 26q-11 9 -26 17.5t-28.5 16.5t-22.5 15.5t-9 16.5q0 16 27 16q14 0 39 -3.5t62.5 -7.5t89 -7.5t118.5 -3.5q52 0 117 5.5t133.5 13t135.5 17t122 17t92.5 13t47.5 5.5zM398 2028q27 0 50.5 -8t41.5 -24.5t28.5 -41t10.5 -57.5q0 -39 -11 -69
t-29.5 -50.5t-44 -30.5t-54.5 -10q-59 0 -96.5 37t-37.5 109q0 35 11 62t30.5 45.5t45.5 28t55 9.5zM748 1979q30 0 50.5 -10t33.5 -25.5t18.5 -34.5t5.5 -37q0 -55 -28.5 -92t-91.5 -37q-28 0 -47.5 9t-32 24.5t-18 37t-5.5 46.5t8 46.5t22.5 37.5t36 25.5t48.5 9.5z" />
    <glyph glyph-name="Igrave" unicode="&#xcc;" horiz-adv-x="899" 
d="M918 1733q34 0 53.5 -3.5t30 -8.5t13.5 -11.5t3 -13.5q0 -17 -21.5 -27t-70.5 -10q-50 0 -93 -3t-81 -14q-34 -9 -62 -26.5t-50.5 -46.5t-39.5 -71t-29 -101q-13 -64 -26.5 -165t-27 -223.5t-25.5 -258.5t-21 -270t-14.5 -258t-5.5 -222q0 -56 9.5 -88.5t24 -49.5
t30.5 -23t28 -9q28 -8 64 -9t61 -1q49 0 49 -27q0 -12 -11.5 -22.5t-50.5 -10.5q-20 0 -45.5 1t-56.5 1q-43 0 -97 -3.5t-120 -12.5q-65 -9 -128 -29t-118 -40t-98 -35t-68 -15q-26 0 -26 23q0 17 24 26q8 3 41 14.5t74 26.5t80 30.5t59 27.5q30 17 49.5 38t31.5 46.5
t17.5 55.5t8.5 65q2 40 4 114t3.5 170t2 208t0.5 228q0 94 -0.5 186.5t-1 176t-2 153.5t-2.5 121q-2 75 -10.5 122.5t-21.5 77t-29.5 45.5t-35.5 28q-30 20 -80.5 29.5t-101.5 9.5q-23 0 -33 8.5t-10 19.5q0 6 2 11.5t8 10.5t18.5 8t33.5 3q27 0 70.5 -3t95.5 -6t110 -6
t115 -3q61 0 126 6.5t130 14t127 14t117 6.5zM248 2234q19 0 40.5 -13t44 -35.5t45.5 -52t44 -62.5q24 -36 46 -70.5t38.5 -64.5t26.5 -54.5t10 -42.5q0 -11 -5 -19t-16 -8q-12 0 -34.5 14.5t-51 38t-60.5 53.5t-62 62q-24 24 -48.5 49t-44 49.5t-31.5 47.5t-12 43
q0 34 22 49.5t48 15.5z" />
    <glyph glyph-name="Iacute" unicode="&#xcd;" horiz-adv-x="899" 
d="M918 1733q34 0 53.5 -3.5t30 -8.5t13.5 -11.5t3 -13.5q0 -17 -21.5 -27t-70.5 -10q-50 0 -93 -3t-81 -14q-34 -9 -62 -26.5t-50.5 -46.5t-39.5 -71t-29 -101q-13 -64 -26.5 -165t-27 -223.5t-25.5 -258.5t-21 -270t-14.5 -258t-5.5 -222q0 -56 9.5 -88.5t24 -49.5
t30.5 -23t28 -9q28 -8 64 -9t61 -1q49 0 49 -27q0 -12 -11.5 -22.5t-50.5 -10.5q-20 0 -45.5 1t-56.5 1q-43 0 -97 -3.5t-120 -12.5q-65 -9 -128 -29t-118 -40t-98 -35t-68 -15q-26 0 -26 23q0 17 24 26q8 3 41 14.5t74 26.5t80 30.5t59 27.5q30 17 49.5 38t31.5 46.5
t17.5 55.5t8.5 65q2 40 4 114t3.5 170t2 208t0.5 228q0 94 -0.5 186.5t-1 176t-2 153.5t-2.5 121q-2 75 -10.5 122.5t-21.5 77t-29.5 45.5t-35.5 28q-30 20 -80.5 29.5t-101.5 9.5q-23 0 -33 8.5t-10 19.5q0 6 2 11.5t8 10.5t18.5 8t33.5 3q27 0 70.5 -3t95.5 -6t110 -6
t115 -3q61 0 126 6.5t130 14t127 14t117 6.5zM743 2228q20 0 29.5 -12t9.5 -33q0 -18 -11.5 -45.5t-29.5 -59.5t-40.5 -67t-45.5 -66q-42 -57 -79 -94t-54 -37q-10 0 -12.5 5.5t-2.5 15.5q0 14 10 48.5t27.5 78t40.5 90.5t49 86t54 64.5t55 25.5z" />
    <glyph glyph-name="Icircumflex" unicode="&#xce;" horiz-adv-x="899" 
d="M918 1733q34 0 53.5 -3.5t30 -8.5t13.5 -11.5t3 -13.5q0 -17 -21.5 -27t-70.5 -10q-50 0 -93 -3t-81 -14q-34 -9 -62 -26.5t-50.5 -46.5t-39.5 -71t-29 -101q-13 -64 -26.5 -165t-27 -223.5t-25.5 -258.5t-21 -270t-14.5 -258t-5.5 -222q0 -56 9.5 -88.5t24 -49.5
t30.5 -23t28 -9q28 -8 64 -9t61 -1q49 0 49 -27q0 -12 -11.5 -22.5t-50.5 -10.5q-20 0 -45.5 1t-56.5 1q-43 0 -97 -3.5t-120 -12.5q-65 -9 -128 -29t-118 -40t-98 -35t-68 -15q-26 0 -26 23q0 17 24 26q8 3 41 14.5t74 26.5t80 30.5t59 27.5q30 17 49.5 38t31.5 46.5
t17.5 55.5t8.5 65q2 40 4 114t3.5 170t2 208t0.5 228q0 94 -0.5 186.5t-1 176t-2 153.5t-2.5 121q-2 75 -10.5 122.5t-21.5 77t-29.5 45.5t-35.5 28q-30 20 -80.5 29.5t-101.5 9.5q-23 0 -33 8.5t-10 19.5q0 6 2 11.5t8 10.5t18.5 8t33.5 3q27 0 70.5 -3t95.5 -6t110 -6
t115 -3q61 0 126 6.5t130 14t127 14t117 6.5zM507 2275q10 0 19.5 -13t28.5 -38q24 -33 43 -56.5t36.5 -43t35.5 -37.5t40 -39q48 -45 84.5 -71.5t61.5 -43.5t38 -29t13 -28q0 -11 -9.5 -17t-21.5 -6q-19 0 -44 7t-52.5 19t-55.5 28t-53 34q-44 34 -76 63.5t-53.5 51.5
t-34.5 34.5t-20 12.5q-6 0 -20 -14t-35.5 -38t-51.5 -55t-67 -65q-29 -26 -56.5 -49.5t-51 -41t-42 -28t-30.5 -10.5q-3 0 -6 1.5t-3 6.5q0 9 25 34t65.5 66.5t90.5 99t100 130.5q18 28 34 52.5t28.5 43t22.5 29t17 10.5z" />
    <glyph glyph-name="Idieresis" unicode="&#xcf;" horiz-adv-x="899" 
d="M918 1733q34 0 53.5 -3.5t30 -8.5t13.5 -11.5t3 -13.5q0 -17 -21.5 -27t-70.5 -10q-50 0 -93 -3t-81 -14q-34 -9 -62 -26.5t-50.5 -46.5t-39.5 -71t-29 -101q-13 -64 -26.5 -165t-27 -223.5t-25.5 -258.5t-21 -270t-14.5 -258t-5.5 -222q0 -56 9.5 -88.5t24 -49.5
t30.5 -23t28 -9q28 -8 64 -9t61 -1q49 0 49 -27q0 -12 -11.5 -22.5t-50.5 -10.5q-20 0 -45.5 1t-56.5 1q-43 0 -97 -3.5t-120 -12.5q-65 -9 -128 -29t-118 -40t-98 -35t-68 -15q-26 0 -26 23q0 17 24 26q8 3 41 14.5t74 26.5t80 30.5t59 27.5q30 17 49.5 38t31.5 46.5
t17.5 55.5t8.5 65q2 40 4 114t3.5 170t2 208t0.5 228q0 94 -0.5 186.5t-1 176t-2 153.5t-2.5 121q-2 75 -10.5 122.5t-21.5 77t-29.5 45.5t-35.5 28q-30 20 -80.5 29.5t-101.5 9.5q-23 0 -33 8.5t-10 19.5q0 6 2 11.5t8 10.5t18.5 8t33.5 3q27 0 70.5 -3t95.5 -6t110 -6
t115 -3q61 0 126 6.5t130 14t127 14t117 6.5zM314 2136q27 0 50.5 -8t41.5 -24.5t28.5 -41t10.5 -57.5q0 -39 -11 -69t-29.5 -50.5t-44 -30.5t-54.5 -10q-59 0 -96.5 37t-37.5 109q0 35 11 62t30.5 45.5t45.5 28t55 9.5zM664 2087q30 0 50.5 -10t33.5 -25.5t18.5 -34.5
t5.5 -37q0 -55 -28.5 -92t-91.5 -37q-28 0 -47.5 9t-32 24.5t-18 37t-5.5 46.5t8 46.5t22.5 37.5t36 25.5t48.5 9.5z" />
    <glyph glyph-name="Eth" unicode="&#xd0;" horiz-adv-x="1497" 
d="M414 1180q57 4 106 11t94.5 14t90.5 11.5t96 4.5q84 0 170 -14t165.5 -46t149 -82.5t121 -124t81.5 -171t30 -222.5q0 -119 -31.5 -217t-87 -176.5t-130 -138t-161.5 -101.5q-108 -51 -207 -77t-189 -41t-172.5 -26.5t-158.5 -33.5t-137.5 -53.5t-108 -60t-76.5 -48.5
t-43 -20q-16 0 -16 14q0 15 27 35.5t65.5 49t81 65t74.5 82.5q25 37 40 104t22.5 149t9.5 172t2 175q-36 -6 -73 -11.5t-71 -10t-63 -7t-49 -2.5q-10 0 -21.5 7t-11.5 24q0 20 12.5 27.5t26.5 9.5q106 9 252 30q2 57 4 133t2 154q0 63 -1.5 122.5t-6.5 110.5q-2 31 -11 49.5
t-22.5 28.5t-31.5 14t-39 5t-43.5 1t-45.5 3q-25 3 -34 14t-9 25q0 12 11.5 24.5t49.5 12.5q14 0 45.5 -2t79.5 -2q58 0 142 6zM719 539q20 0 29.5 -7t9.5 -16q0 -18 -20 -27.5t-46 -15.5q-32 -8 -65 -13t-80 -11q0 -43 1 -97t3.5 -111t6.5 -112.5t9 -101.5
q5 -41 15.5 -67.5t27 -42.5t39.5 -22t53 -6q28 0 64 9.5t74 27t74.5 41t66.5 51.5q37 36 69 85t55.5 115t36.5 152t13 197q0 120 -32 225t-94 183t-152 123t-207 45q-34 0 -63 -6t-40 -17q-8 -8 -12.5 -26.5t-6.5 -39.5t-2.5 -42t-0.5 -35v-463q66 11 110 18t64 7z" />
    <glyph glyph-name="Ntilde" unicode="&#xd1;" horiz-adv-x="1638" 
d="M475 1468q21 -8 56.5 -40.5t81 -82.5t101 -113t117.5 -130q46 -50 91.5 -101.5t87.5 -99.5t79.5 -90t68 -73.5t53.5 -49.5t36 -18q8 0 14 17t10.5 45t7.5 63t5 71t3 70t1 59q0 34 -1.5 76t-4.5 81.5t-8.5 72t-13.5 49.5q-12 24 -27 40t-37 26.5t-53 16.5t-76 11
q-29 3 -40 10t-11 21t11 18t24 4q10 0 30.5 -1.5t48.5 -3t60.5 -2.5t66.5 -1q55 0 109 8t101 17.5t84 17.5t57 8q30 0 30 -24q0 -16 -12.5 -23t-26.5 -10q-18 -4 -33 -6.5t-29 -5.5t-29 -7.5t-33 -11.5q-15 -5 -29.5 -15t-27.5 -26.5t-23.5 -41t-16.5 -58.5
q-6 -36 -10.5 -100.5t-8.5 -144t-6.5 -167t-5 -169t-4 -151t-2.5 -112.5q-3 -159 -9.5 -235t-20.5 -76q-8 0 -30.5 20.5t-53.5 55t-69 80t-78 95t-80 101t-75 97t-63.5 83t-44.5 60.5q-196 270 -300.5 408.5t-129.5 138.5q-5 0 -7.5 -30t-4 -81t-2 -119t-0.5 -145
q0 -99 0.5 -204.5t0.5 -199.5t0.5 -166.5t0.5 -105.5q0 -59 1.5 -121t6 -117.5t12.5 -101t21 -70.5q18 -35 39 -59t44.5 -41t49.5 -28t53 -19q23 -8 34 -14t11 -17q0 -18 -31 -18q-18 0 -44 6t-56.5 14.5t-64.5 18.5t-68 18q-38 9 -76 14t-74 5q-24 0 -49.5 -1.5t-47.5 -3
t-38 -3t-22 -1.5q-19 0 -37.5 3t-18.5 20q0 12 13 16t35 4q29 0 65.5 7.5t67.5 27.5q42 28 64 74.5t30 118.5q4 34 6.5 70.5t4 81t2.5 101.5t1 132q0 32 -1 68.5t-1 76.5q0 27 -0.5 75.5t-0.5 110.5t-1 133.5t-3 143.5t-5 141.5t-8 128t-12 101.5t-17 63q-11 22 -30 34
t-45 18t-58.5 7.5t-69.5 2.5q-24 0 -40.5 6.5t-16.5 27.5q0 16 11 23.5t28 7.5h86q61 0 154 6q43 3 85.5 9t73.5 6q11 0 21 -1.5t16 -5.5zM838 1966q31 0 61 -12.5t59.5 -30.5t59 -40t59 -40t60 -30.5t61.5 -12.5q26 0 45 10.5t32 23.5t22 23.5t16 10.5q6 0 11 -8.5t5 -28.5
q0 -35 -9.5 -70.5t-30.5 -64.5t-54.5 -47.5t-81.5 -18.5q-45 0 -83.5 17t-72.5 42.5t-63.5 55.5t-56.5 55.5t-51.5 42.5t-47.5 17q-19 0 -33.5 -11.5t-25 -28t-18 -36.5t-13.5 -36.5t-12 -28t-12 -11.5q-11 0 -11 31q0 22 9.5 60.5t31 75.5t57 64t87.5 27z" />
    <glyph glyph-name="Ograve" unicode="&#xd2;" horiz-adv-x="1530" 
d="M731 1561q177 0 322 -56t248.5 -156.5t160 -239t56.5 -304.5q0 -94 -20 -187t-60 -177t-101.5 -156t-144 -125t-187 -83t-231.5 -30q-189 0 -332 57.5t-239 160t-144.5 244t-48.5 308.5q0 163 53 299.5t148.5 235.5t228 154t291.5 55zM690 1509q-98 0 -176.5 -44
t-134 -125.5t-85.5 -197t-30 -259.5q0 -83 11.5 -173t36.5 -177t66 -165t100 -137t137.5 -94t179.5 -35q120 0 202 48.5t132.5 127.5t73 179.5t22.5 204.5q0 87 -9.5 184t-33 191t-63 179.5t-99 150.5t-141 103.5t-189.5 38.5zM428 2171q19 0 40.5 -13t44 -35.5t45.5 -52
t44 -62.5q24 -36 46 -70.5t38.5 -64.5t26.5 -54.5t10 -42.5q0 -11 -5 -19t-16 -8q-12 0 -34.5 14.5t-51 38t-60.5 53.5t-62 62q-24 24 -48.5 49t-44 49.5t-31.5 47.5t-12 43q0 34 22 49.5t48 15.5z" />
    <glyph glyph-name="Oacute" unicode="&#xd3;" horiz-adv-x="1530" 
d="M731 1561q177 0 322 -56t248.5 -156.5t160 -239t56.5 -304.5q0 -94 -20 -187t-60 -177t-101.5 -156t-144 -125t-187 -83t-231.5 -30q-189 0 -332 57.5t-239 160t-144.5 244t-48.5 308.5q0 163 53 299.5t148.5 235.5t228 154t291.5 55zM690 1509q-98 0 -176.5 -44
t-134 -125.5t-85.5 -197t-30 -259.5q0 -83 11.5 -173t36.5 -177t66 -165t100 -137t137.5 -94t179.5 -35q120 0 202 48.5t132.5 127.5t73 179.5t22.5 204.5q0 87 -9.5 184t-33 191t-63 179.5t-99 150.5t-141 103.5t-189.5 38.5zM885 2142q20 0 29.5 -12t9.5 -33
q0 -18 -11.5 -45.5t-29.5 -59.5t-40.5 -67t-45.5 -66q-42 -57 -79 -94t-54 -37q-10 0 -12.5 5.5t-2.5 15.5q0 14 10 48.5t27.5 78t40.5 90.5t49 86t54 64.5t55 25.5z" />
    <glyph glyph-name="Ocircumflex" unicode="&#xd4;" horiz-adv-x="1530" 
d="M731 1561q177 0 322 -56t248.5 -156.5t160 -239t56.5 -304.5q0 -94 -20 -187t-60 -177t-101.5 -156t-144 -125t-187 -83t-231.5 -30q-189 0 -332 57.5t-239 160t-144.5 244t-48.5 308.5q0 163 53 299.5t148.5 235.5t228 154t291.5 55zM690 1509q-98 0 -176.5 -44
t-134 -125.5t-85.5 -197t-30 -259.5q0 -83 11.5 -173t36.5 -177t66 -165t100 -137t137.5 -94t179.5 -35q120 0 202 48.5t132.5 127.5t73 179.5t22.5 204.5q0 87 -9.5 184t-33 191t-63 179.5t-99 150.5t-141 103.5t-189.5 38.5zM706 2136q10 0 19.5 -13t28.5 -38
q24 -33 43 -56.5t36.5 -43t35.5 -37.5t40 -39q48 -45 84.5 -71.5t61.5 -43.5t38 -29t13 -28q0 -11 -9.5 -17t-21.5 -6q-19 0 -44 7t-52.5 19t-55.5 28t-53 34q-44 34 -76 63.5t-53.5 51.5t-34.5 34.5t-20 12.5q-6 0 -20 -14t-35.5 -38t-51.5 -55t-67 -65
q-29 -26 -56.5 -49.5t-51 -41t-42 -28t-30.5 -10.5q-3 0 -6 1.5t-3 6.5q0 9 25 34t65.5 66.5t90.5 99t100 130.5q18 28 34 52.5t28.5 43t22.5 29t17 10.5z" />
    <glyph glyph-name="Otilde" unicode="&#xd5;" horiz-adv-x="1530" 
d="M731 1561q177 0 322 -56t248.5 -156.5t160 -239t56.5 -304.5q0 -94 -20 -187t-60 -177t-101.5 -156t-144 -125t-187 -83t-231.5 -30q-189 0 -332 57.5t-239 160t-144.5 244t-48.5 308.5q0 163 53 299.5t148.5 235.5t228 154t291.5 55zM690 1509q-98 0 -176.5 -44
t-134 -125.5t-85.5 -197t-30 -259.5q0 -83 11.5 -173t36.5 -177t66 -165t100 -137t137.5 -94t179.5 -35q120 0 202 48.5t132.5 127.5t73 179.5t22.5 204.5q0 87 -9.5 184t-33 191t-63 179.5t-99 150.5t-141 103.5t-189.5 38.5zM613 2046q31 0 61 -12.5t59.5 -30.5t59 -40
t59 -40t60 -30.5t61.5 -12.5q26 0 45 10.5t32 23.5t22 23.5t16 10.5q6 0 11 -8.5t5 -28.5q0 -35 -9.5 -70.5t-30.5 -64.5t-54.5 -47.5t-81.5 -18.5q-45 0 -83.5 17t-72.5 42.5t-63.5 55.5t-56.5 55.5t-51.5 42.5t-47.5 17q-19 0 -33.5 -11.5t-25 -28t-18 -36.5t-13.5 -36.5
t-12 -28t-12 -11.5q-11 0 -11 31q0 22 9.5 60.5t31 75.5t57 64t87.5 27z" />
    <glyph glyph-name="Odieresis" unicode="&#xd6;" horiz-adv-x="1530" 
d="M731 1561q177 0 322 -56t248.5 -156.5t160 -239t56.5 -304.5q0 -94 -20 -187t-60 -177t-101.5 -156t-144 -125t-187 -83t-231.5 -30q-189 0 -332 57.5t-239 160t-144.5 244t-48.5 308.5q0 163 53 299.5t148.5 235.5t228 154t291.5 55zM690 1509q-98 0 -176.5 -44
t-134 -125.5t-85.5 -197t-30 -259.5q0 -83 11.5 -173t36.5 -177t66 -165t100 -137t137.5 -94t179.5 -35q120 0 202 48.5t132.5 127.5t73 179.5t22.5 204.5q0 87 -9.5 184t-33 191t-63 179.5t-99 150.5t-141 103.5t-189.5 38.5zM586 2073q27 0 50.5 -8t41.5 -24.5t28.5 -41
t10.5 -57.5q0 -39 -11 -69t-29.5 -50.5t-44 -30.5t-54.5 -10q-59 0 -96.5 37t-37.5 109q0 35 11 62t30.5 45.5t45.5 28t55 9.5zM936 2024q30 0 50.5 -10t33.5 -25.5t18.5 -34.5t5.5 -37q0 -55 -28.5 -92t-91.5 -37q-28 0 -47.5 9t-32 24.5t-18 37t-5.5 46.5t8 46.5
t22.5 37.5t36 25.5t48.5 9.5z" />
    <glyph glyph-name="multiply" unicode="&#xd7;" horiz-adv-x="1108" 
d="M215 956q13 0 30 -9.5t37.5 -25.5t44.5 -37t50 -44q25 -23 43.5 -39t33 -28t26.5 -21.5t24 -18.5q6 -5 20 -14.5t23 -9.5q5 0 21.5 17.5t39 45.5t48.5 62t51 67t45.5 61t31.5 44q15 21 41.5 55t55 66.5t55 56.5t41.5 24t21 -8.5t6 -19.5q0 -28 -45.5 -87.5t-139.5 -168.5
q-45 -53 -83 -99t-65.5 -81.5t-43 -58.5t-15.5 -30q0 -5 3.5 -9t7.5 -7q12 -12 41.5 -35.5t65 -49.5t70.5 -52.5t58 -44.5q41 -32 41 -56q0 -8 -5.5 -15t-21.5 -7q-19 0 -47 15t-59 37t-63 48t-60 48t-49 37.5t-31 15.5q-7 0 -26.5 -22t-46 -56.5t-56 -76.5t-56.5 -81.5
t-47.5 -70.5t-29.5 -44t-21 -32.5t-26.5 -41.5t-30.5 -44t-31.5 -40t-30.5 -29t-28 -11q-14 0 -22.5 9.5t-8.5 25.5q0 22 18.5 56.5t46.5 74.5t60.5 82t61.5 79q6 9 22 29.5t35.5 47t40.5 56.5t38.5 57t28.5 48t11 31q0 7 -14.5 23.5t-34.5 36.5t-41 40t-33 33
q-13 14 -37.5 38t-49 50.5t-42.5 50.5t-18 37q0 6 4 13t16 7z" />
    <glyph glyph-name="Oslash" unicode="&#xd8;" horiz-adv-x="1530" 
d="M1456 1800q17 0 17 -20q0 -16 -23 -59t-57.5 -98.5t-75 -115.5t-74.5 -110q130 -100 202.5 -251.5t72.5 -340.5q0 -94 -20 -187t-60 -177t-101.5 -156t-144 -125t-187 -83t-231.5 -30q-130 0 -237.5 27t-194.5 78q-34 -48 -64.5 -91.5t-56.5 -78.5q-34 -45 -56 -74
t-42 -29q-9 0 -16 5.5t-7 19.5q0 25 31 76.5t82 123.5l66 93q-135 102 -202 261.5t-67 358.5q0 163 53 299.5t148.5 235.5t228 154t291.5 55q128 0 240 -30.5t205 -86.5l133 186q54 76 89 123t58 47zM690 1509q-98 0 -176.5 -44t-134 -125.5t-85.5 -197t-30 -259.5
q0 -65 7 -134t21.5 -138.5t38 -136t56.5 -124.5l88 125q58 84 130.5 185t150.5 208.5t159 217.5t156 214q-31 47 -69 85.5t-85.5 66t-103.5 42.5t-123 15zM1225 662q0 66 -5.5 137.5t-18 143.5t-33 142t-50.5 134q-48 -67 -106 -147.5t-121 -166.5t-127 -173.5t-124 -169.5
t-113 -154t-93 -127q61 -80 150 -129.5t211 -49.5q120 0 202 48.5t132.5 127.5t73 179.5t22.5 204.5z" />
    <glyph glyph-name="Ugrave" unicode="&#xd9;" horiz-adv-x="1415" 
d="M848 1614q26 0 26 -21q0 -15 -13.5 -27t-47.5 -28q-18 -8 -39.5 -19t-44 -25.5t-44.5 -34t-42 -44.5q-26 -32 -45 -82t-32.5 -113.5t-20 -138.5t-6.5 -157q0 -90 6 -178.5t20.5 -168.5t38.5 -148t59.5 -118t84.5 -78t114 -28q83 0 142.5 44t98 113t57 153t18.5 165
q0 21 -0.5 56.5t-2 78.5t-5 89t-10.5 89t-18 78.5t-26 56.5t-35 38t-48.5 31t-67.5 24t-91 18q-42 6 -64 14.5t-22 30.5q0 19 17.5 26t48.5 7q29 0 63.5 -4t74 -8.5t83.5 -8.5t92 -4q44 0 88 5t84.5 10.5t76 10.5t63.5 5q35 0 47 -6t12 -17q0 -12 -14 -16t-37 -6
q-24 -2 -51.5 -4t-54.5 -9t-50.5 -21t-38.5 -40q-20 -33 -28.5 -90t-11.5 -126t-3 -143.5t-4 -142.5q-2 -40 -9 -101.5t-24 -130t-47 -137t-78.5 -123.5t-118.5 -89.5t-167 -34.5q-94 0 -171 28t-138 79t-105 121.5t-72 154.5q-17 51 -27.5 114.5t-17 133.5t-10 144
t-4.5 147q-2 63 -6 114t-13 90t-24.5 65.5t-40.5 41.5q-28 17 -57.5 24t-75.5 7q-39 0 -39 28q0 23 33 29q44 7 88.5 13t91.5 13t97 15.5t104 21.5q97 24 170 49.5t125.5 46.5t86 34.5t52.5 13.5zM618 2211q19 0 40.5 -13t44 -35.5t45.5 -52t44 -62.5q24 -36 46 -70.5
t38.5 -64.5t26.5 -54.5t10 -42.5q0 -11 -5 -19t-16 -8q-12 0 -34.5 14.5t-51 38t-60.5 53.5t-62 62q-24 24 -48.5 49t-44 49.5t-31.5 47.5t-12 43q0 34 22 49.5t48 15.5z" />
    <glyph glyph-name="Uacute" unicode="&#xda;" horiz-adv-x="1415" 
d="M848 1614q26 0 26 -21q0 -15 -13.5 -27t-47.5 -28q-18 -8 -39.5 -19t-44 -25.5t-44.5 -34t-42 -44.5q-26 -32 -45 -82t-32.5 -113.5t-20 -138.5t-6.5 -157q0 -90 6 -178.5t20.5 -168.5t38.5 -148t59.5 -118t84.5 -78t114 -28q83 0 142.5 44t98 113t57 153t18.5 165
q0 21 -0.5 56.5t-2 78.5t-5 89t-10.5 89t-18 78.5t-26 56.5t-35 38t-48.5 31t-67.5 24t-91 18q-42 6 -64 14.5t-22 30.5q0 19 17.5 26t48.5 7q29 0 63.5 -4t74 -8.5t83.5 -8.5t92 -4q44 0 88 5t84.5 10.5t76 10.5t63.5 5q35 0 47 -6t12 -17q0 -12 -14 -16t-37 -6
q-24 -2 -51.5 -4t-54.5 -9t-50.5 -21t-38.5 -40q-20 -33 -28.5 -90t-11.5 -126t-3 -143.5t-4 -142.5q-2 -40 -9 -101.5t-24 -130t-47 -137t-78.5 -123.5t-118.5 -89.5t-167 -34.5q-94 0 -171 28t-138 79t-105 121.5t-72 154.5q-17 51 -27.5 114.5t-17 133.5t-10 144
t-4.5 147q-2 63 -6 114t-13 90t-24.5 65.5t-40.5 41.5q-28 17 -57.5 24t-75.5 7q-39 0 -39 28q0 23 33 29q44 7 88.5 13t91.5 13t97 15.5t104 21.5q97 24 170 49.5t125.5 46.5t86 34.5t52.5 13.5zM1276 1972q20 0 29.5 -12t9.5 -33q0 -18 -11.5 -45.5t-29.5 -59.5t-40.5 -67
t-45.5 -66q-42 -57 -79 -94t-54 -37q-10 0 -12.5 5.5t-2.5 15.5q0 14 10 48.5t27.5 78t40.5 90.5t49 86t54 64.5t55 25.5z" />
    <glyph glyph-name="Ucircumflex" unicode="&#xdb;" horiz-adv-x="1415" 
d="M848 1614q26 0 26 -21q0 -15 -13.5 -27t-47.5 -28q-18 -8 -39.5 -19t-44 -25.5t-44.5 -34t-42 -44.5q-26 -32 -45 -82t-32.5 -113.5t-20 -138.5t-6.5 -157q0 -90 6 -178.5t20.5 -168.5t38.5 -148t59.5 -118t84.5 -78t114 -28q83 0 142.5 44t98 113t57 153t18.5 165
q0 21 -0.5 56.5t-2 78.5t-5 89t-10.5 89t-18 78.5t-26 56.5t-35 38t-48.5 31t-67.5 24t-91 18q-42 6 -64 14.5t-22 30.5q0 19 17.5 26t48.5 7q29 0 63.5 -4t74 -8.5t83.5 -8.5t92 -4q44 0 88 5t84.5 10.5t76 10.5t63.5 5q35 0 47 -6t12 -17q0 -12 -14 -16t-37 -6
q-24 -2 -51.5 -4t-54.5 -9t-50.5 -21t-38.5 -40q-20 -33 -28.5 -90t-11.5 -126t-3 -143.5t-4 -142.5q-2 -40 -9 -101.5t-24 -130t-47 -137t-78.5 -123.5t-118.5 -89.5t-167 -34.5q-94 0 -171 28t-138 79t-105 121.5t-72 154.5q-17 51 -27.5 114.5t-17 133.5t-10 144
t-4.5 147q-2 63 -6 114t-13 90t-24.5 65.5t-40.5 41.5q-28 17 -57.5 24t-75.5 7q-39 0 -39 28q0 23 33 29q44 7 88.5 13t91.5 13t97 15.5t104 21.5q97 24 170 49.5t125.5 46.5t86 34.5t52.5 13.5zM856 2089q10 0 19.5 -13t28.5 -38q24 -33 43 -56.5t36.5 -43t35.5 -37.5
t40 -39q48 -45 84.5 -71.5t61.5 -43.5t38 -29t13 -28q0 -11 -9.5 -17t-21.5 -6q-19 0 -44 7t-52.5 19t-55.5 28t-53 34q-44 34 -76 63.5t-53.5 51.5t-34.5 34.5t-20 12.5q-6 0 -20 -14t-35.5 -38t-51.5 -55t-67 -65q-29 -26 -56.5 -49.5t-51 -41t-42 -28t-30.5 -10.5
q-3 0 -6 1.5t-3 6.5q0 9 25 34t65.5 66.5t90.5 99t100 130.5q18 28 34 52.5t28.5 43t22.5 29t17 10.5z" />
    <glyph glyph-name="Udieresis" unicode="&#xdc;" horiz-adv-x="1415" 
d="M848 1614q26 0 26 -21q0 -15 -13.5 -27t-47.5 -28q-18 -8 -39.5 -19t-44 -25.5t-44.5 -34t-42 -44.5q-26 -32 -45 -82t-32.5 -113.5t-20 -138.5t-6.5 -157q0 -90 6 -178.5t20.5 -168.5t38.5 -148t59.5 -118t84.5 -78t114 -28q83 0 142.5 44t98 113t57 153t18.5 165
q0 21 -0.5 56.5t-2 78.5t-5 89t-10.5 89t-18 78.5t-26 56.5t-35 38t-48.5 31t-67.5 24t-91 18q-42 6 -64 14.5t-22 30.5q0 19 17.5 26t48.5 7q29 0 63.5 -4t74 -8.5t83.5 -8.5t92 -4q44 0 88 5t84.5 10.5t76 10.5t63.5 5q35 0 47 -6t12 -17q0 -12 -14 -16t-37 -6
q-24 -2 -51.5 -4t-54.5 -9t-50.5 -21t-38.5 -40q-20 -33 -28.5 -90t-11.5 -126t-3 -143.5t-4 -142.5q-2 -40 -9 -101.5t-24 -130t-47 -137t-78.5 -123.5t-118.5 -89.5t-167 -34.5q-94 0 -171 28t-138 79t-105 121.5t-72 154.5q-17 51 -27.5 114.5t-17 133.5t-10 144
t-4.5 147q-2 63 -6 114t-13 90t-24.5 65.5t-40.5 41.5q-28 17 -57.5 24t-75.5 7q-39 0 -39 28q0 23 33 29q44 7 88.5 13t91.5 13t97 15.5t104 21.5q97 24 170 49.5t125.5 46.5t86 34.5t52.5 13.5zM699 2064q27 0 50.5 -8t41.5 -24.5t28.5 -41t10.5 -57.5q0 -39 -11 -69
t-29.5 -50.5t-44 -30.5t-54.5 -10q-59 0 -96.5 37t-37.5 109q0 35 11 62t30.5 45.5t45.5 28t55 9.5zM1049 2015q30 0 50.5 -10t33.5 -25.5t18.5 -34.5t5.5 -37q0 -55 -28.5 -92t-91.5 -37q-28 0 -47.5 9t-32 24.5t-18 37t-5.5 46.5t8 46.5t22.5 37.5t36 25.5t48.5 9.5z" />
    <glyph glyph-name="Yacute" unicode="&#xdd;" horiz-adv-x="1632" 
d="M733 1739q0 -10 -13.5 -18.5t-35.5 -18t-50.5 -21t-58.5 -26.5q-20 -10 -32.5 -25.5t-12.5 -38.5q0 -25 22.5 -63t55 -80t68 -83.5t61.5 -72.5q28 -34 67.5 -77t79 -82t74 -65.5t52.5 -27.5q10 -1 26.5 11.5t36.5 32.5t42 45.5t43.5 52.5t41.5 52t35 44q21 26 48 62
t51 72t40.5 68t16.5 50q0 11 -9 21t-23 19.5t-31.5 17.5t-35.5 14t-30.5 14t-12.5 20q0 10 7 14.5t18 4.5q15 0 35.5 -7t50 -17t69.5 -21t95 -19q45 -6 81.5 -9.5t66 -5t53 -1.5h44.5q48 0 48 -21q0 -24 -54 -24q-11 0 -33 1t-51 1q-21 0 -45.5 -0.5t-49 -4t-48 -10.5
t-43.5 -20q-24 -15 -50 -42.5t-53.5 -61t-56.5 -72t-57 -76.5q-29 -38 -55 -74t-49 -68.5t-41.5 -60t-30.5 -47.5q-22 -34 -36 -62t-22.5 -56.5t-12 -60.5t-3.5 -73q0 -55 1.5 -119t4.5 -130t6 -130.5t7 -121.5t7.5 -102.5t6.5 -73.5q9 -83 29.5 -130t52.5 -73
q14 -12 33 -22t36 -20t29 -20t12 -22q0 -8 -5.5 -13.5t-20.5 -5.5q-22 0 -57.5 9.5t-82.5 22t-104 25.5t-121 21q-56 6 -106 8t-92 2q-47 0 -80 -1t-50 -1q-27 0 -43 6t-16 21q0 17 18 24.5t47 12t66.5 10t75.5 17.5q26 8 43.5 22t29 33t18 41t11.5 47q6 27 13 79.5t14 120
t11.5 144t4.5 151.5q0 53 -2.5 100t-13.5 93q-7 30 -30 75t-57.5 99t-77 113.5t-88 119t-91 115.5t-86 102t-73.5 79.5t-52 48.5q-24 18 -45 30t-42.5 20.5t-45 14t-53.5 10.5q-48 6 -48 29q0 12 10.5 18.5t41.5 6.5q52 0 122 2.5t175 17.5q82 12 139.5 27t97.5 28t65 22
t42 9q20 0 20 -16zM1272 2190q20 0 29.5 -12t9.5 -33q0 -18 -11.5 -45.5t-29.5 -59.5t-40.5 -67t-45.5 -66q-42 -57 -79 -94t-54 -37q-10 0 -12.5 5.5t-2.5 15.5q0 14 10 48.5t27.5 78t40.5 90.5t49 86t54 64.5t55 25.5z" />
    <glyph glyph-name="Thorn" unicode="&#xde;" horiz-adv-x="983" 
d="M436 1507q9 -12 26 -18.5t40 -10t51.5 -5.5t60.5 -5q33 -4 76 -10.5t88.5 -21.5t89.5 -40.5t78.5 -67t56 -102t21.5 -143.5q0 -92 -29.5 -163t-81.5 -119.5t-122.5 -73.5t-151.5 -25q-39 0 -75 4.5t-66.5 11t-53 13t-34.5 10.5v-64v-100.5v-119.5t0.5 -120.5t0.5 -103.5
t1 -69q1 -38 4 -73t10.5 -66t23 -55.5t42.5 -41.5q21 -12 45.5 -18.5t40.5 -11.5q4 -1 10.5 -3.5t12.5 -6t10.5 -9t4.5 -12.5q0 -8 -6.5 -12.5t-23.5 -4.5q-19 0 -47.5 5t-63 11.5t-73 11.5t-78.5 5q-42 0 -83.5 -3t-75.5 -7t-58 -7t-31 -3q-19 0 -19 14q0 9 6 16t15 13.5
t20 13t21 14.5q28 22 51 55.5t33 96.5q3 21 6.5 68t6.5 108t6 130t6 135t5 123.5t3 94.5q2 85 5 192.5t6 223t5 230t2 213.5q0 89 -11.5 136.5t-37.5 65.5q-18 12 -42 16.5t-45 8t-35.5 9.5t-14.5 22q0 9 6.5 16.5t23.5 7.5q21 0 43.5 -1t50.5 -2t62 -2t78 -1q48 0 87 4
t70 9.5t55 9.5t42 4q49 0 49 -31q0 -17 -14 -24t-35 -7q-54 0 -84 -15.5t-47 -53.5q-6 -13 -12 -36t-10 -50t-6.5 -56.5t-2.5 -54.5t3 -43.5t9 -28.5zM535 776q64 0 108 25.5t70 67t37.5 93.5t11.5 105q0 70 -12 134t-38.5 113.5t-67.5 79t-99 29.5q-55 0 -85 -21t-44.5 -57
t-17.5 -84.5t-3 -103.5q0 -63 2 -126.5t4 -116.5q3 -62 7 -119q17 -6 37 -10q17 -4 40.5 -6.5t49.5 -2.5z" />
    <glyph glyph-name="germandbls" unicode="&#xdf;" horiz-adv-x="1212" 
d="M348 1987q75 0 142 -23t117 -71.5t79 -123.5t29 -178q0 -84 -24 -152.5t-60.5 -122.5t-80.5 -93.5t-83.5 -67t-70 -42.5t-40.5 -19q19 2 52 5t79 3q53 0 125 -8t149 -32.5t152 -69.5t134.5 -119t96 -181.5t36.5 -255.5q0 -133 -31.5 -230t-87 -160.5t-132 -94.5
t-167.5 -31q-54 0 -95.5 13.5t-69 37t-42 54t-14.5 65.5q0 25 6.5 48.5t19.5 42t32.5 29.5t45.5 11q36 0 58.5 -16t37 -39.5t25.5 -51t24.5 -51t34 -39.5t54.5 -16q57 0 89.5 57t32.5 162q0 71 -17.5 156.5t-51 172.5t-82.5 168.5t-113 145.5q-65 64 -128.5 99.5t-120.5 52
t-103.5 19.5t-77.5 3q-47 0 -47 15q0 7 10.5 17t26 22.5t34.5 27t36 31.5q31 29 63 69.5t58 95.5t42.5 127t16.5 165q0 65 -11.5 125t-37.5 105.5t-68 72.5t-102 27q-55 0 -94 -23t-63.5 -63.5t-36 -97t-11.5 -122.5q0 -83 13.5 -188.5t36 -222t51 -238t58.5 -236t59 -216.5
t52 -179q28 -93 48 -157t33 -105.5t19.5 -63.5t6.5 -30q0 -6 -18 -9t-53 -10.5t-86 -22t-116 -42.5q-48 -21 -89.5 -45.5t-75 -45.5t-60 -35.5t-45.5 -14.5q-9 0 -12.5 4.5t-3.5 9.5q0 15 26 35q19 15 45 37.5t52.5 47.5t50.5 49.5t39 43.5q18 25 30.5 53t12.5 74
q0 44 -14 128.5t-34.5 196.5t-45 243.5t-45 269.5t-34.5 274.5t-14 257.5q0 104 20 193t61.5 154t105.5 102t151 37z" />
    <glyph glyph-name="agrave" unicode="&#xe0;" horiz-adv-x="1081" 
d="M309 721q-37 0 -69.5 14t-56.5 42t-38 70t-14 99q0 62 17.5 121.5t54.5 106t94.5 74.5t138.5 28q67 0 118.5 -17.5t90.5 -47t66.5 -68.5t46.5 -81.5t31.5 -86t21.5 -82.5q5 -22 12.5 -62.5t16.5 -93.5t19 -113.5t20 -122.5t19.5 -120.5t17.5 -107t13.5 -83t8.5 -47.5
q6 -31 13.5 -63t19 -58.5t28.5 -43.5t43 -17q15 0 26 7t17.5 19t9.5 27t3 31q0 19 -1 38.5t-1 33.5q0 15 4 26t16 11q11 0 17.5 -12.5t10 -29t4.5 -33t1 -24.5q0 -35 -6 -79t-25 -85q-18 -42 -60 -69t-97 -27q-48 0 -82.5 14t-59 35t-41 45t-26.5 45q-28 54 -42.5 118.5
t-23.5 123.5q-15 -25 -45.5 -62t-75.5 -71t-104 -58t-131 -24q-80 0 -136.5 22.5t-92.5 61t-53 90t-17 109.5q0 62 23 125t75.5 114t137 83t206.5 32q28 0 54.5 -2.5t48 -5.5t37 -6t22.5 -4q-6 86 -15 172q-4 36 -8.5 76t-9.5 80.5t-11 79.5t-13 73q-16 77 -62.5 122.5
t-118.5 45.5q-39 0 -68.5 -14t-50 -36t-30.5 -49.5t-10 -54.5q0 -29 14 -48.5t34.5 -34.5t44.5 -28.5t44.5 -31t34.5 -42t14 -61.5q0 -49 -33.5 -78.5t-81.5 -29.5zM643 518q-7 3 -24.5 7.5t-41.5 9t-51.5 7.5t-54.5 3q-53 0 -98.5 -15t-78.5 -44.5t-52 -74t-19 -102.5
q0 -53 17.5 -87.5t45 -54.5t61 -28t65.5 -8q51 0 97 16t81 37t57 41t27 27q-7 67 -13 122q-3 24 -5.5 47t-5 43t-4.5 34t-3 20zM130 1750q19 0 40.5 -13t44 -35.5t45.5 -52t44 -62.5q24 -36 46 -70.5t38.5 -64.5t26.5 -54.5t10 -42.5q0 -11 -5 -19t-16 -8q-12 0 -34.5 14.5
t-51 38t-60.5 53.5t-62 62q-24 24 -48.5 49t-44 49.5t-31.5 47.5t-12 43q0 34 22 49.5t48 15.5z" />
    <glyph glyph-name="aacute" unicode="&#xe1;" horiz-adv-x="1081" 
d="M309 721q-37 0 -69.5 14t-56.5 42t-38 70t-14 99q0 62 17.5 121.5t54.5 106t94.5 74.5t138.5 28q67 0 118.5 -17.5t90.5 -47t66.5 -68.5t46.5 -81.5t31.5 -86t21.5 -82.5q5 -22 12.5 -62.5t16.5 -93.5t19 -113.5t20 -122.5t19.5 -120.5t17.5 -107t13.5 -83t8.5 -47.5
q6 -31 13.5 -63t19 -58.5t28.5 -43.5t43 -17q15 0 26 7t17.5 19t9.5 27t3 31q0 19 -1 38.5t-1 33.5q0 15 4 26t16 11q11 0 17.5 -12.5t10 -29t4.5 -33t1 -24.5q0 -35 -6 -79t-25 -85q-18 -42 -60 -69t-97 -27q-48 0 -82.5 14t-59 35t-41 45t-26.5 45q-28 54 -42.5 118.5
t-23.5 123.5q-15 -25 -45.5 -62t-75.5 -71t-104 -58t-131 -24q-80 0 -136.5 22.5t-92.5 61t-53 90t-17 109.5q0 62 23 125t75.5 114t137 83t206.5 32q28 0 54.5 -2.5t48 -5.5t37 -6t22.5 -4q-6 86 -15 172q-4 36 -8.5 76t-9.5 80.5t-11 79.5t-13 73q-16 77 -62.5 122.5
t-118.5 45.5q-39 0 -68.5 -14t-50 -36t-30.5 -49.5t-10 -54.5q0 -29 14 -48.5t34.5 -34.5t44.5 -28.5t44.5 -31t34.5 -42t14 -61.5q0 -49 -33.5 -78.5t-81.5 -29.5zM643 518q-7 3 -24.5 7.5t-41.5 9t-51.5 7.5t-54.5 3q-53 0 -98.5 -15t-78.5 -44.5t-52 -74t-19 -102.5
q0 -53 17.5 -87.5t45 -54.5t61 -28t65.5 -8q51 0 97 16t81 37t57 41t27 27q-7 67 -13 122q-3 24 -5.5 47t-5 43t-4.5 34t-3 20zM692 1767q20 0 29.5 -12t9.5 -33q0 -18 -11.5 -45.5t-29.5 -59.5t-40.5 -67t-45.5 -66q-42 -57 -79 -94t-54 -37q-10 0 -12.5 5.5t-2.5 15.5
q0 14 10 48.5t27.5 78t40.5 90.5t49 86t54 64.5t55 25.5z" />
    <glyph glyph-name="acircumflex" unicode="&#xe2;" horiz-adv-x="1081" 
d="M309 721q-37 0 -69.5 14t-56.5 42t-38 70t-14 99q0 62 17.5 121.5t54.5 106t94.5 74.5t138.5 28q67 0 118.5 -17.5t90.5 -47t66.5 -68.5t46.5 -81.5t31.5 -86t21.5 -82.5q5 -22 12.5 -62.5t16.5 -93.5t19 -113.5t20 -122.5t19.5 -120.5t17.5 -107t13.5 -83t8.5 -47.5
q6 -31 13.5 -63t19 -58.5t28.5 -43.5t43 -17q15 0 26 7t17.5 19t9.5 27t3 31q0 19 -1 38.5t-1 33.5q0 15 4 26t16 11q11 0 17.5 -12.5t10 -29t4.5 -33t1 -24.5q0 -35 -6 -79t-25 -85q-18 -42 -60 -69t-97 -27q-48 0 -82.5 14t-59 35t-41 45t-26.5 45q-28 54 -42.5 118.5
t-23.5 123.5q-15 -25 -45.5 -62t-75.5 -71t-104 -58t-131 -24q-80 0 -136.5 22.5t-92.5 61t-53 90t-17 109.5q0 62 23 125t75.5 114t137 83t206.5 32q28 0 54.5 -2.5t48 -5.5t37 -6t22.5 -4q-6 86 -15 172q-4 36 -8.5 76t-9.5 80.5t-11 79.5t-13 73q-16 77 -62.5 122.5
t-118.5 45.5q-39 0 -68.5 -14t-50 -36t-30.5 -49.5t-10 -54.5q0 -29 14 -48.5t34.5 -34.5t44.5 -28.5t44.5 -31t34.5 -42t14 -61.5q0 -49 -33.5 -78.5t-81.5 -29.5zM643 518q-7 3 -24.5 7.5t-41.5 9t-51.5 7.5t-54.5 3q-53 0 -98.5 -15t-78.5 -44.5t-52 -74t-19 -102.5
q0 -53 17.5 -87.5t45 -54.5t61 -28t65.5 -8q51 0 97 16t81 37t57 41t27 27q-7 67 -13 122q-3 24 -5.5 47t-5 43t-4.5 34t-3 20zM488 1742q10 0 19.5 -13t28.5 -38q24 -33 43 -56.5t36.5 -43t35.5 -37.5t40 -39q48 -45 84.5 -71.5t61.5 -43.5t38 -29t13 -28q0 -11 -9.5 -17
t-21.5 -6q-19 0 -44 7t-52.5 19t-55.5 28t-53 34q-44 34 -76 63.5t-53.5 51.5t-34.5 34.5t-20 12.5q-6 0 -20 -14t-35.5 -38t-51.5 -55t-67 -65q-29 -26 -56.5 -49.5t-51 -41t-42 -28t-30.5 -10.5q-3 0 -6 1.5t-3 6.5q0 9 25 34t65.5 66.5t90.5 99t100 130.5q18 28 34 52.5
t28.5 43t22.5 29t17 10.5z" />
    <glyph glyph-name="atilde" unicode="&#xe3;" horiz-adv-x="1081" 
d="M309 721q-37 0 -69.5 14t-56.5 42t-38 70t-14 99q0 62 17.5 121.5t54.5 106t94.5 74.5t138.5 28q67 0 118.5 -17.5t90.5 -47t66.5 -68.5t46.5 -81.5t31.5 -86t21.5 -82.5q5 -22 12.5 -62.5t16.5 -93.5t19 -113.5t20 -122.5t19.5 -120.5t17.5 -107t13.5 -83t8.5 -47.5
q6 -31 13.5 -63t19 -58.5t28.5 -43.5t43 -17q15 0 26 7t17.5 19t9.5 27t3 31q0 19 -1 38.5t-1 33.5q0 15 4 26t16 11q11 0 17.5 -12.5t10 -29t4.5 -33t1 -24.5q0 -35 -6 -79t-25 -85q-18 -42 -60 -69t-97 -27q-48 0 -82.5 14t-59 35t-41 45t-26.5 45q-28 54 -42.5 118.5
t-23.5 123.5q-15 -25 -45.5 -62t-75.5 -71t-104 -58t-131 -24q-80 0 -136.5 22.5t-92.5 61t-53 90t-17 109.5q0 62 23 125t75.5 114t137 83t206.5 32q28 0 54.5 -2.5t48 -5.5t37 -6t22.5 -4q-6 86 -15 172q-4 36 -8.5 76t-9.5 80.5t-11 79.5t-13 73q-16 77 -62.5 122.5
t-118.5 45.5q-39 0 -68.5 -14t-50 -36t-30.5 -49.5t-10 -54.5q0 -29 14 -48.5t34.5 -34.5t44.5 -28.5t44.5 -31t34.5 -42t14 -61.5q0 -49 -33.5 -78.5t-81.5 -29.5zM643 518q-7 3 -24.5 7.5t-41.5 9t-51.5 7.5t-54.5 3q-53 0 -98.5 -15t-78.5 -44.5t-52 -74t-19 -102.5
q0 -53 17.5 -87.5t45 -54.5t61 -28t65.5 -8q51 0 97 16t81 37t57 41t27 27q-7 67 -13 122q-3 24 -5.5 47t-5 43t-4.5 34t-3 20zM387 1635q31 0 61 -12.5t59.5 -30.5t59 -40t59 -40t60 -30.5t61.5 -12.5q26 0 45 10.5t32 23.5t22 23.5t16 10.5q6 0 11 -8.5t5 -28.5
q0 -35 -9.5 -70.5t-30.5 -64.5t-54.5 -47.5t-81.5 -18.5q-45 0 -83.5 17t-72.5 42.5t-63.5 55.5t-56.5 55.5t-51.5 42.5t-47.5 17q-19 0 -33.5 -11.5t-25 -28t-18 -36.5t-13.5 -36.5t-12 -28t-12 -11.5q-11 0 -11 31q0 22 9.5 60.5t31 75.5t57 64t87.5 27z" />
    <glyph glyph-name="adieresis" unicode="&#xe4;" horiz-adv-x="1081" 
d="M324 1546q48 0 74 -31.5t26 -74.5q0 -35 -11 -59.5t-28.5 -40.5t-39 -23.5t-42.5 -7.5q-19 0 -37.5 7t-32.5 20.5t-23 34.5t-9 48q0 28 10 51t27.5 40t39.5 26.5t46 9.5zM582 1524q16 0 32 -5.5t29 -17t21 -29.5t8 -42q0 -25 -7.5 -46t-21 -36.5t-31.5 -24t-39 -8.5
q-18 0 -34.5 5.5t-30 17.5t-21.5 31.5t-8 47.5q0 25 8.5 44.5t22.5 33.5t33 21.5t39 7.5zM309 721q-37 0 -69.5 14t-56.5 42t-38 70t-14 99q0 62 17.5 121.5t54.5 106t94.5 74.5t138.5 28q67 0 118.5 -17.5t90.5 -47t66.5 -68.5t46.5 -81.5t31.5 -86t21.5 -82.5
q5 -22 12.5 -62.5t16.5 -93.5t19 -113.5t20 -122.5t19.5 -120.5t17.5 -107t13.5 -83t8.5 -47.5q6 -31 13.5 -63t19 -58.5t28.5 -43.5t43 -17q15 0 26 7t17.5 19t9.5 27t3 31q0 19 -1 38.5t-1 33.5q0 15 4 26t16 11q11 0 17.5 -12.5t10 -29t4.5 -33t1 -24.5q0 -35 -6 -79
t-25 -85q-18 -42 -60 -69t-97 -27q-48 0 -82.5 14t-59 35t-41 45t-26.5 45q-28 54 -42.5 118.5t-23.5 123.5q-15 -25 -45.5 -62t-75.5 -71t-104 -58t-131 -24q-80 0 -136.5 22.5t-92.5 61t-53 90t-17 109.5q0 62 23 125t75.5 114t137 83t206.5 32q28 0 54.5 -2.5t48 -5.5
t37 -6t22.5 -4q-6 86 -15 172q-4 36 -8.5 76t-9.5 80.5t-11 79.5t-13 73q-16 77 -62.5 122.5t-118.5 45.5q-39 0 -68.5 -14t-50 -36t-30.5 -49.5t-10 -54.5q0 -29 14 -48.5t34.5 -34.5t44.5 -28.5t44.5 -31t34.5 -42t14 -61.5q0 -49 -33.5 -78.5t-81.5 -29.5zM643 518
q-7 3 -24.5 7.5t-41.5 9t-51.5 7.5t-54.5 3q-53 0 -98.5 -15t-78.5 -44.5t-52 -74t-19 -102.5q0 -53 17.5 -87.5t45 -54.5t61 -28t65.5 -8q51 0 97 16t81 37t57 41t27 27q-7 67 -13 122q-3 24 -5.5 47t-5 43t-4.5 34t-3 20z" />
    <glyph glyph-name="aring" unicode="&#xe5;" horiz-adv-x="1081" 
d="M309 721q-37 0 -69.5 14t-56.5 42t-38 70t-14 99q0 62 17.5 121.5t54.5 106t94.5 74.5t138.5 28q67 0 118.5 -17.5t90.5 -47t66.5 -68.5t46.5 -81.5t31.5 -86t21.5 -82.5q5 -22 12.5 -62.5t16.5 -93.5t19 -113.5t20 -122.5t19.5 -120.5t17.5 -107t13.5 -83t8.5 -47.5
q6 -31 13.5 -63t19 -58.5t28.5 -43.5t43 -17q15 0 26 7t17.5 19t9.5 27t3 31q0 19 -1 38.5t-1 33.5q0 15 4 26t16 11q11 0 17.5 -12.5t10 -29t4.5 -33t1 -24.5q0 -35 -6 -79t-25 -85q-18 -42 -60 -69t-97 -27q-48 0 -82.5 14t-59 35t-41 45t-26.5 45q-28 54 -42.5 118.5
t-23.5 123.5q-15 -25 -45.5 -62t-75.5 -71t-104 -58t-131 -24q-80 0 -136.5 22.5t-92.5 61t-53 90t-17 109.5q0 62 23 125t75.5 114t137 83t206.5 32q28 0 54.5 -2.5t48 -5.5t37 -6t22.5 -4q-6 86 -15 172q-4 36 -8.5 76t-9.5 80.5t-11 79.5t-13 73q-16 77 -62.5 122.5
t-118.5 45.5q-39 0 -68.5 -14t-50 -36t-30.5 -49.5t-10 -54.5q0 -29 14 -48.5t34.5 -34.5t44.5 -28.5t44.5 -31t34.5 -42t14 -61.5q0 -49 -33.5 -78.5t-81.5 -29.5zM643 518q-7 3 -24.5 7.5t-41.5 9t-51.5 7.5t-54.5 3q-53 0 -98.5 -15t-78.5 -44.5t-52 -74t-19 -102.5
q0 -53 17.5 -87.5t45 -54.5t61 -28t65.5 -8q51 0 97 16t81 37t57 41t27 27q-7 67 -13 122q-3 24 -5.5 47t-5 43t-4.5 34t-3 20zM496 1875q57 0 101.5 -18.5t74.5 -51.5t45.5 -80t15.5 -104t-17.5 -107t-48 -86.5t-72.5 -57.5t-91 -21q-112 0 -177 67t-65 191q0 64 20.5 114
t54 84.5t75.5 52t84 17.5zM500 1836q-29 0 -56 -12t-48 -35.5t-33.5 -58.5t-12.5 -80q0 -46 14 -78.5t36 -53.5t49.5 -30.5t54.5 -9.5q41 0 70 16.5t48 42.5t27.5 58.5t8.5 64.5q0 37 -11 69t-31.5 56t-49.5 37.5t-66 13.5z" />
    </font>
</defs>
</svg>
